<svg width="142" height="139" viewBox="0 0 142 139" fill="none" xmlns="http://www.w3.org/2000/svg">
<g filter="url(#filter0_d_96_779)">
<rect x="4" y="2" width="134" height="131" rx="12" fill="#1E1E1E" shape-rendering="crispEdges"/>
<path d="M30.1973 30.2031H32.166L35.8662 40.0732L39.5576 30.2031H41.5264L36.6396 43H35.0752L30.1973 30.2031ZM29.3008 30.2031H31.1729L31.498 38.7461V43H29.3008V30.2031ZM40.5508 30.2031H42.4316V43H40.2256V38.7461L40.5508 30.2031ZM50.5615 40.7588V33.4902H52.6885V43H50.6846L50.5615 40.7588ZM50.8604 38.7812L51.5723 38.7637C51.5723 39.4023 51.502 39.9912 51.3613 40.5303C51.2207 41.0635 51.0039 41.5293 50.7109 41.9277C50.418 42.3203 50.043 42.6279 49.5859 42.8506C49.1289 43.0674 48.5811 43.1758 47.9424 43.1758C47.4795 43.1758 47.0547 43.1084 46.668 42.9736C46.2812 42.8389 45.9473 42.6309 45.666 42.3496C45.3906 42.0684 45.1768 41.7021 45.0244 41.251C44.8721 40.7998 44.7959 40.2607 44.7959 39.6338V33.4902H46.9141V39.6514C46.9141 39.9971 46.9551 40.2871 47.0371 40.5215C47.1191 40.75 47.2305 40.9346 47.3711 41.0752C47.5117 41.2158 47.6758 41.3154 47.8633 41.374C48.0508 41.4326 48.25 41.4619 48.4609 41.4619C49.0645 41.4619 49.5391 41.3447 49.8848 41.1104C50.2363 40.8701 50.4854 40.5479 50.6318 40.1436C50.7842 39.7393 50.8604 39.2852 50.8604 38.7812ZM60.6602 41.0312V29.5H62.7871V43H60.8623L60.6602 41.0312ZM54.4727 38.3506V38.166C54.4727 37.4453 54.5576 36.7891 54.7275 36.1973C54.8975 35.5996 55.1436 35.0869 55.4658 34.6592C55.7881 34.2256 56.1807 33.8945 56.6436 33.666C57.1064 33.4316 57.6279 33.3145 58.208 33.3145C58.7822 33.3145 59.2861 33.4258 59.7197 33.6484C60.1533 33.8711 60.5225 34.1904 60.8271 34.6064C61.1318 35.0166 61.375 35.5088 61.5566 36.083C61.7383 36.6514 61.8672 37.2842 61.9434 37.9814V38.5703C61.8672 39.25 61.7383 39.8711 61.5566 40.4336C61.375 40.9961 61.1318 41.4824 60.8271 41.8926C60.5225 42.3027 60.1504 42.6191 59.7109 42.8418C59.2773 43.0645 58.7705 43.1758 58.1904 43.1758C57.6162 43.1758 57.0977 43.0557 56.6348 42.8154C56.1777 42.5752 55.7881 42.2383 55.4658 41.8047C55.1436 41.3711 54.8975 40.8613 54.7275 40.2754C54.5576 39.6836 54.4727 39.042 54.4727 38.3506ZM56.5908 38.166V38.3506C56.5908 38.7842 56.6289 39.1885 56.7051 39.5635C56.7871 39.9385 56.9131 40.2695 57.083 40.5566C57.2529 40.8379 57.4727 41.0605 57.7422 41.2246C58.0176 41.3828 58.3457 41.4619 58.7266 41.4619C59.207 41.4619 59.6025 41.3564 59.9131 41.1455C60.2236 40.9346 60.4668 40.6504 60.6426 40.293C60.8242 39.9297 60.9473 39.5254 61.0117 39.0801V37.4893C60.9766 37.1436 60.9033 36.8213 60.792 36.5225C60.6865 36.2236 60.543 35.9629 60.3613 35.7402C60.1797 35.5117 59.9541 35.3359 59.6846 35.2129C59.4209 35.084 59.1074 35.0195 58.7441 35.0195C58.3574 35.0195 58.0293 35.1016 57.7598 35.2656C57.4902 35.4297 57.2676 35.6553 57.0918 35.9424C56.9219 36.2295 56.7959 36.5635 56.7139 36.9443C56.6318 37.3252 56.5908 37.7324 56.5908 38.166ZM70.3633 41.0928V36.5576C70.3633 36.2178 70.3018 35.9248 70.1787 35.6787C70.0557 35.4326 69.8682 35.2422 69.6162 35.1074C69.3701 34.9727 69.0596 34.9053 68.6846 34.9053C68.3389 34.9053 68.04 34.9639 67.7881 35.0811C67.5361 35.1982 67.3398 35.3564 67.1992 35.5557C67.0586 35.7549 66.9883 35.9805 66.9883 36.2324H64.8789C64.8789 35.8574 64.9697 35.4941 65.1514 35.1426C65.333 34.791 65.5967 34.4775 65.9424 34.2021C66.2881 33.9268 66.7012 33.71 67.1816 33.5518C67.6621 33.3936 68.2012 33.3145 68.7988 33.3145C69.5137 33.3145 70.1465 33.4346 70.6973 33.6748C71.2539 33.915 71.6904 34.2783 72.0068 34.7646C72.3291 35.2451 72.4902 35.8486 72.4902 36.5752V40.8027C72.4902 41.2363 72.5195 41.626 72.5781 41.9717C72.6426 42.3115 72.7334 42.6074 72.8506 42.8594V43H70.6797C70.5801 42.7715 70.501 42.4814 70.4424 42.1299C70.3896 41.7725 70.3633 41.4268 70.3633 41.0928ZM70.6709 37.2168L70.6885 38.5264H69.168C68.7754 38.5264 68.4297 38.5645 68.1309 38.6406C67.832 38.7109 67.583 38.8164 67.3838 38.957C67.1846 39.0977 67.0352 39.2676 66.9355 39.4668C66.8359 39.666 66.7861 39.8916 66.7861 40.1436C66.7861 40.3955 66.8447 40.627 66.9619 40.8379C67.0791 41.043 67.249 41.2041 67.4717 41.3213C67.7002 41.4385 67.9756 41.4971 68.2979 41.4971C68.7314 41.4971 69.1094 41.4092 69.4316 41.2334C69.7598 41.0518 70.0176 40.832 70.2051 40.5742C70.3926 40.3105 70.4922 40.0615 70.5039 39.8271L71.1895 40.7676C71.1191 41.0078 70.999 41.2656 70.8291 41.541C70.6592 41.8164 70.4365 42.0801 70.1611 42.332C69.8916 42.5781 69.5664 42.7803 69.1855 42.9385C68.8105 43.0967 68.377 43.1758 67.8848 43.1758C67.2637 43.1758 66.71 43.0527 66.2236 42.8066C65.7373 42.5547 65.3564 42.2178 65.0811 41.7959C64.8057 41.3682 64.668 40.8848 64.668 40.3457C64.668 39.8418 64.7617 39.3965 64.9492 39.0098C65.1426 38.6172 65.4238 38.2891 65.793 38.0254C66.168 37.7617 66.625 37.5625 67.1641 37.4277C67.7031 37.2871 68.3184 37.2168 69.0098 37.2168H70.6709ZM76.832 35.3008V43H74.7139V33.4902H76.7354L76.832 35.3008ZM79.7412 33.4287L79.7236 35.3975C79.5947 35.374 79.4541 35.3564 79.3018 35.3447C79.1553 35.333 79.0088 35.3271 78.8623 35.3271C78.499 35.3271 78.1797 35.3799 77.9043 35.4854C77.6289 35.585 77.3975 35.7314 77.21 35.9248C77.0283 36.1123 76.8877 36.3408 76.7881 36.6104C76.6885 36.8799 76.6299 37.1816 76.6123 37.5156L76.1289 37.5508C76.1289 36.9531 76.1875 36.3994 76.3047 35.8896C76.4219 35.3799 76.5977 34.9316 76.832 34.5449C77.0723 34.1582 77.3711 33.8564 77.7285 33.6396C78.0918 33.4229 78.5107 33.3145 78.9854 33.3145C79.1143 33.3145 79.252 33.3262 79.3984 33.3496C79.5508 33.373 79.665 33.3994 79.7412 33.4287ZM34.0996 58.2168H30.8389L30.8213 56.6084H33.6689C34.1494 56.6084 34.5566 56.5381 34.8906 56.3975C35.2305 56.251 35.4883 56.043 35.6641 55.7734C35.8398 55.498 35.9277 55.167 35.9277 54.7803C35.9277 54.3525 35.8457 54.0039 35.6816 53.7344C35.5176 53.4648 35.2656 53.2686 34.9258 53.1455C34.5918 53.0225 34.1641 52.9609 33.6426 52.9609H31.5068V64H29.3008V51.2031H33.6426C34.3457 51.2031 34.9727 51.2705 35.5234 51.4053C36.0801 51.54 36.5518 51.751 36.9385 52.0381C37.3311 52.3193 37.627 52.6768 37.8262 53.1104C38.0312 53.5439 38.1338 54.0596 38.1338 54.6572C38.1338 55.1846 38.0078 55.668 37.7559 56.1074C37.5039 56.541 37.1318 56.8955 36.6396 57.1709C36.1475 57.4463 35.5352 57.6104 34.8027 57.6631L34.0996 58.2168ZM34.0029 64H30.1445L31.1377 62.251H34.0029C34.501 62.251 34.917 62.1689 35.251 62.0049C35.585 61.835 35.834 61.6035 35.998 61.3105C36.168 61.0117 36.2529 60.6631 36.2529 60.2646C36.2529 59.8486 36.1797 59.4883 36.0332 59.1836C35.8867 58.873 35.6553 58.6357 35.3389 58.4717C35.0225 58.3018 34.6094 58.2168 34.0996 58.2168H31.6211L31.6387 56.6084H34.8643L35.3652 57.2148C36.0684 57.2383 36.6455 57.3936 37.0967 57.6807C37.5537 57.9678 37.8936 58.3398 38.1162 58.7969C38.3389 59.2539 38.4502 59.7461 38.4502 60.2734C38.4502 61.0879 38.2715 61.7705 37.9141 62.3213C37.5625 62.8721 37.0557 63.291 36.3936 63.5781C35.7314 63.8594 34.9346 64 34.0029 64ZM42.7305 54.4902V64H40.6035V54.4902H42.7305ZM40.4629 51.9941C40.4629 51.6719 40.5684 51.4053 40.7793 51.1943C40.9961 50.9775 41.2949 50.8691 41.6758 50.8691C42.0508 50.8691 42.3467 50.9775 42.5635 51.1943C42.7803 51.4053 42.8887 51.6719 42.8887 51.9941C42.8887 52.3105 42.7803 52.5742 42.5635 52.7852C42.3467 52.9961 42.0508 53.1016 41.6758 53.1016C41.2949 53.1016 40.9961 52.9961 40.7793 52.7852C40.5684 52.5742 40.4629 52.3105 40.4629 51.9941ZM44.6465 59.3506V59.1484C44.6465 58.4629 44.7461 57.8271 44.9453 57.2412C45.1445 56.6494 45.4316 56.1367 45.8066 55.7031C46.1875 55.2637 46.6504 54.9238 47.1953 54.6836C47.7461 54.4375 48.3672 54.3145 49.0586 54.3145C49.7559 54.3145 50.377 54.4375 50.9219 54.6836C51.4727 54.9238 51.9385 55.2637 52.3193 55.7031C52.7002 56.1367 52.9902 56.6494 53.1895 57.2412C53.3887 57.8271 53.4883 58.4629 53.4883 59.1484V59.3506C53.4883 60.0361 53.3887 60.6719 53.1895 61.2578C52.9902 61.8438 52.7002 62.3564 52.3193 62.7959C51.9385 63.2295 51.4756 63.5693 50.9307 63.8154C50.3857 64.0557 49.7676 64.1758 49.0762 64.1758C48.3789 64.1758 47.7549 64.0557 47.2041 63.8154C46.6592 63.5693 46.1963 63.2295 45.8154 62.7959C45.4346 62.3564 45.1445 61.8438 44.9453 61.2578C44.7461 60.6719 44.6465 60.0361 44.6465 59.3506ZM46.7646 59.1484V59.3506C46.7646 59.7783 46.8086 60.1826 46.8965 60.5635C46.9844 60.9443 47.1221 61.2783 47.3096 61.5654C47.4971 61.8525 47.7373 62.0781 48.0303 62.2422C48.3232 62.4062 48.6719 62.4883 49.0762 62.4883C49.4688 62.4883 49.8086 62.4062 50.0957 62.2422C50.3887 62.0781 50.6289 61.8525 50.8164 61.5654C51.0039 61.2783 51.1416 60.9443 51.2295 60.5635C51.3232 60.1826 51.3701 59.7783 51.3701 59.3506V59.1484C51.3701 58.7266 51.3232 58.3281 51.2295 57.9531C51.1416 57.5723 51.001 57.2354 50.8076 56.9424C50.6201 56.6494 50.3799 56.4209 50.0869 56.2568C49.7998 56.0869 49.457 56.002 49.0586 56.002C48.6602 56.002 48.3145 56.0869 48.0215 56.2568C47.7344 56.4209 47.4971 56.6494 47.3096 56.9424C47.1221 57.2354 46.9844 57.5723 46.8965 57.9531C46.8086 58.3281 46.7646 58.7266 46.7646 59.1484ZM57.3818 56.4238V64H55.2637V54.4902H57.2588L57.3818 56.4238ZM57.0391 58.8936L56.3184 58.8848C56.3184 58.2285 56.4004 57.6221 56.5645 57.0654C56.7285 56.5088 56.9688 56.0254 57.2852 55.6152C57.6016 55.1992 57.9941 54.8799 58.4629 54.6572C58.9375 54.4287 59.4854 54.3145 60.1064 54.3145C60.54 54.3145 60.9355 54.3789 61.293 54.5078C61.6562 54.6309 61.9697 54.8271 62.2334 55.0967C62.5029 55.3662 62.708 55.7119 62.8486 56.1338C62.9951 56.5557 63.0684 57.0654 63.0684 57.6631V64H60.9502V57.8477C60.9502 57.3848 60.8799 57.0215 60.7393 56.7578C60.6045 56.4941 60.4082 56.3066 60.1504 56.1953C59.8984 56.0781 59.5967 56.0195 59.2451 56.0195C58.8467 56.0195 58.5068 56.0957 58.2256 56.248C57.9502 56.4004 57.7246 56.6084 57.5488 56.8721C57.373 57.1357 57.2441 57.4404 57.1621 57.7861C57.0801 58.1318 57.0391 58.501 57.0391 58.8936ZM62.9365 58.3311L61.9434 58.5508C61.9434 57.9766 62.0225 57.4346 62.1807 56.9248C62.3447 56.4092 62.582 55.958 62.8926 55.5713C63.209 55.1787 63.5986 54.8711 64.0615 54.6484C64.5244 54.4258 65.0547 54.3145 65.6523 54.3145C66.1387 54.3145 66.5723 54.3818 66.9531 54.5166C67.3398 54.6455 67.668 54.8506 67.9375 55.1318C68.207 55.4131 68.4121 55.7793 68.5527 56.2305C68.6934 56.6758 68.7637 57.2148 68.7637 57.8477V64H66.6367V57.8389C66.6367 57.3584 66.5664 56.9863 66.4258 56.7227C66.291 56.459 66.0977 56.2773 65.8457 56.1777C65.5938 56.0723 65.292 56.0195 64.9404 56.0195C64.6123 56.0195 64.3223 56.0811 64.0703 56.2041C63.8242 56.3213 63.6162 56.4883 63.4463 56.7051C63.2764 56.916 63.1475 57.1592 63.0596 57.4346C62.9775 57.71 62.9365 58.0088 62.9365 58.3311ZM75.1357 64.1758C74.4326 64.1758 73.7969 64.0615 73.2285 63.833C72.666 63.5986 72.1855 63.2734 71.7871 62.8574C71.3945 62.4414 71.0928 61.9521 70.8818 61.3896C70.6709 60.8271 70.5654 60.2207 70.5654 59.5703V59.2188C70.5654 58.4746 70.6738 57.8008 70.8906 57.1973C71.1074 56.5938 71.4092 56.0781 71.7959 55.6504C72.1826 55.2168 72.6396 54.8857 73.167 54.6572C73.6943 54.4287 74.2656 54.3145 74.8809 54.3145C75.5605 54.3145 76.1553 54.4287 76.665 54.6572C77.1748 54.8857 77.5967 55.208 77.9307 55.624C78.2705 56.0342 78.5225 56.5234 78.6865 57.0918C78.8564 57.6602 78.9414 58.2871 78.9414 58.9727V59.8779H71.5938V58.3574H76.8496V58.1904C76.8379 57.8096 76.7617 57.4521 76.6211 57.1182C76.4863 56.7842 76.2783 56.5146 75.9971 56.3096C75.7158 56.1045 75.3408 56.002 74.8721 56.002C74.5205 56.002 74.207 56.0781 73.9316 56.2305C73.6621 56.377 73.4365 56.5908 73.2549 56.8721C73.0732 57.1533 72.9326 57.4932 72.833 57.8916C72.7393 58.2842 72.6924 58.7266 72.6924 59.2188V59.5703C72.6924 59.9863 72.748 60.373 72.8594 60.7305C72.9766 61.082 73.1465 61.3896 73.3691 61.6533C73.5918 61.917 73.8613 62.125 74.1777 62.2773C74.4941 62.4238 74.8545 62.4971 75.2588 62.4971C75.7686 62.4971 76.2227 62.3945 76.6211 62.1895C77.0195 61.9844 77.3652 61.6943 77.6582 61.3193L78.7744 62.4004C78.5693 62.6992 78.3027 62.9863 77.9746 63.2617C77.6465 63.5312 77.2451 63.751 76.7705 63.9209C76.3018 64.0908 75.7568 64.1758 75.1357 64.1758ZM84.9531 54.4902V56.0371H79.5918V54.4902H84.9531ZM81.1387 52.1611H83.2568V61.3721C83.2568 61.665 83.2979 61.8906 83.3799 62.0488C83.4678 62.2012 83.5879 62.3037 83.7402 62.3564C83.8926 62.4092 84.0713 62.4355 84.2764 62.4355C84.4229 62.4355 84.5635 62.4268 84.6982 62.4092C84.833 62.3916 84.9414 62.374 85.0234 62.3564L85.0322 63.9736C84.8564 64.0264 84.6514 64.0732 84.417 64.1143C84.1885 64.1553 83.9248 64.1758 83.626 64.1758C83.1396 64.1758 82.709 64.0908 82.334 63.9209C81.959 63.7451 81.666 63.4609 81.4551 63.0684C81.2441 62.6758 81.1387 62.1543 81.1387 61.5039V52.1611ZM88.7148 56.3008V64H86.5967V54.4902H88.6182L88.7148 56.3008ZM91.624 54.4287L91.6064 56.3975C91.4775 56.374 91.3369 56.3564 91.1846 56.3447C91.0381 56.333 90.8916 56.3271 90.7451 56.3271C90.3818 56.3271 90.0625 56.3799 89.7871 56.4854C89.5117 56.585 89.2803 56.7314 89.0928 56.9248C88.9111 57.1123 88.7705 57.3408 88.6709 57.6104C88.5713 57.8799 88.5127 58.1816 88.4951 58.5156L88.0117 58.5508C88.0117 57.9531 88.0703 57.3994 88.1875 56.8896C88.3047 56.3799 88.4805 55.9316 88.7148 55.5449C88.9551 55.1582 89.2539 54.8564 89.6113 54.6396C89.9746 54.4229 90.3936 54.3145 90.8682 54.3145C90.9971 54.3145 91.1348 54.3262 91.2812 54.3496C91.4336 54.373 91.5479 54.3994 91.624 54.4287ZM95.2188 54.4902V64H93.0918V54.4902H95.2188ZM92.9512 51.9941C92.9512 51.6719 93.0566 51.4053 93.2676 51.1943C93.4844 50.9775 93.7832 50.8691 94.1641 50.8691C94.5391 50.8691 94.835 50.9775 95.0518 51.1943C95.2686 51.4053 95.377 51.6719 95.377 51.9941C95.377 52.3105 95.2686 52.5742 95.0518 52.7852C94.835 52.9961 94.5391 53.1016 94.1641 53.1016C93.7832 53.1016 93.4844 52.9961 93.2676 52.7852C93.0566 52.5742 92.9512 52.3105 92.9512 51.9941ZM102.9 62.0928V57.5576C102.9 57.2178 102.839 56.9248 102.716 56.6787C102.593 56.4326 102.405 56.2422 102.153 56.1074C101.907 55.9727 101.597 55.9053 101.222 55.9053C100.876 55.9053 100.577 55.9639 100.325 56.0811C100.073 56.1982 99.877 56.3564 99.7363 56.5557C99.5957 56.7549 99.5254 56.9805 99.5254 57.2324H97.416C97.416 56.8574 97.5068 56.4941 97.6885 56.1426C97.8701 55.791 98.1338 55.4775 98.4795 55.2021C98.8252 54.9268 99.2383 54.71 99.7188 54.5518C100.199 54.3936 100.738 54.3145 101.336 54.3145C102.051 54.3145 102.684 54.4346 103.234 54.6748C103.791 54.915 104.228 55.2783 104.544 55.7646C104.866 56.2451 105.027 56.8486 105.027 57.5752V61.8027C105.027 62.2363 105.057 62.626 105.115 62.9717C105.18 63.3115 105.271 63.6074 105.388 63.8594V64H103.217C103.117 63.7715 103.038 63.4814 102.979 63.1299C102.927 62.7725 102.9 62.4268 102.9 62.0928ZM103.208 58.2168L103.226 59.5264H101.705C101.312 59.5264 100.967 59.5645 100.668 59.6406C100.369 59.7109 100.12 59.8164 99.9209 59.957C99.7217 60.0977 99.5723 60.2676 99.4727 60.4668C99.373 60.666 99.3232 60.8916 99.3232 61.1436C99.3232 61.3955 99.3818 61.627 99.499 61.8379C99.6162 62.043 99.7861 62.2041 100.009 62.3213C100.237 62.4385 100.513 62.4971 100.835 62.4971C101.269 62.4971 101.646 62.4092 101.969 62.2334C102.297 62.0518 102.555 61.832 102.742 61.5742C102.93 61.3105 103.029 61.0615 103.041 60.8271L103.727 61.7676C103.656 62.0078 103.536 62.2656 103.366 62.541C103.196 62.8164 102.974 63.0801 102.698 63.332C102.429 63.5781 102.104 63.7803 101.723 63.9385C101.348 64.0967 100.914 64.1758 100.422 64.1758C99.8008 64.1758 99.2471 64.0527 98.7607 63.8066C98.2744 63.5547 97.8936 63.2178 97.6182 62.7959C97.3428 62.3682 97.2051 61.8848 97.2051 61.3457C97.2051 60.8418 97.2988 60.3965 97.4863 60.0098C97.6797 59.6172 97.9609 59.2891 98.3301 59.0254C98.7051 58.7617 99.1621 58.5625 99.7012 58.4277C100.24 58.2871 100.855 58.2168 101.547 58.2168H103.208Z" fill="#F0F0F0"/>
<path d="M45.25 97C45.2552 100.03 44.6646 103.032 43.5119 105.835C43.4559 105.973 43.3601 106.092 43.2365 106.175C43.1129 106.259 42.9673 106.303 42.8181 106.304C42.7217 106.303 42.6263 106.284 42.5369 106.248C42.4457 106.21 42.3627 106.155 42.2928 106.086C42.2229 106.016 42.1673 105.933 42.1294 105.842C42.0914 105.751 42.0717 105.654 42.0715 105.555C42.0713 105.457 42.0906 105.359 42.1281 105.268C43.2056 102.645 43.7567 99.8356 43.75 97C43.75 96.8011 43.829 96.6103 43.9697 96.4697C44.1103 96.329 44.3011 96.25 44.5 96.25C44.6989 96.25 44.8897 96.329 45.0303 96.4697C45.171 96.6103 45.25 96.8011 45.25 97ZM40 93.25C40.5275 93.2504 41.0489 93.3619 41.5305 93.5772C42.012 93.7925 42.4427 94.1068 42.7947 94.4997C42.8599 94.5749 42.9393 94.6363 43.0285 94.6805C43.1177 94.7247 43.2147 94.7506 43.314 94.7569C43.4133 94.7632 43.5128 94.7497 43.6069 94.7171C43.7009 94.6845 43.7875 94.6336 43.8616 94.5672C43.9357 94.5009 43.9959 94.4204 44.0387 94.3306C44.0814 94.2407 44.1058 94.1433 44.1105 94.0439C44.1153 93.9445 44.1001 93.8452 44.0661 93.7517C44.032 93.6582 43.9797 93.5725 43.9122 93.4994C43.2032 92.7072 42.2705 92.1489 41.2373 91.8983C40.2042 91.6478 39.1193 91.7168 38.1262 92.0962C37.1331 92.4756 36.2786 93.1476 35.6758 94.0232C35.0729 94.8989 34.7501 95.9369 34.75 97C34.7499 99.1596 34.2015 101.284 33.1562 103.173C33.1085 103.26 33.0782 103.354 33.067 103.452C33.0558 103.55 33.0641 103.649 33.0912 103.744C33.1184 103.839 33.164 103.927 33.2253 104.004C33.2866 104.081 33.3626 104.146 33.4487 104.193C33.5349 104.241 33.6297 104.272 33.7276 104.283C33.8255 104.294 33.9246 104.286 34.0193 104.258C34.114 104.231 34.2025 104.186 34.2796 104.124C34.3567 104.063 34.421 103.987 34.4687 103.901C35.6369 101.788 36.2498 99.414 36.25 97C36.25 96.0054 36.6451 95.0516 37.3483 94.3484C38.0516 93.6451 39.0054 93.25 40 93.25ZM40 87.25C38.8929 87.2487 37.7936 87.4364 36.7497 87.805C36.5655 87.8739 36.4157 88.0123 36.3326 88.1905C36.2495 88.3688 36.2397 88.5725 36.3054 88.7579C36.371 88.9432 36.5068 89.0954 36.6836 89.1816C36.8603 89.2678 37.0638 89.2812 37.2503 89.2188C38.4949 88.7799 39.8266 88.6459 41.1336 88.8278C42.4407 89.0098 43.6851 89.5026 44.7625 90.2647C45.8399 91.0268 46.7188 92.0362 47.3256 93.2081C47.9324 94.38 48.2494 95.6803 48.25 97C48.2509 98.9628 48.0327 100.92 47.5994 102.834C47.5553 103.028 47.5898 103.231 47.6952 103.399C47.8007 103.567 47.9685 103.687 48.1619 103.731C48.2166 103.744 48.2726 103.75 48.3287 103.75C48.4988 103.75 48.6638 103.692 48.7966 103.586C48.9295 103.48 49.0224 103.332 49.06 103.166C49.5181 101.143 49.7496 99.0746 49.75 97C49.7473 94.415 48.7192 91.9366 46.8913 90.1087C45.0634 88.2808 42.585 87.2527 40 87.25ZM34.5006 90.8519C34.5741 90.7862 34.6338 90.7067 34.6766 90.6179C34.7193 90.5291 34.7441 90.4328 34.7496 90.3344C34.755 90.2361 34.7411 90.1376 34.7085 90.0446C34.6759 89.9516 34.6254 89.8659 34.5597 89.7925C34.494 89.7191 34.4145 89.6593 34.3257 89.6166C34.2369 89.5739 34.1406 89.5491 34.0422 89.5436C33.9439 89.5381 33.8454 89.552 33.7524 89.5846C33.6594 89.6172 33.5737 89.6678 33.5003 89.7334C32.4786 90.6485 31.6611 91.7685 31.1011 93.0205C30.5411 94.2725 30.2511 95.6285 30.25 97C30.2521 98.1865 29.9962 99.3592 29.5 100.437C29.4589 100.526 29.4358 100.623 29.4321 100.722C29.4283 100.82 29.444 100.918 29.4782 101.011C29.5473 101.197 29.6877 101.349 29.8684 101.432C30.0492 101.515 30.2555 101.522 30.4421 101.453C30.6286 101.384 30.7801 101.244 30.8631 101.063C31.4499 99.7891 31.7525 98.4027 31.75 97C31.751 95.8395 31.9964 94.6922 32.4704 93.6329C32.9443 92.5736 33.6361 91.626 34.5006 90.8519ZM38.68 103.819C38.5905 103.778 38.4938 103.755 38.3953 103.751C38.2969 103.748 38.1987 103.763 38.1063 103.798C38.014 103.832 37.9293 103.884 37.857 103.951C37.7848 104.018 37.7264 104.098 37.6853 104.188C37.5053 104.582 37.3103 104.974 37.0956 105.354C37.0477 105.44 37.0172 105.535 37.0059 105.633C36.9947 105.731 37.0029 105.83 37.03 105.925C37.0572 106.02 37.1028 106.109 37.1643 106.186C37.2257 106.263 37.3018 106.327 37.3881 106.375C37.499 106.437 37.624 106.469 37.7509 106.469C37.8848 106.469 38.0163 106.433 38.1317 106.365C38.2471 106.297 38.3422 106.2 38.4072 106.083C38.6359 105.669 38.8516 105.239 39.0484 104.815C39.0897 104.725 39.1129 104.629 39.1167 104.53C39.1206 104.432 39.1049 104.333 39.0707 104.241C39.0365 104.148 38.9843 104.063 38.9173 103.991C38.8503 103.919 38.7696 103.86 38.68 103.819ZM40 96.25C39.8011 96.25 39.6103 96.329 39.4697 96.4697C39.329 96.6103 39.25 96.8011 39.25 97C39.2505 98.4546 39.0682 99.9034 38.7072 101.313C38.6576 101.505 38.6866 101.709 38.7877 101.881C38.8888 102.052 39.0537 102.176 39.2462 102.226C39.3075 102.241 39.3705 102.249 39.4337 102.249C39.5999 102.249 39.7614 102.194 39.8927 102.092C40.024 101.99 40.1178 101.847 40.1594 101.687C40.5524 100.155 40.7509 98.5802 40.75 96.9991C40.7497 96.8003 40.6706 96.6098 40.53 96.4693C40.3894 96.3289 40.1987 96.25 40 96.25Z" fill="#F0F0F0"/>
</g>
<defs>
<filter id="filter0_d_96_779" x="0" y="0" width="142" height="139" filterUnits="userSpaceOnUse" color-interpolation-filters="sRGB">
<feFlood flood-opacity="0" result="BackgroundImageFix"/>
<feColorMatrix in="SourceAlpha" type="matrix" values="0 0 0 0 0 0 0 0 0 0 0 0 0 0 0 0 0 0 127 0" result="hardAlpha"/>
<feOffset dy="2"/>
<feGaussianBlur stdDeviation="2"/>
<feComposite in2="hardAlpha" operator="out"/>
<feColorMatrix type="matrix" values="0 0 0 0 0 0 0 0 0 0 0 0 0 0 0 0 0 0 0.25 0"/>
<feBlend mode="normal" in2="BackgroundImageFix" result="effect1_dropShadow_96_779"/>
<feBlend mode="normal" in="SourceGraphic" in2="effect1_dropShadow_96_779" result="shape"/>
</filter>
</defs>
</svg>
