<svg width="21" height="20" viewBox="0 0 21 20" fill="none" xmlns="http://www.w3.org/2000/svg">
<path d="M16.25 10C16.2552 13.0305 15.6646 16.0324 14.5119 18.835C14.4559 18.9733 14.3601 19.0917 14.2365 19.1752C14.1129 19.2587 13.9673 19.3035 13.8181 19.3038C13.7217 19.3028 13.6263 19.2838 13.5369 19.2475C13.4457 19.2101 13.3627 19.155 13.2928 19.0855C13.2229 19.016 13.1673 18.9334 13.1294 18.8424C13.0914 18.7514 13.0717 18.6538 13.0715 18.5552C13.0713 18.4566 13.0906 18.359 13.1281 18.2678C14.2056 15.6449 14.7567 12.8356 14.75 10C14.75 9.8011 14.829 9.61033 14.9697 9.46968C15.1103 9.32903 15.3011 9.25001 15.5 9.25001C15.6989 9.25001 15.8897 9.32903 16.0303 9.46968C16.171 9.61033 16.25 9.8011 16.25 10ZM11 6.25001C11.5275 6.25038 12.0489 6.36185 12.5305 6.57717C13.012 6.79249 13.4427 7.10682 13.7947 7.49969C13.8599 7.57487 13.9393 7.63633 14.0285 7.6805C14.1177 7.72466 14.2147 7.75064 14.314 7.75692C14.4133 7.76321 14.5128 7.74968 14.6069 7.71711C14.7009 7.68455 14.7875 7.6336 14.8616 7.56724C14.9357 7.50088 14.9959 7.42044 15.0387 7.33059C15.0814 7.24074 15.1058 7.14329 15.1105 7.04391C15.1153 6.94452 15.1001 6.8452 15.0661 6.75171C15.032 6.65823 14.9797 6.57245 14.9122 6.49938C14.2032 5.70718 13.2705 5.14887 12.2373 4.89832C11.2042 4.64776 10.1193 4.71676 9.12622 5.09619C8.13314 5.47562 7.27864 6.1476 6.67578 7.02324C6.07291 7.89888 5.75008 8.9369 5.75 10C5.7499 12.1596 5.20152 14.2837 4.15625 16.1734C4.10848 16.2596 4.07815 16.3544 4.067 16.4523C4.05585 16.5502 4.06409 16.6493 4.09125 16.744C4.11841 16.8387 4.16396 16.9272 4.2253 17.0043C4.28664 17.0814 4.36257 17.1457 4.44875 17.1934C4.53493 17.2412 4.62967 17.2715 4.72757 17.2827C4.82547 17.2938 4.92461 17.2856 5.01933 17.2584C5.11404 17.2313 5.20248 17.1857 5.27959 17.1244C5.3567 17.0631 5.42098 16.9871 5.46875 16.9009C6.63691 14.7884 7.24979 12.414 7.25 10C7.25 9.00545 7.64509 8.05162 8.34835 7.34836C9.05161 6.6451 10.0054 6.25001 11 6.25001ZM11 0.250007C9.89287 0.248675 8.79364 0.436371 7.74969 0.805007C7.56549 0.873873 7.41572 1.01232 7.33261 1.19055C7.2495 1.36877 7.23972 1.5725 7.30536 1.75786C7.371 1.94323 7.50681 2.0954 7.68356 2.18161C7.8603 2.26781 8.06383 2.28115 8.25031 2.21876C9.4949 1.77991 10.8266 1.64586 12.1336 1.82785C13.4407 2.00983 14.6851 2.50256 15.7625 3.2647C16.8399 4.02684 17.7188 5.03618 18.3256 6.20809C18.9324 7.38 19.2494 8.68032 19.25 10C19.2509 11.9628 19.0327 13.9197 18.5994 15.8341C18.5553 16.0276 18.5898 16.2307 18.6952 16.3989C18.8007 16.5671 18.9685 16.6866 19.1619 16.7313C19.2166 16.7439 19.2726 16.7502 19.3287 16.75C19.4988 16.75 19.6638 16.6921 19.7966 16.586C19.9295 16.4799 20.0224 16.3318 20.06 16.1659C20.5181 14.1426 20.7496 12.0746 20.75 10C20.7473 7.41498 19.7192 4.93662 17.8913 3.10873C16.0634 1.28084 13.585 0.252737 11 0.250007ZM5.50062 3.85188C5.57406 3.7862 5.63384 3.7067 5.67655 3.61791C5.71927 3.52913 5.74407 3.4328 5.74956 3.33443C5.75504 3.23605 5.7411 3.13757 5.70852 3.04458C5.67594 2.9516 5.62537 2.86594 5.55969 2.79251C5.494 2.71907 5.4145 2.65929 5.32572 2.61658C5.23693 2.57386 5.1406 2.54906 5.04223 2.54357C4.94386 2.53809 4.84537 2.55203 4.75239 2.58461C4.6594 2.61719 4.57375 2.66776 4.50031 2.73344C3.4786 3.64847 2.66111 4.76847 2.10109 6.02049C1.54107 7.2725 1.25107 8.62845 1.25 10C1.2521 11.1865 0.996185 12.3592 0.499998 13.4369C0.458878 13.5264 0.43579 13.6231 0.432051 13.7215C0.428313 13.82 0.443998 13.9182 0.47821 14.0105C0.547306 14.1971 0.687674 14.3485 0.868436 14.4316C1.0492 14.5146 1.25555 14.5225 1.44209 14.4534C1.62863 14.3843 1.78008 14.2439 1.86312 14.0631C2.44987 12.7891 2.75249 11.4027 2.75 10C2.75099 8.83951 2.99645 7.69224 3.47037 6.63293C3.9443 5.57362 4.63607 4.62603 5.50062 3.85188ZM9.68 16.8194C9.5905 16.7783 9.49377 16.7552 9.39534 16.7514C9.29691 16.7477 9.19871 16.7634 9.10634 16.7976C9.01397 16.8318 8.92925 16.8839 8.85701 16.9508C8.78477 17.0178 8.72643 17.0983 8.68531 17.1878C8.50531 17.5816 8.31031 17.9744 8.09562 18.3541C8.04767 18.4403 8.01719 18.5351 8.00594 18.6331C7.99468 18.7311 8.00288 18.8304 8.03005 18.9252C8.05722 19.0201 8.10283 19.1086 8.16428 19.1858C8.22572 19.263 8.30179 19.3273 8.38812 19.375C8.49899 19.4369 8.62395 19.4692 8.75094 19.4688C8.88484 19.4688 9.01632 19.433 9.13173 19.3651C9.24713 19.2972 9.34224 19.1996 9.40719 19.0825C9.63594 18.6691 9.85156 18.2388 10.0484 17.815C10.0897 17.7255 10.1129 17.6286 10.1167 17.5301C10.1206 17.4316 10.1049 17.3333 10.0707 17.2408C10.0365 17.1483 9.98434 17.0635 9.9173 16.9912C9.85026 16.9189 9.76962 16.8605 9.68 16.8194ZM11 9.25001C10.8011 9.25001 10.6103 9.32903 10.4697 9.46968C10.329 9.61033 10.25 9.8011 10.25 10C10.2505 11.4546 10.0682 12.9034 9.70719 14.3125C9.65764 14.5051 9.68659 14.7094 9.78768 14.8807C9.88876 15.0519 10.0537 15.176 10.2462 15.2256C10.3075 15.2412 10.3705 15.2491 10.4337 15.2491C10.5999 15.2489 10.7614 15.1936 10.8927 15.0918C11.024 14.99 11.1178 14.8475 11.1594 14.6866C11.5524 13.1551 11.7509 11.5802 11.75 9.99907C11.7497 9.80032 11.6706 9.60979 11.53 9.46935C11.3894 9.3289 11.1987 9.25001 11 9.25001Z" fill="#F0F0F0"/>
</svg>
