<svg width="259" height="173" viewBox="0 0 259 173" fill="none" xmlns="http://www.w3.org/2000/svg">
<path d="M129.5 14.0625C117.448 14.0625 105.666 17.6364 95.6449 24.3323C85.6238 31.0282 77.8133 40.5454 73.2011 51.6802C68.5889 62.8151 67.3821 75.0676 69.7334 86.8883C72.0847 98.709 77.8884 109.567 86.4107 118.089C94.9329 126.612 105.791 132.415 117.612 134.767C129.432 137.118 141.685 135.911 152.82 131.299C163.955 126.687 173.472 118.876 180.168 108.855C186.864 98.8339 190.438 87.0523 190.438 75C190.42 58.8436 183.995 43.3538 172.57 31.9295C161.146 20.5052 145.656 14.0796 129.5 14.0625ZM129.5 126.562C119.302 126.562 109.333 123.538 100.853 117.873C92.374 112.207 85.7651 104.154 81.8625 94.7321C77.9598 85.3103 76.9387 74.9428 78.9283 64.9407C80.9178 54.9385 85.8287 45.751 93.0398 38.5398C100.251 31.3287 109.439 26.4178 119.441 24.4283C129.443 22.4387 139.81 23.4598 149.232 27.3625C158.654 31.2651 166.707 37.874 172.373 46.3534C178.038 54.8328 181.063 64.8019 181.063 75C181.047 88.6705 175.61 101.777 165.943 111.443C156.277 121.11 143.17 126.547 129.5 126.562ZM101.375 63.2812C101.375 61.8906 101.787 60.5312 102.56 59.3749C103.333 58.2186 104.431 57.3174 105.716 56.7852C107 56.253 108.414 56.1138 109.778 56.3851C111.142 56.6564 112.395 57.3261 113.378 58.3094C114.361 59.2927 115.031 60.5456 115.302 61.9095C115.574 63.2734 115.434 64.6872 114.902 65.972C114.37 67.2568 113.469 68.3549 112.313 69.1275C111.156 69.9001 109.797 70.3125 108.406 70.3125C106.541 70.3125 104.753 69.5717 103.434 68.2531C102.116 66.9345 101.375 65.1461 101.375 63.2812ZM157.625 63.2812C157.625 64.6719 157.213 66.0313 156.44 67.1876C155.667 68.3439 154.569 69.2451 153.284 69.7773C152 70.3095 150.586 70.4487 149.222 70.1774C147.858 69.9061 146.605 69.2364 145.622 68.2531C144.639 67.2698 143.969 66.0169 143.698 64.653C143.426 63.2891 143.566 61.8753 144.098 60.5905C144.63 59.3057 145.531 58.2076 146.687 57.435C147.844 56.6624 149.203 56.25 150.594 56.25C152.459 56.25 154.247 56.9908 155.566 58.3094C156.884 59.628 157.625 61.4164 157.625 63.2812ZM156.992 100.781C157.331 101.315 157.559 101.911 157.662 102.535C157.764 103.159 157.74 103.797 157.589 104.411C157.439 105.025 157.166 105.603 156.786 106.108C156.407 106.614 155.93 107.038 155.382 107.354C154.835 107.671 154.229 107.873 153.602 107.949C152.974 108.026 152.337 107.974 151.73 107.798C151.123 107.622 150.558 107.325 150.069 106.924C149.579 106.524 149.176 106.029 148.883 105.469C144.506 97.9043 137.627 93.75 129.5 93.75C121.373 93.75 114.494 97.9102 110.117 105.469C109.824 106.029 109.421 106.524 108.931 106.924C108.442 107.325 107.877 107.622 107.27 107.798C106.663 107.974 106.026 108.026 105.398 107.949C104.771 107.873 104.165 107.671 103.618 107.354C103.07 107.038 102.593 106.614 102.214 106.108C101.834 105.603 101.561 105.025 101.411 104.411C101.26 103.797 101.236 103.159 101.338 102.535C101.441 101.911 101.669 101.315 102.008 100.781C108.037 90.3574 118.057 84.375 129.5 84.375C140.943 84.375 150.963 90.3516 156.992 100.781Z" fill="#D3D3D3"/>
<path d="M10.0703 157.625V169H8.55469L2.82812 160.227V169H1.32031V157.625H2.82812L8.57812 166.422V157.625H10.0703ZM12.1406 164.867V164.688C12.1406 164.078 12.2292 163.513 12.4062 162.992C12.5833 162.466 12.8385 162.01 13.1719 161.625C13.5052 161.234 13.9089 160.932 14.3828 160.719C14.8568 160.5 15.388 160.391 15.9766 160.391C16.5703 160.391 17.1042 160.5 17.5781 160.719C18.0573 160.932 18.4635 161.234 18.7969 161.625C19.1354 162.01 19.3932 162.466 19.5703 162.992C19.7474 163.513 19.8359 164.078 19.8359 164.688V164.867C19.8359 165.477 19.7474 166.042 19.5703 166.562C19.3932 167.083 19.1354 167.539 18.7969 167.93C18.4635 168.315 18.0599 168.617 17.5859 168.836C17.1172 169.049 16.5859 169.156 15.9922 169.156C15.3984 169.156 14.8646 169.049 14.3906 168.836C13.9167 168.617 13.5104 168.315 13.1719 167.93C12.8385 167.539 12.5833 167.083 12.4062 166.562C12.2292 166.042 12.1406 165.477 12.1406 164.867ZM13.5859 164.688V164.867C13.5859 165.289 13.6354 165.688 13.7344 166.062C13.8333 166.432 13.9818 166.76 14.1797 167.047C14.3828 167.333 14.6354 167.56 14.9375 167.727C15.2396 167.888 15.5911 167.969 15.9922 167.969C16.388 167.969 16.7344 167.888 17.0312 167.727C17.3333 167.56 17.5833 167.333 17.7812 167.047C17.9792 166.76 18.1276 166.432 18.2266 166.062C18.3307 165.688 18.3828 165.289 18.3828 164.867V164.688C18.3828 164.271 18.3307 163.878 18.2266 163.508C18.1276 163.133 17.9766 162.802 17.7734 162.516C17.5755 162.224 17.3255 161.995 17.0234 161.828C16.7266 161.661 16.3776 161.578 15.9766 161.578C15.5807 161.578 15.2318 161.661 14.9297 161.828C14.6328 161.995 14.3828 162.224 14.1797 162.516C13.9818 162.802 13.8333 163.133 13.7344 163.508C13.6354 163.878 13.5859 164.271 13.5859 164.688ZM27.0547 162.227V169H25.6016V160.547H26.9766L27.0547 162.227ZM26.7578 164.453L26.0859 164.43C26.0911 163.852 26.1667 163.318 26.3125 162.828C26.4583 162.333 26.6745 161.904 26.9609 161.539C27.2474 161.174 27.6042 160.893 28.0312 160.695C28.4583 160.492 28.9531 160.391 29.5156 160.391C29.9115 160.391 30.276 160.448 30.6094 160.562C30.9427 160.672 31.2318 160.846 31.4766 161.086C31.7214 161.326 31.9115 161.633 32.0469 162.008C32.1823 162.383 32.25 162.836 32.25 163.367V169H30.8047V163.438C30.8047 162.995 30.7292 162.641 30.5781 162.375C30.4323 162.109 30.224 161.917 29.9531 161.797C29.6823 161.672 29.3646 161.609 29 161.609C28.5729 161.609 28.2161 161.685 27.9297 161.836C27.6432 161.987 27.4141 162.195 27.2422 162.461C27.0703 162.727 26.9453 163.031 26.8672 163.375C26.7943 163.714 26.7578 164.073 26.7578 164.453ZM32.2344 163.656L31.2656 163.953C31.2708 163.49 31.3464 163.044 31.4922 162.617C31.6432 162.19 31.8594 161.81 32.1406 161.477C32.4271 161.143 32.7786 160.88 33.1953 160.688C33.612 160.49 34.0885 160.391 34.625 160.391C35.0781 160.391 35.4792 160.451 35.8281 160.57C36.1823 160.69 36.4792 160.875 36.7188 161.125C36.9635 161.37 37.1484 161.685 37.2734 162.07C37.3984 162.456 37.4609 162.914 37.4609 163.445V169H36.0078V163.43C36.0078 162.956 35.9323 162.589 35.7812 162.328C35.6354 162.062 35.4271 161.878 35.1562 161.773C34.8906 161.664 34.5729 161.609 34.2031 161.609C33.8854 161.609 33.6042 161.664 33.3594 161.773C33.1146 161.883 32.9089 162.034 32.7422 162.227C32.5755 162.414 32.4479 162.63 32.3594 162.875C32.276 163.12 32.2344 163.38 32.2344 163.656ZM39.2656 164.867V164.688C39.2656 164.078 39.3542 163.513 39.5312 162.992C39.7083 162.466 39.9635 162.01 40.2969 161.625C40.6302 161.234 41.0339 160.932 41.5078 160.719C41.9818 160.5 42.513 160.391 43.1016 160.391C43.6953 160.391 44.2292 160.5 44.7031 160.719C45.1823 160.932 45.5885 161.234 45.9219 161.625C46.2604 162.01 46.5182 162.466 46.6953 162.992C46.8724 163.513 46.9609 164.078 46.9609 164.688V164.867C46.9609 165.477 46.8724 166.042 46.6953 166.562C46.5182 167.083 46.2604 167.539 45.9219 167.93C45.5885 168.315 45.1849 168.617 44.7109 168.836C44.2422 169.049 43.7109 169.156 43.1172 169.156C42.5234 169.156 41.9896 169.049 41.5156 168.836C41.0417 168.617 40.6354 168.315 40.2969 167.93C39.9635 167.539 39.7083 167.083 39.5312 166.562C39.3542 166.042 39.2656 165.477 39.2656 164.867ZM40.7109 164.688V164.867C40.7109 165.289 40.7604 165.688 40.8594 166.062C40.9583 166.432 41.1068 166.76 41.3047 167.047C41.5078 167.333 41.7604 167.56 42.0625 167.727C42.3646 167.888 42.7161 167.969 43.1172 167.969C43.513 167.969 43.8594 167.888 44.1562 167.727C44.4583 167.56 44.7083 167.333 44.9062 167.047C45.1042 166.76 45.2526 166.432 45.3516 166.062C45.4557 165.688 45.5078 165.289 45.5078 164.867V164.688C45.5078 164.271 45.4557 163.878 45.3516 163.508C45.2526 163.133 45.1016 162.802 44.8984 162.516C44.7005 162.224 44.4505 161.995 44.1484 161.828C43.8516 161.661 43.5026 161.578 43.1016 161.578C42.7057 161.578 42.3568 161.661 42.0547 161.828C41.7578 161.995 41.5078 162.224 41.3047 162.516C41.1068 162.802 40.9583 163.133 40.8594 163.508C40.7604 163.878 40.7109 164.271 40.7109 164.688ZM50.2109 162.227V169H48.7578V160.547H50.1328L50.2109 162.227ZM49.9141 164.453L49.2422 164.43C49.2474 163.852 49.3229 163.318 49.4688 162.828C49.6146 162.333 49.8307 161.904 50.1172 161.539C50.4036 161.174 50.7604 160.893 51.1875 160.695C51.6146 160.492 52.1094 160.391 52.6719 160.391C53.0677 160.391 53.4323 160.448 53.7656 160.562C54.099 160.672 54.388 160.846 54.6328 161.086C54.8776 161.326 55.0677 161.633 55.2031 162.008C55.3385 162.383 55.4062 162.836 55.4062 163.367V169H53.9609V163.438C53.9609 162.995 53.8854 162.641 53.7344 162.375C53.5885 162.109 53.3802 161.917 53.1094 161.797C52.8385 161.672 52.5208 161.609 52.1562 161.609C51.7292 161.609 51.3724 161.685 51.0859 161.836C50.7995 161.987 50.5703 162.195 50.3984 162.461C50.2266 162.727 50.1016 163.031 50.0234 163.375C49.9505 163.714 49.9141 164.073 49.9141 164.453ZM55.3906 163.656L54.4219 163.953C54.4271 163.49 54.5026 163.044 54.6484 162.617C54.7995 162.19 55.0156 161.81 55.2969 161.477C55.5833 161.143 55.9349 160.88 56.3516 160.688C56.7682 160.49 57.2448 160.391 57.7812 160.391C58.2344 160.391 58.6354 160.451 58.9844 160.57C59.3385 160.69 59.6354 160.875 59.875 161.125C60.1198 161.37 60.3047 161.685 60.4297 162.07C60.5547 162.456 60.6172 162.914 60.6172 163.445V169H59.1641V163.43C59.1641 162.956 59.0885 162.589 58.9375 162.328C58.7917 162.062 58.5833 161.878 58.3125 161.773C58.0469 161.664 57.7292 161.609 57.3594 161.609C57.0417 161.609 56.7604 161.664 56.5156 161.773C56.2708 161.883 56.0651 162.034 55.8984 162.227C55.7318 162.414 55.6042 162.63 55.5156 162.875C55.4323 163.12 55.3906 163.38 55.3906 163.656ZM66.3125 169.156C65.724 169.156 65.1901 169.057 64.7109 168.859C64.237 168.656 63.8281 168.372 63.4844 168.008C63.1458 167.643 62.8854 167.211 62.7031 166.711C62.5208 166.211 62.4297 165.664 62.4297 165.07V164.742C62.4297 164.055 62.5312 163.443 62.7344 162.906C62.9375 162.365 63.2135 161.906 63.5625 161.531C63.9115 161.156 64.3073 160.872 64.75 160.68C65.1927 160.487 65.651 160.391 66.125 160.391C66.7292 160.391 67.25 160.495 67.6875 160.703C68.1302 160.911 68.4922 161.203 68.7734 161.578C69.0547 161.948 69.263 162.385 69.3984 162.891C69.5339 163.391 69.6016 163.938 69.6016 164.531V165.18H63.2891V164H68.1562V163.891C68.1354 163.516 68.0573 163.151 67.9219 162.797C67.7917 162.443 67.5833 162.151 67.2969 161.922C67.0104 161.693 66.6198 161.578 66.125 161.578C65.7969 161.578 65.4948 161.648 65.2188 161.789C64.9427 161.924 64.7057 162.128 64.5078 162.398C64.3099 162.669 64.1562 163 64.0469 163.391C63.9375 163.781 63.8828 164.232 63.8828 164.742V165.07C63.8828 165.471 63.9375 165.849 64.0469 166.203C64.1615 166.552 64.3255 166.859 64.5391 167.125C64.7578 167.391 65.0208 167.599 65.3281 167.75C65.6406 167.901 65.9948 167.977 66.3906 167.977C66.901 167.977 67.3333 167.872 67.6875 167.664C68.0417 167.456 68.3516 167.177 68.6172 166.828L69.4922 167.523C69.3099 167.799 69.0781 168.062 68.7969 168.312C68.5156 168.562 68.1693 168.766 67.7578 168.922C67.3516 169.078 66.8698 169.156 66.3125 169.156ZM72.7344 162.352V169H71.2891V160.547H72.6562L72.7344 162.352ZM72.3906 164.453L71.7891 164.43C71.7943 163.852 71.8802 163.318 72.0469 162.828C72.2135 162.333 72.4479 161.904 72.75 161.539C73.0521 161.174 73.4115 160.893 73.8281 160.695C74.25 160.492 74.7161 160.391 75.2266 160.391C75.6432 160.391 76.0182 160.448 76.3516 160.562C76.6849 160.672 76.9688 160.849 77.2031 161.094C77.4427 161.339 77.625 161.656 77.75 162.047C77.875 162.432 77.9375 162.904 77.9375 163.461V169H76.4844V163.445C76.4844 163.003 76.4193 162.648 76.2891 162.383C76.1589 162.112 75.9688 161.917 75.7188 161.797C75.4688 161.672 75.1615 161.609 74.7969 161.609C74.4375 161.609 74.1094 161.685 73.8125 161.836C73.5208 161.987 73.2682 162.195 73.0547 162.461C72.8464 162.727 72.6823 163.031 72.5625 163.375C72.4479 163.714 72.3906 164.073 72.3906 164.453ZM83.6719 160.547V161.656H79.1016V160.547H83.6719ZM80.6484 158.492H82.0938V166.906C82.0938 167.193 82.138 167.409 82.2266 167.555C82.3151 167.701 82.4297 167.797 82.5703 167.844C82.7109 167.891 82.862 167.914 83.0234 167.914C83.1432 167.914 83.2682 167.904 83.3984 167.883C83.5339 167.857 83.6354 167.836 83.7031 167.82L83.7109 169C83.5964 169.036 83.4453 169.07 83.2578 169.102C83.0755 169.138 82.8542 169.156 82.5938 169.156C82.2396 169.156 81.9141 169.086 81.6172 168.945C81.3203 168.805 81.0833 168.57 80.9062 168.242C80.7344 167.909 80.6484 167.461 80.6484 166.898V158.492ZM84.8281 164.867V164.688C84.8281 164.078 84.9167 163.513 85.0938 162.992C85.2708 162.466 85.526 162.01 85.8594 161.625C86.1927 161.234 86.5964 160.932 87.0703 160.719C87.5443 160.5 88.0755 160.391 88.6641 160.391C89.2578 160.391 89.7917 160.5 90.2656 160.719C90.7448 160.932 91.151 161.234 91.4844 161.625C91.8229 162.01 92.0807 162.466 92.2578 162.992C92.4349 163.513 92.5234 164.078 92.5234 164.688V164.867C92.5234 165.477 92.4349 166.042 92.2578 166.562C92.0807 167.083 91.8229 167.539 91.4844 167.93C91.151 168.315 90.7474 168.617 90.2734 168.836C89.8047 169.049 89.2734 169.156 88.6797 169.156C88.0859 169.156 87.5521 169.049 87.0781 168.836C86.6042 168.617 86.1979 168.315 85.8594 167.93C85.526 167.539 85.2708 167.083 85.0938 166.562C84.9167 166.042 84.8281 165.477 84.8281 164.867ZM86.2734 164.688V164.867C86.2734 165.289 86.3229 165.688 86.4219 166.062C86.5208 166.432 86.6693 166.76 86.8672 167.047C87.0703 167.333 87.3229 167.56 87.625 167.727C87.9271 167.888 88.2786 167.969 88.6797 167.969C89.0755 167.969 89.4219 167.888 89.7188 167.727C90.0208 167.56 90.2708 167.333 90.4688 167.047C90.6667 166.76 90.8151 166.432 90.9141 166.062C91.0182 165.688 91.0703 165.289 91.0703 164.867V164.688C91.0703 164.271 91.0182 163.878 90.9141 163.508C90.8151 163.133 90.6641 162.802 90.4609 162.516C90.263 162.224 90.013 161.995 89.7109 161.828C89.4141 161.661 89.0651 161.578 88.6641 161.578C88.2682 161.578 87.9193 161.661 87.6172 161.828C87.3203 161.995 87.0703 162.224 86.8672 162.516C86.6693 162.802 86.5208 163.133 86.4219 163.508C86.3229 163.878 86.2734 164.271 86.2734 164.688ZM100.875 167.695L103.188 160.547H104.664L101.625 169H100.656L100.875 167.695ZM98.9453 160.547L101.328 167.734L101.492 169H100.523L97.4609 160.547H98.9453ZM105.547 164.867V164.688C105.547 164.078 105.635 163.513 105.812 162.992C105.99 162.466 106.245 162.01 106.578 161.625C106.911 161.234 107.315 160.932 107.789 160.719C108.263 160.5 108.794 160.391 109.383 160.391C109.977 160.391 110.51 160.5 110.984 160.719C111.464 160.932 111.87 161.234 112.203 161.625C112.542 162.01 112.799 162.466 112.977 162.992C113.154 163.513 113.242 164.078 113.242 164.688V164.867C113.242 165.477 113.154 166.042 112.977 166.562C112.799 167.083 112.542 167.539 112.203 167.93C111.87 168.315 111.466 168.617 110.992 168.836C110.523 169.049 109.992 169.156 109.398 169.156C108.805 169.156 108.271 169.049 107.797 168.836C107.323 168.617 106.917 168.315 106.578 167.93C106.245 167.539 105.99 167.083 105.812 166.562C105.635 166.042 105.547 165.477 105.547 164.867ZM106.992 164.688V164.867C106.992 165.289 107.042 165.688 107.141 166.062C107.24 166.432 107.388 166.76 107.586 167.047C107.789 167.333 108.042 167.56 108.344 167.727C108.646 167.888 108.997 167.969 109.398 167.969C109.794 167.969 110.141 167.888 110.438 167.727C110.74 167.56 110.99 167.333 111.188 167.047C111.385 166.76 111.534 166.432 111.633 166.062C111.737 165.688 111.789 165.289 111.789 164.867V164.688C111.789 164.271 111.737 163.878 111.633 163.508C111.534 163.133 111.383 162.802 111.18 162.516C110.982 162.224 110.732 161.995 110.43 161.828C110.133 161.661 109.784 161.578 109.383 161.578C108.987 161.578 108.638 161.661 108.336 161.828C108.039 161.995 107.789 162.224 107.586 162.516C107.388 162.802 107.24 163.133 107.141 163.508C107.042 163.878 106.992 164.271 106.992 164.688ZM118.438 167.969C118.781 167.969 119.099 167.898 119.391 167.758C119.682 167.617 119.922 167.424 120.109 167.18C120.297 166.93 120.404 166.646 120.43 166.328H121.805C121.779 166.828 121.609 167.294 121.297 167.727C120.99 168.154 120.586 168.5 120.086 168.766C119.586 169.026 119.036 169.156 118.438 169.156C117.802 169.156 117.247 169.044 116.773 168.82C116.305 168.596 115.914 168.289 115.602 167.898C115.294 167.508 115.062 167.06 114.906 166.555C114.755 166.044 114.68 165.505 114.68 164.938V164.609C114.68 164.042 114.755 163.505 114.906 163C115.062 162.49 115.294 162.039 115.602 161.648C115.914 161.258 116.305 160.951 116.773 160.727C117.247 160.503 117.802 160.391 118.438 160.391C119.099 160.391 119.677 160.526 120.172 160.797C120.667 161.062 121.055 161.427 121.336 161.891C121.622 162.349 121.779 162.87 121.805 163.453H120.43C120.404 163.104 120.305 162.789 120.133 162.508C119.966 162.227 119.737 162.003 119.445 161.836C119.159 161.664 118.823 161.578 118.438 161.578C117.995 161.578 117.622 161.667 117.32 161.844C117.023 162.016 116.786 162.25 116.609 162.547C116.438 162.839 116.312 163.164 116.234 163.523C116.161 163.878 116.125 164.24 116.125 164.609V164.938C116.125 165.307 116.161 165.672 116.234 166.031C116.307 166.391 116.43 166.716 116.602 167.008C116.779 167.299 117.016 167.534 117.312 167.711C117.615 167.883 117.99 167.969 118.438 167.969ZM126.938 169.156C126.349 169.156 125.815 169.057 125.336 168.859C124.862 168.656 124.453 168.372 124.109 168.008C123.771 167.643 123.51 167.211 123.328 166.711C123.146 166.211 123.055 165.664 123.055 165.07V164.742C123.055 164.055 123.156 163.443 123.359 162.906C123.562 162.365 123.839 161.906 124.188 161.531C124.536 161.156 124.932 160.872 125.375 160.68C125.818 160.487 126.276 160.391 126.75 160.391C127.354 160.391 127.875 160.495 128.312 160.703C128.755 160.911 129.117 161.203 129.398 161.578C129.68 161.948 129.888 162.385 130.023 162.891C130.159 163.391 130.227 163.938 130.227 164.531V165.18H123.914V164H128.781V163.891C128.76 163.516 128.682 163.151 128.547 162.797C128.417 162.443 128.208 162.151 127.922 161.922C127.635 161.693 127.245 161.578 126.75 161.578C126.422 161.578 126.12 161.648 125.844 161.789C125.568 161.924 125.331 162.128 125.133 162.398C124.935 162.669 124.781 163 124.672 163.391C124.562 163.781 124.508 164.232 124.508 164.742V165.07C124.508 165.471 124.562 165.849 124.672 166.203C124.786 166.552 124.951 166.859 125.164 167.125C125.383 167.391 125.646 167.599 125.953 167.75C126.266 167.901 126.62 167.977 127.016 167.977C127.526 167.977 127.958 167.872 128.312 167.664C128.667 167.456 128.977 167.177 129.242 166.828L130.117 167.523C129.935 167.799 129.703 168.062 129.422 168.312C129.141 168.562 128.794 168.766 128.383 168.922C127.977 169.078 127.495 169.156 126.938 169.156ZM127.18 157L129.117 159.133V159.211H127.914L126.742 157.891L125.578 159.211H124.391V159.125L126.305 157H127.18ZM137.328 162.352V169H135.883V160.547H137.25L137.328 162.352ZM136.984 164.453L136.383 164.43C136.388 163.852 136.474 163.318 136.641 162.828C136.807 162.333 137.042 161.904 137.344 161.539C137.646 161.174 138.005 160.893 138.422 160.695C138.844 160.492 139.31 160.391 139.82 160.391C140.237 160.391 140.612 160.448 140.945 160.562C141.279 160.672 141.562 160.849 141.797 161.094C142.036 161.339 142.219 161.656 142.344 162.047C142.469 162.432 142.531 162.904 142.531 163.461V169H141.078V163.445C141.078 163.003 141.013 162.648 140.883 162.383C140.753 162.112 140.562 161.917 140.312 161.797C140.062 161.672 139.755 161.609 139.391 161.609C139.031 161.609 138.703 161.685 138.406 161.836C138.115 161.987 137.862 162.195 137.648 162.461C137.44 162.727 137.276 163.031 137.156 163.375C137.042 163.714 136.984 164.073 136.984 164.453ZM149.711 167.555V163.203C149.711 162.87 149.643 162.581 149.508 162.336C149.378 162.086 149.18 161.893 148.914 161.758C148.648 161.622 148.32 161.555 147.93 161.555C147.565 161.555 147.245 161.617 146.969 161.742C146.698 161.867 146.484 162.031 146.328 162.234C146.177 162.438 146.102 162.656 146.102 162.891H144.656C144.656 162.589 144.734 162.289 144.891 161.992C145.047 161.695 145.271 161.427 145.562 161.188C145.859 160.943 146.214 160.75 146.625 160.609C147.042 160.464 147.505 160.391 148.016 160.391C148.63 160.391 149.172 160.495 149.641 160.703C150.115 160.911 150.484 161.227 150.75 161.648C151.021 162.065 151.156 162.589 151.156 163.219V167.156C151.156 167.438 151.18 167.737 151.227 168.055C151.279 168.372 151.354 168.646 151.453 168.875V169H149.945C149.872 168.833 149.815 168.612 149.773 168.336C149.732 168.055 149.711 167.794 149.711 167.555ZM149.961 163.875L149.977 164.891H148.516C148.104 164.891 147.737 164.924 147.414 164.992C147.091 165.055 146.82 165.151 146.602 165.281C146.383 165.411 146.216 165.576 146.102 165.773C145.987 165.966 145.93 166.193 145.93 166.453C145.93 166.719 145.99 166.961 146.109 167.18C146.229 167.398 146.409 167.573 146.648 167.703C146.893 167.828 147.193 167.891 147.547 167.891C147.99 167.891 148.38 167.797 148.719 167.609C149.057 167.422 149.326 167.193 149.523 166.922C149.727 166.651 149.836 166.388 149.852 166.133L150.469 166.828C150.432 167.047 150.333 167.289 150.172 167.555C150.01 167.82 149.794 168.076 149.523 168.32C149.258 168.56 148.94 168.76 148.57 168.922C148.206 169.078 147.794 169.156 147.336 169.156C146.763 169.156 146.26 169.044 145.828 168.82C145.401 168.596 145.068 168.297 144.828 167.922C144.594 167.542 144.477 167.117 144.477 166.648C144.477 166.195 144.565 165.797 144.742 165.453C144.919 165.104 145.174 164.815 145.508 164.586C145.841 164.352 146.242 164.174 146.711 164.055C147.18 163.935 147.703 163.875 148.281 163.875H149.961ZM149.969 157.156L150.945 157.242C150.945 157.622 150.87 157.956 150.719 158.242C150.568 158.529 150.365 158.75 150.109 158.906C149.859 159.062 149.576 159.141 149.258 159.141C148.992 159.141 148.773 159.104 148.602 159.031C148.43 158.953 148.276 158.867 148.141 158.773C148.005 158.674 147.862 158.589 147.711 158.516C147.565 158.438 147.383 158.398 147.164 158.398C146.945 158.398 146.76 158.482 146.609 158.648C146.464 158.815 146.391 159.021 146.391 159.266L145.414 159.219C145.414 158.839 145.487 158.505 145.633 158.219C145.784 157.927 145.987 157.701 146.242 157.539C146.497 157.372 146.781 157.289 147.094 157.289C147.318 157.289 147.513 157.328 147.68 157.406C147.852 157.479 148.013 157.565 148.164 157.664C148.315 157.758 148.471 157.844 148.633 157.922C148.794 157.995 148.979 158.031 149.188 158.031C149.406 158.031 149.591 157.948 149.742 157.781C149.893 157.609 149.969 157.401 149.969 157.156ZM153.047 164.867V164.688C153.047 164.078 153.135 163.513 153.312 162.992C153.49 162.466 153.745 162.01 154.078 161.625C154.411 161.234 154.815 160.932 155.289 160.719C155.763 160.5 156.294 160.391 156.883 160.391C157.477 160.391 158.01 160.5 158.484 160.719C158.964 160.932 159.37 161.234 159.703 161.625C160.042 162.01 160.299 162.466 160.477 162.992C160.654 163.513 160.742 164.078 160.742 164.688V164.867C160.742 165.477 160.654 166.042 160.477 166.562C160.299 167.083 160.042 167.539 159.703 167.93C159.37 168.315 158.966 168.617 158.492 168.836C158.023 169.049 157.492 169.156 156.898 169.156C156.305 169.156 155.771 169.049 155.297 168.836C154.823 168.617 154.417 168.315 154.078 167.93C153.745 167.539 153.49 167.083 153.312 166.562C153.135 166.042 153.047 165.477 153.047 164.867ZM154.492 164.688V164.867C154.492 165.289 154.542 165.688 154.641 166.062C154.74 166.432 154.888 166.76 155.086 167.047C155.289 167.333 155.542 167.56 155.844 167.727C156.146 167.888 156.497 167.969 156.898 167.969C157.294 167.969 157.641 167.888 157.938 167.727C158.24 167.56 158.49 167.333 158.688 167.047C158.885 166.76 159.034 166.432 159.133 166.062C159.237 165.688 159.289 165.289 159.289 164.867V164.688C159.289 164.271 159.237 163.878 159.133 163.508C159.034 163.133 158.883 162.802 158.68 162.516C158.482 162.224 158.232 161.995 157.93 161.828C157.633 161.661 157.284 161.578 156.883 161.578C156.487 161.578 156.138 161.661 155.836 161.828C155.539 161.995 155.289 162.224 155.086 162.516C154.888 162.802 154.74 163.133 154.641 163.508C154.542 163.878 154.492 164.271 154.492 164.688ZM167.969 162.172V172.25H166.516V160.547H167.844L167.969 162.172ZM173.664 164.703V164.867C173.664 165.482 173.591 166.052 173.445 166.578C173.299 167.099 173.086 167.552 172.805 167.938C172.529 168.323 172.188 168.622 171.781 168.836C171.375 169.049 170.909 169.156 170.383 169.156C169.846 169.156 169.372 169.068 168.961 168.891C168.549 168.714 168.201 168.456 167.914 168.117C167.628 167.779 167.398 167.372 167.227 166.898C167.06 166.424 166.945 165.891 166.883 165.297V164.422C166.945 163.797 167.062 163.237 167.234 162.742C167.406 162.247 167.633 161.826 167.914 161.477C168.201 161.122 168.547 160.854 168.953 160.672C169.359 160.484 169.828 160.391 170.359 160.391C170.891 160.391 171.362 160.495 171.773 160.703C172.185 160.906 172.531 161.198 172.812 161.578C173.094 161.958 173.305 162.414 173.445 162.945C173.591 163.471 173.664 164.057 173.664 164.703ZM172.211 164.867V164.703C172.211 164.281 172.167 163.885 172.078 163.516C171.99 163.141 171.852 162.812 171.664 162.531C171.482 162.245 171.247 162.021 170.961 161.859C170.674 161.693 170.333 161.609 169.938 161.609C169.573 161.609 169.255 161.672 168.984 161.797C168.719 161.922 168.492 162.091 168.305 162.305C168.117 162.513 167.964 162.753 167.844 163.023C167.729 163.289 167.643 163.565 167.586 163.852V165.875C167.69 166.24 167.836 166.583 168.023 166.906C168.211 167.224 168.461 167.482 168.773 167.68C169.086 167.872 169.479 167.969 169.953 167.969C170.344 167.969 170.68 167.888 170.961 167.727C171.247 167.56 171.482 167.333 171.664 167.047C171.852 166.76 171.99 166.432 172.078 166.062C172.167 165.688 172.211 165.289 172.211 164.867ZM175.125 164.867V164.688C175.125 164.078 175.214 163.513 175.391 162.992C175.568 162.466 175.823 162.01 176.156 161.625C176.49 161.234 176.893 160.932 177.367 160.719C177.841 160.5 178.372 160.391 178.961 160.391C179.555 160.391 180.089 160.5 180.562 160.719C181.042 160.932 181.448 161.234 181.781 161.625C182.12 162.01 182.378 162.466 182.555 162.992C182.732 163.513 182.82 164.078 182.82 164.688V164.867C182.82 165.477 182.732 166.042 182.555 166.562C182.378 167.083 182.12 167.539 181.781 167.93C181.448 168.315 181.044 168.617 180.57 168.836C180.102 169.049 179.57 169.156 178.977 169.156C178.383 169.156 177.849 169.049 177.375 168.836C176.901 168.617 176.495 168.315 176.156 167.93C175.823 167.539 175.568 167.083 175.391 166.562C175.214 166.042 175.125 165.477 175.125 164.867ZM176.57 164.688V164.867C176.57 165.289 176.62 165.688 176.719 166.062C176.818 166.432 176.966 166.76 177.164 167.047C177.367 167.333 177.62 167.56 177.922 167.727C178.224 167.888 178.576 167.969 178.977 167.969C179.372 167.969 179.719 167.888 180.016 167.727C180.318 167.56 180.568 167.333 180.766 167.047C180.964 166.76 181.112 166.432 181.211 166.062C181.315 165.688 181.367 165.289 181.367 164.867V164.688C181.367 164.271 181.315 163.878 181.211 163.508C181.112 163.133 180.961 162.802 180.758 162.516C180.56 162.224 180.31 161.995 180.008 161.828C179.711 161.661 179.362 161.578 178.961 161.578C178.565 161.578 178.216 161.661 177.914 161.828C177.617 161.995 177.367 162.224 177.164 162.516C176.966 162.802 176.818 163.133 176.719 163.508C176.62 163.878 176.57 164.271 176.57 164.688ZM189.555 166.758C189.555 166.549 189.508 166.357 189.414 166.18C189.326 165.997 189.141 165.833 188.859 165.688C188.583 165.536 188.167 165.406 187.609 165.297C187.141 165.198 186.716 165.081 186.336 164.945C185.961 164.81 185.641 164.646 185.375 164.453C185.115 164.26 184.914 164.034 184.773 163.773C184.633 163.513 184.562 163.208 184.562 162.859C184.562 162.526 184.635 162.211 184.781 161.914C184.932 161.617 185.143 161.354 185.414 161.125C185.69 160.896 186.021 160.716 186.406 160.586C186.792 160.456 187.221 160.391 187.695 160.391C188.372 160.391 188.951 160.51 189.43 160.75C189.909 160.99 190.276 161.31 190.531 161.711C190.786 162.107 190.914 162.547 190.914 163.031H189.469C189.469 162.797 189.398 162.57 189.258 162.352C189.122 162.128 188.922 161.943 188.656 161.797C188.396 161.651 188.076 161.578 187.695 161.578C187.294 161.578 186.969 161.641 186.719 161.766C186.474 161.885 186.294 162.039 186.18 162.227C186.07 162.414 186.016 162.612 186.016 162.82C186.016 162.977 186.042 163.117 186.094 163.242C186.151 163.362 186.25 163.474 186.391 163.578C186.531 163.677 186.729 163.771 186.984 163.859C187.24 163.948 187.565 164.036 187.961 164.125C188.654 164.281 189.224 164.469 189.672 164.688C190.12 164.906 190.453 165.174 190.672 165.492C190.891 165.81 191 166.195 191 166.648C191 167.018 190.922 167.357 190.766 167.664C190.615 167.971 190.393 168.237 190.102 168.461C189.815 168.68 189.471 168.852 189.07 168.977C188.674 169.096 188.229 169.156 187.734 169.156C186.99 169.156 186.359 169.023 185.844 168.758C185.328 168.492 184.938 168.148 184.672 167.727C184.406 167.305 184.273 166.859 184.273 166.391H185.727C185.747 166.786 185.862 167.102 186.07 167.336C186.279 167.565 186.534 167.729 186.836 167.828C187.138 167.922 187.438 167.969 187.734 167.969C188.13 167.969 188.461 167.917 188.727 167.812C188.997 167.708 189.203 167.565 189.344 167.383C189.484 167.201 189.555 166.992 189.555 166.758ZM197.82 166.758C197.82 166.549 197.773 166.357 197.68 166.18C197.591 165.997 197.406 165.833 197.125 165.688C196.849 165.536 196.432 165.406 195.875 165.297C195.406 165.198 194.982 165.081 194.602 164.945C194.227 164.81 193.906 164.646 193.641 164.453C193.38 164.26 193.18 164.034 193.039 163.773C192.898 163.513 192.828 163.208 192.828 162.859C192.828 162.526 192.901 162.211 193.047 161.914C193.198 161.617 193.409 161.354 193.68 161.125C193.956 160.896 194.286 160.716 194.672 160.586C195.057 160.456 195.487 160.391 195.961 160.391C196.638 160.391 197.216 160.51 197.695 160.75C198.174 160.99 198.542 161.31 198.797 161.711C199.052 162.107 199.18 162.547 199.18 163.031H197.734C197.734 162.797 197.664 162.57 197.523 162.352C197.388 162.128 197.188 161.943 196.922 161.797C196.661 161.651 196.341 161.578 195.961 161.578C195.56 161.578 195.234 161.641 194.984 161.766C194.74 161.885 194.56 162.039 194.445 162.227C194.336 162.414 194.281 162.612 194.281 162.82C194.281 162.977 194.307 163.117 194.359 163.242C194.417 163.362 194.516 163.474 194.656 163.578C194.797 163.677 194.995 163.771 195.25 163.859C195.505 163.948 195.831 164.036 196.227 164.125C196.919 164.281 197.49 164.469 197.938 164.688C198.385 164.906 198.719 165.174 198.938 165.492C199.156 165.81 199.266 166.195 199.266 166.648C199.266 167.018 199.188 167.357 199.031 167.664C198.88 167.971 198.659 168.237 198.367 168.461C198.081 168.68 197.737 168.852 197.336 168.977C196.94 169.096 196.495 169.156 196 169.156C195.255 169.156 194.625 169.023 194.109 168.758C193.594 168.492 193.203 168.148 192.938 167.727C192.672 167.305 192.539 166.859 192.539 166.391H193.992C194.013 166.786 194.128 167.102 194.336 167.336C194.544 167.565 194.799 167.729 195.102 167.828C195.404 167.922 195.703 167.969 196 167.969C196.396 167.969 196.727 167.917 196.992 167.812C197.263 167.708 197.469 167.565 197.609 167.383C197.75 167.201 197.82 166.992 197.82 166.758ZM206.336 167.047V160.547H207.789V169H206.406L206.336 167.047ZM206.609 165.266L207.211 165.25C207.211 165.812 207.151 166.333 207.031 166.812C206.917 167.286 206.729 167.698 206.469 168.047C206.208 168.396 205.867 168.669 205.445 168.867C205.023 169.06 204.51 169.156 203.906 169.156C203.495 169.156 203.117 169.096 202.773 168.977C202.435 168.857 202.143 168.672 201.898 168.422C201.654 168.172 201.464 167.846 201.328 167.445C201.198 167.044 201.133 166.562 201.133 166V160.547H202.578V166.016C202.578 166.396 202.62 166.711 202.703 166.961C202.792 167.206 202.909 167.401 203.055 167.547C203.206 167.688 203.372 167.786 203.555 167.844C203.742 167.901 203.935 167.93 204.133 167.93C204.747 167.93 205.234 167.812 205.594 167.578C205.953 167.339 206.211 167.018 206.367 166.617C206.529 166.211 206.609 165.76 206.609 165.266ZM211.562 160.547V169H210.109V160.547H211.562ZM210 158.305C210 158.07 210.07 157.872 210.211 157.711C210.357 157.549 210.57 157.469 210.852 157.469C211.128 157.469 211.339 157.549 211.484 157.711C211.635 157.872 211.711 158.07 211.711 158.305C211.711 158.529 211.635 158.721 211.484 158.883C211.339 159.039 211.128 159.117 210.852 159.117C210.57 159.117 210.357 159.039 210.211 158.883C210.07 158.721 210 158.529 210 158.305ZM221.391 160.547V161.656H216.82V160.547H221.391ZM218.367 158.492H219.812V166.906C219.812 167.193 219.857 167.409 219.945 167.555C220.034 167.701 220.148 167.797 220.289 167.844C220.43 167.891 220.581 167.914 220.742 167.914C220.862 167.914 220.987 167.904 221.117 167.883C221.253 167.857 221.354 167.836 221.422 167.82L221.43 169C221.315 169.036 221.164 169.07 220.977 169.102C220.794 169.138 220.573 169.156 220.312 169.156C219.958 169.156 219.633 169.086 219.336 168.945C219.039 168.805 218.802 168.57 218.625 168.242C218.453 167.909 218.367 167.461 218.367 166.898V158.492ZM228.07 167.555V163.203C228.07 162.87 228.003 162.581 227.867 162.336C227.737 162.086 227.539 161.893 227.273 161.758C227.008 161.622 226.68 161.555 226.289 161.555C225.924 161.555 225.604 161.617 225.328 161.742C225.057 161.867 224.844 162.031 224.688 162.234C224.536 162.438 224.461 162.656 224.461 162.891H223.016C223.016 162.589 223.094 162.289 223.25 161.992C223.406 161.695 223.63 161.427 223.922 161.188C224.219 160.943 224.573 160.75 224.984 160.609C225.401 160.464 225.865 160.391 226.375 160.391C226.99 160.391 227.531 160.495 228 160.703C228.474 160.911 228.844 161.227 229.109 161.648C229.38 162.065 229.516 162.589 229.516 163.219V167.156C229.516 167.438 229.539 167.737 229.586 168.055C229.638 168.372 229.714 168.646 229.812 168.875V169H228.305C228.232 168.833 228.174 168.612 228.133 168.336C228.091 168.055 228.07 167.794 228.07 167.555ZM228.32 163.875L228.336 164.891H226.875C226.464 164.891 226.096 164.924 225.773 164.992C225.451 165.055 225.18 165.151 224.961 165.281C224.742 165.411 224.576 165.576 224.461 165.773C224.346 165.966 224.289 166.193 224.289 166.453C224.289 166.719 224.349 166.961 224.469 167.18C224.589 167.398 224.768 167.573 225.008 167.703C225.253 167.828 225.552 167.891 225.906 167.891C226.349 167.891 226.74 167.797 227.078 167.609C227.417 167.422 227.685 167.193 227.883 166.922C228.086 166.651 228.195 166.388 228.211 166.133L228.828 166.828C228.792 167.047 228.693 167.289 228.531 167.555C228.37 167.82 228.154 168.076 227.883 168.32C227.617 168.56 227.299 168.76 226.93 168.922C226.565 169.078 226.154 169.156 225.695 169.156C225.122 169.156 224.62 169.044 224.188 168.82C223.76 168.596 223.427 168.297 223.188 167.922C222.953 167.542 222.836 167.117 222.836 166.648C222.836 166.195 222.924 165.797 223.102 165.453C223.279 165.104 223.534 164.815 223.867 164.586C224.201 164.352 224.602 164.174 225.07 164.055C225.539 163.935 226.062 163.875 226.641 163.875H228.32ZM233.234 161.875V169H231.789V160.547H233.195L233.234 161.875ZM235.875 160.5L235.867 161.844C235.747 161.818 235.633 161.802 235.523 161.797C235.419 161.786 235.299 161.781 235.164 161.781C234.831 161.781 234.536 161.833 234.281 161.938C234.026 162.042 233.81 162.188 233.633 162.375C233.456 162.562 233.315 162.786 233.211 163.047C233.112 163.302 233.047 163.583 233.016 163.891L232.609 164.125C232.609 163.615 232.659 163.135 232.758 162.688C232.862 162.24 233.021 161.844 233.234 161.5C233.448 161.151 233.719 160.88 234.047 160.688C234.38 160.49 234.776 160.391 235.234 160.391C235.339 160.391 235.458 160.404 235.594 160.43C235.729 160.451 235.823 160.474 235.875 160.5ZM240.562 169.156C239.974 169.156 239.44 169.057 238.961 168.859C238.487 168.656 238.078 168.372 237.734 168.008C237.396 167.643 237.135 167.211 236.953 166.711C236.771 166.211 236.68 165.664 236.68 165.07V164.742C236.68 164.055 236.781 163.443 236.984 162.906C237.188 162.365 237.464 161.906 237.812 161.531C238.161 161.156 238.557 160.872 239 160.68C239.443 160.487 239.901 160.391 240.375 160.391C240.979 160.391 241.5 160.495 241.938 160.703C242.38 160.911 242.742 161.203 243.023 161.578C243.305 161.948 243.513 162.385 243.648 162.891C243.784 163.391 243.852 163.938 243.852 164.531V165.18H237.539V164H242.406V163.891C242.385 163.516 242.307 163.151 242.172 162.797C242.042 162.443 241.833 162.151 241.547 161.922C241.26 161.693 240.87 161.578 240.375 161.578C240.047 161.578 239.745 161.648 239.469 161.789C239.193 161.924 238.956 162.128 238.758 162.398C238.56 162.669 238.406 163 238.297 163.391C238.188 163.781 238.133 164.232 238.133 164.742V165.07C238.133 165.471 238.188 165.849 238.297 166.203C238.411 166.552 238.576 166.859 238.789 167.125C239.008 167.391 239.271 167.599 239.578 167.75C239.891 167.901 240.245 167.977 240.641 167.977C241.151 167.977 241.583 167.872 241.938 167.664C242.292 167.456 242.602 167.177 242.867 166.828L243.742 167.523C243.56 167.799 243.328 168.062 243.047 168.312C242.766 168.562 242.419 168.766 242.008 168.922C241.602 169.078 241.12 169.156 240.562 169.156ZM247.695 169H246.25V159.656C246.25 159.047 246.359 158.534 246.578 158.117C246.802 157.695 247.122 157.378 247.539 157.164C247.956 156.945 248.451 156.836 249.023 156.836C249.19 156.836 249.357 156.846 249.523 156.867C249.695 156.888 249.862 156.919 250.023 156.961L249.945 158.141C249.836 158.115 249.711 158.096 249.57 158.086C249.435 158.076 249.299 158.07 249.164 158.07C248.857 158.07 248.591 158.133 248.367 158.258C248.148 158.378 247.982 158.555 247.867 158.789C247.753 159.023 247.695 159.312 247.695 159.656V169ZM249.492 160.547V161.656H244.914V160.547H249.492ZM256.086 167.555V163.203C256.086 162.87 256.018 162.581 255.883 162.336C255.753 162.086 255.555 161.893 255.289 161.758C255.023 161.622 254.695 161.555 254.305 161.555C253.94 161.555 253.62 161.617 253.344 161.742C253.073 161.867 252.859 162.031 252.703 162.234C252.552 162.438 252.477 162.656 252.477 162.891H251.031C251.031 162.589 251.109 162.289 251.266 161.992C251.422 161.695 251.646 161.427 251.938 161.188C252.234 160.943 252.589 160.75 253 160.609C253.417 160.464 253.88 160.391 254.391 160.391C255.005 160.391 255.547 160.495 256.016 160.703C256.49 160.911 256.859 161.227 257.125 161.648C257.396 162.065 257.531 162.589 257.531 163.219V167.156C257.531 167.438 257.555 167.737 257.602 168.055C257.654 168.372 257.729 168.646 257.828 168.875V169H256.32C256.247 168.833 256.19 168.612 256.148 168.336C256.107 168.055 256.086 167.794 256.086 167.555ZM256.336 163.875L256.352 164.891H254.891C254.479 164.891 254.112 164.924 253.789 164.992C253.466 165.055 253.195 165.151 252.977 165.281C252.758 165.411 252.591 165.576 252.477 165.773C252.362 165.966 252.305 166.193 252.305 166.453C252.305 166.719 252.365 166.961 252.484 167.18C252.604 167.398 252.784 167.573 253.023 167.703C253.268 167.828 253.568 167.891 253.922 167.891C254.365 167.891 254.755 167.797 255.094 167.609C255.432 167.422 255.701 167.193 255.898 166.922C256.102 166.651 256.211 166.388 256.227 166.133L256.844 166.828C256.807 167.047 256.708 167.289 256.547 167.555C256.385 167.82 256.169 168.076 255.898 168.32C255.633 168.56 255.315 168.76 254.945 168.922C254.581 169.078 254.169 169.156 253.711 169.156C253.138 169.156 252.635 169.044 252.203 168.82C251.776 168.596 251.443 168.297 251.203 167.922C250.969 167.542 250.852 167.117 250.852 166.648C250.852 166.195 250.94 165.797 251.117 165.453C251.294 165.104 251.549 164.815 251.883 164.586C252.216 164.352 252.617 164.174 253.086 164.055C253.555 163.935 254.078 163.875 254.656 163.875H256.336Z" fill="#D9D9D9"/>
</svg>
