<svg width="19" height="20" viewBox="0 0 19 20" fill="none" xmlns="http://www.w3.org/2000/svg">
<path d="M18.2938 14.4944C17.7734 13.5981 17 11.0622 17 7.75C17 5.76088 16.2098 3.85322 14.8033 2.4467C13.3968 1.04018 11.4891 0.25 9.5 0.25C7.51088 0.25 5.60322 1.04018 4.1967 2.4467C2.79018 3.85322 2 5.76088 2 7.75C2 11.0631 1.22563 13.5981 0.705313 14.4944C0.572442 14.7222 0.502002 14.9811 0.501096 15.2449C0.500191 15.5086 0.568852 15.768 0.700156 15.9967C0.831459 16.2255 1.02076 16.4156 1.24897 16.5478C1.47719 16.6801 1.73624 16.7498 2 16.75H5.82594C5.99897 17.5967 6.45915 18.3577 7.12863 18.9042C7.7981 19.4507 8.63579 19.7492 9.5 19.7492C10.3642 19.7492 11.2019 19.4507 11.8714 18.9042C12.5409 18.3577 13.001 17.5967 13.1741 16.75H17C17.2637 16.7496 17.5226 16.6798 17.7507 16.5475C17.9788 16.4151 18.1679 16.225 18.2991 15.9963C18.4303 15.7676 18.4989 15.5083 18.498 15.2446C18.497 14.9809 18.4266 14.7222 18.2938 14.4944ZM9.5 18.25C9.03483 18.2499 8.58114 18.1055 8.20137 17.8369C7.82161 17.5683 7.53443 17.1886 7.37938 16.75H11.6206C11.4656 17.1886 11.1784 17.5683 10.7986 17.8369C10.4189 18.1055 9.96517 18.2499 9.5 18.25ZM2 15.25C2.72188 14.0087 3.5 11.1325 3.5 7.75C3.5 6.1587 4.13214 4.63258 5.25736 3.50736C6.38258 2.38214 7.9087 1.75 9.5 1.75C11.0913 1.75 12.6174 2.38214 13.7426 3.50736C14.8679 4.63258 15.5 6.1587 15.5 7.75C15.5 11.1297 16.2763 14.0059 17 15.25H2Z" fill="#552DDC"/>
</svg>
