<svg width="142" height="139" viewBox="0 0 142 139" fill="none" xmlns="http://www.w3.org/2000/svg">
<g filter="url(#filter0_d_19_143)">
<rect x="4" y="2" width="134" height="131" rx="12" fill="white" shape-rendering="crispEdges"/>
<path d="M29.6768 33.251V35H22.8828V33.251H29.6768ZM23.5068 22.2031V35H21.3008V22.2031H23.5068ZM28.7891 27.5469V29.2695H22.8828V27.5469H28.7891ZM29.6328 22.2031V23.9609H22.8828V22.2031H29.6328ZM36.8926 33.0312V21.5H39.0195V35H37.0947L36.8926 33.0312ZM30.7051 30.3506V30.166C30.7051 29.4453 30.79 28.7891 30.96 28.1973C31.1299 27.5996 31.376 27.0869 31.6982 26.6592C32.0205 26.2256 32.4131 25.8945 32.876 25.666C33.3389 25.4316 33.8604 25.3145 34.4404 25.3145C35.0146 25.3145 35.5186 25.4258 35.9521 25.6484C36.3857 25.8711 36.7549 26.1904 37.0596 26.6064C37.3643 27.0166 37.6074 27.5088 37.7891 28.083C37.9707 28.6514 38.0996 29.2842 38.1758 29.9814V30.5703C38.0996 31.25 37.9707 31.8711 37.7891 32.4336C37.6074 32.9961 37.3643 33.4824 37.0596 33.8926C36.7549 34.3027 36.3828 34.6191 35.9434 34.8418C35.5098 35.0645 35.0029 35.1758 34.4229 35.1758C33.8486 35.1758 33.3301 35.0557 32.8672 34.8154C32.4102 34.5752 32.0205 34.2383 31.6982 33.8047C31.376 33.3711 31.1299 32.8613 30.96 32.2754C30.79 31.6836 30.7051 31.042 30.7051 30.3506ZM32.8232 30.166V30.3506C32.8232 30.7842 32.8613 31.1885 32.9375 31.5635C33.0195 31.9385 33.1455 32.2695 33.3154 32.5566C33.4854 32.8379 33.7051 33.0605 33.9746 33.2246C34.25 33.3828 34.5781 33.4619 34.959 33.4619C35.4395 33.4619 35.835 33.3564 36.1455 33.1455C36.4561 32.9346 36.6992 32.6504 36.875 32.293C37.0566 31.9297 37.1797 31.5254 37.2441 31.0801V29.4893C37.209 29.1436 37.1357 28.8213 37.0244 28.5225C36.9189 28.2236 36.7754 27.9629 36.5938 27.7402C36.4121 27.5117 36.1865 27.3359 35.917 27.2129C35.6533 27.084 35.3398 27.0195 34.9766 27.0195C34.5898 27.0195 34.2617 27.1016 33.9922 27.2656C33.7227 27.4297 33.5 27.6553 33.3242 27.9424C33.1543 28.2295 33.0283 28.5635 32.9463 28.9443C32.8643 29.3252 32.8232 29.7324 32.8232 30.166ZM43.502 25.4902V35H41.375V25.4902H43.502ZM41.2344 22.9941C41.2344 22.6719 41.3398 22.4053 41.5508 22.1943C41.7676 21.9775 42.0664 21.8691 42.4473 21.8691C42.8223 21.8691 43.1182 21.9775 43.335 22.1943C43.5518 22.4053 43.6602 22.6719 43.6602 22.9941C43.6602 23.3105 43.5518 23.5742 43.335 23.7852C43.1182 23.9961 42.8223 24.1016 42.4473 24.1016C42.0664 24.1016 41.7676 23.9961 41.5508 23.7852C41.3398 23.5742 41.2344 23.3105 41.2344 22.9941ZM50.1816 25.4902V27.0371H44.8203V25.4902H50.1816ZM46.3672 23.1611H48.4854V32.3721C48.4854 32.665 48.5264 32.8906 48.6084 33.0488C48.6963 33.2012 48.8164 33.3037 48.9688 33.3564C49.1211 33.4092 49.2998 33.4355 49.5049 33.4355C49.6514 33.4355 49.792 33.4268 49.9268 33.4092C50.0615 33.3916 50.1699 33.374 50.252 33.3564L50.2607 34.9736C50.085 35.0264 49.8799 35.0732 49.6455 35.1143C49.417 35.1553 49.1533 35.1758 48.8545 35.1758C48.3682 35.1758 47.9375 35.0908 47.5625 34.9209C47.1875 34.7451 46.8945 34.4609 46.6836 34.0684C46.4727 33.6758 46.3672 33.1543 46.3672 32.5039V23.1611ZM57.1777 33.0928V28.5576C57.1777 28.2178 57.1162 27.9248 56.9932 27.6787C56.8701 27.4326 56.6826 27.2422 56.4307 27.1074C56.1846 26.9727 55.874 26.9053 55.499 26.9053C55.1533 26.9053 54.8545 26.9639 54.6025 27.0811C54.3506 27.1982 54.1543 27.3564 54.0137 27.5557C53.873 27.7549 53.8027 27.9805 53.8027 28.2324H51.6934C51.6934 27.8574 51.7842 27.4941 51.9658 27.1426C52.1475 26.791 52.4111 26.4775 52.7568 26.2021C53.1025 25.9268 53.5156 25.71 53.9961 25.5518C54.4766 25.3936 55.0156 25.3145 55.6133 25.3145C56.3281 25.3145 56.9609 25.4346 57.5117 25.6748C58.0684 25.915 58.5049 26.2783 58.8213 26.7646C59.1436 27.2451 59.3047 27.8486 59.3047 28.5752V32.8027C59.3047 33.2363 59.334 33.626 59.3926 33.9717C59.457 34.3115 59.5479 34.6074 59.665 34.8594V35H57.4941C57.3945 34.7715 57.3154 34.4814 57.2568 34.1299C57.2041 33.7725 57.1777 33.4268 57.1777 33.0928ZM57.4854 29.2168L57.5029 30.5264H55.9824C55.5898 30.5264 55.2441 30.5645 54.9453 30.6406C54.6465 30.7109 54.3975 30.8164 54.1982 30.957C53.999 31.0977 53.8496 31.2676 53.75 31.4668C53.6504 31.666 53.6006 31.8916 53.6006 32.1436C53.6006 32.3955 53.6592 32.627 53.7764 32.8379C53.8936 33.043 54.0635 33.2041 54.2861 33.3213C54.5146 33.4385 54.79 33.4971 55.1123 33.4971C55.5459 33.4971 55.9238 33.4092 56.2461 33.2334C56.5742 33.0518 56.832 32.832 57.0195 32.5742C57.207 32.3105 57.3066 32.0615 57.3184 31.8271L58.0039 32.7676C57.9336 33.0078 57.8135 33.2656 57.6436 33.541C57.4736 33.8164 57.251 34.0801 56.9756 34.332C56.7061 34.5781 56.3809 34.7803 56 34.9385C55.625 35.0967 55.1914 35.1758 54.6992 35.1758C54.0781 35.1758 53.5244 35.0527 53.0381 34.8066C52.5518 34.5547 52.1709 34.2178 51.8955 33.7959C51.6201 33.3682 51.4824 32.8848 51.4824 32.3457C51.4824 31.8418 51.5762 31.3965 51.7637 31.0098C51.957 30.6172 52.2383 30.2891 52.6074 30.0254C52.9824 29.7617 53.4395 29.5625 53.9785 29.4277C54.5176 29.2871 55.1328 29.2168 55.8242 29.2168H57.4854ZM63.6465 27.3008V35H61.5283V25.4902H63.5498L63.6465 27.3008ZM66.5557 25.4287L66.5381 27.3975C66.4092 27.374 66.2686 27.3564 66.1162 27.3447C65.9697 27.333 65.8232 27.3271 65.6768 27.3271C65.3135 27.3271 64.9941 27.3799 64.7188 27.4854C64.4434 27.585 64.2119 27.7314 64.0244 27.9248C63.8428 28.1123 63.7021 28.3408 63.6025 28.6104C63.5029 28.8799 63.4443 29.1816 63.4268 29.5156L62.9434 29.5508C62.9434 28.9531 63.002 28.3994 63.1191 27.8896C63.2363 27.3799 63.4121 26.9316 63.6465 26.5449C63.8867 26.1582 64.1855 25.8564 64.543 25.6396C64.9062 25.4229 65.3252 25.3145 65.7998 25.3145C65.9287 25.3145 66.0664 25.3262 66.2129 25.3496C66.3652 25.373 66.4795 25.3994 66.5557 25.4287ZM23.6562 43.2031V56H21.4502V43.2031H23.6562ZM28.2881 48.5205V56H26.1699V46.4902H28.165L28.2881 48.5205ZM27.9102 50.8936L27.2246 50.8848C27.2305 50.2109 27.3242 49.5928 27.5059 49.0303C27.6934 48.4678 27.9512 47.9844 28.2793 47.5801C28.6133 47.1758 29.0117 46.8652 29.4746 46.6484C29.9375 46.4258 30.4531 46.3145 31.0215 46.3145C31.4785 46.3145 31.8916 46.3789 32.2607 46.5078C32.6357 46.6309 32.9551 46.833 33.2188 47.1143C33.4883 47.3955 33.6934 47.7617 33.834 48.2129C33.9746 48.6582 34.0449 49.2061 34.0449 49.8564V56H31.918V49.8477C31.918 49.3906 31.8506 49.0303 31.7158 48.7666C31.5869 48.4971 31.3965 48.3066 31.1445 48.1953C30.8984 48.0781 30.5908 48.0195 30.2217 48.0195C29.8584 48.0195 29.5332 48.0957 29.2461 48.248C28.959 48.4004 28.7158 48.6084 28.5166 48.8721C28.3232 49.1357 28.1738 49.4404 28.0684 49.7861C27.9629 50.1318 27.9102 50.501 27.9102 50.8936ZM39.0723 56H36.9541V45.5762C36.9541 44.8672 37.0859 44.2725 37.3496 43.792C37.6191 43.3057 38.0029 42.9395 38.501 42.6934C38.999 42.4414 39.5879 42.3154 40.2676 42.3154C40.4785 42.3154 40.6865 42.3301 40.8916 42.3594C41.0967 42.3828 41.2959 42.4209 41.4893 42.4736L41.4365 44.1084C41.3193 44.0791 41.1904 44.0586 41.0498 44.0469C40.915 44.0352 40.7686 44.0293 40.6104 44.0293C40.2881 44.0293 40.0098 44.0908 39.7754 44.2139C39.5469 44.3311 39.3711 44.5039 39.248 44.7324C39.1309 44.9609 39.0723 45.2422 39.0723 45.5762V56ZM41.0322 46.4902V48.0371H35.4951V46.4902H41.0322ZM42.166 51.3506V51.1484C42.166 50.4629 42.2656 49.8271 42.4648 49.2412C42.6641 48.6494 42.9512 48.1367 43.3262 47.7031C43.707 47.2637 44.1699 46.9238 44.7148 46.6836C45.2656 46.4375 45.8867 46.3145 46.5781 46.3145C47.2754 46.3145 47.8965 46.4375 48.4414 46.6836C48.9922 46.9238 49.458 47.2637 49.8389 47.7031C50.2197 48.1367 50.5098 48.6494 50.709 49.2412C50.9082 49.8271 51.0078 50.4629 51.0078 51.1484V51.3506C51.0078 52.0361 50.9082 52.6719 50.709 53.2578C50.5098 53.8438 50.2197 54.3564 49.8389 54.7959C49.458 55.2295 48.9951 55.5693 48.4502 55.8154C47.9053 56.0557 47.2871 56.1758 46.5957 56.1758C45.8984 56.1758 45.2744 56.0557 44.7236 55.8154C44.1787 55.5693 43.7158 55.2295 43.335 54.7959C42.9541 54.3564 42.6641 53.8438 42.4648 53.2578C42.2656 52.6719 42.166 52.0361 42.166 51.3506ZM44.2842 51.1484V51.3506C44.2842 51.7783 44.3281 52.1826 44.416 52.5635C44.5039 52.9443 44.6416 53.2783 44.8291 53.5654C45.0166 53.8525 45.2568 54.0781 45.5498 54.2422C45.8428 54.4062 46.1914 54.4883 46.5957 54.4883C46.9883 54.4883 47.3281 54.4062 47.6152 54.2422C47.9082 54.0781 48.1484 53.8525 48.3359 53.5654C48.5234 53.2783 48.6611 52.9443 48.749 52.5635C48.8428 52.1826 48.8896 51.7783 48.8896 51.3506V51.1484C48.8896 50.7266 48.8428 50.3281 48.749 49.9531C48.6611 49.5723 48.5205 49.2354 48.3271 48.9424C48.1396 48.6494 47.8994 48.4209 47.6064 48.2568C47.3193 48.0869 46.9766 48.002 46.5781 48.002C46.1797 48.002 45.834 48.0869 45.541 48.2568C45.2539 48.4209 45.0166 48.6494 44.8291 48.9424C44.6416 49.2354 44.5039 49.5723 44.416 49.9531C44.3281 50.3281 44.2842 50.7266 44.2842 51.1484ZM54.9102 48.3008V56H52.792V46.4902H54.8135L54.9102 48.3008ZM57.8193 46.4287L57.8018 48.3975C57.6729 48.374 57.5322 48.3564 57.3799 48.3447C57.2334 48.333 57.0869 48.3271 56.9404 48.3271C56.5771 48.3271 56.2578 48.3799 55.9824 48.4854C55.707 48.585 55.4756 48.7314 55.2881 48.9248C55.1064 49.1123 54.9658 49.3408 54.8662 49.6104C54.7666 49.8799 54.708 50.1816 54.6904 50.5156L54.207 50.5508C54.207 49.9531 54.2656 49.3994 54.3828 48.8896C54.5 48.3799 54.6758 47.9316 54.9102 47.5449C55.1504 47.1582 55.4492 46.8564 55.8066 46.6396C56.1699 46.4229 56.5889 46.3145 57.0635 46.3145C57.1924 46.3145 57.3301 46.3262 57.4766 46.3496C57.6289 46.373 57.7432 46.3994 57.8193 46.4287ZM61.2646 48.4238V56H59.1465V46.4902H61.1416L61.2646 48.4238ZM60.9219 50.8936L60.2012 50.8848C60.2012 50.2285 60.2832 49.6221 60.4473 49.0654C60.6113 48.5088 60.8516 48.0254 61.168 47.6152C61.4844 47.1992 61.877 46.8799 62.3457 46.6572C62.8203 46.4287 63.3682 46.3145 63.9893 46.3145C64.4229 46.3145 64.8184 46.3789 65.1758 46.5078C65.5391 46.6309 65.8525 46.8271 66.1162 47.0967C66.3857 47.3662 66.5908 47.7119 66.7314 48.1338C66.8779 48.5557 66.9512 49.0654 66.9512 49.6631V56H64.833V49.8477C64.833 49.3848 64.7627 49.0215 64.6221 48.7578C64.4873 48.4941 64.291 48.3066 64.0332 48.1953C63.7812 48.0781 63.4795 48.0195 63.1279 48.0195C62.7295 48.0195 62.3896 48.0957 62.1084 48.248C61.833 48.4004 61.6074 48.6084 61.4316 48.8721C61.2559 49.1357 61.127 49.4404 61.0449 49.7861C60.9629 50.1318 60.9219 50.501 60.9219 50.8936ZM66.8193 50.3311L65.8262 50.5508C65.8262 49.9766 65.9053 49.4346 66.0635 48.9248C66.2275 48.4092 66.4648 47.958 66.7754 47.5713C67.0918 47.1787 67.4814 46.8711 67.9443 46.6484C68.4072 46.4258 68.9375 46.3145 69.5352 46.3145C70.0215 46.3145 70.4551 46.3818 70.8359 46.5166C71.2227 46.6455 71.5508 46.8506 71.8203 47.1318C72.0898 47.4131 72.2949 47.7793 72.4355 48.2305C72.5762 48.6758 72.6465 49.2148 72.6465 49.8477V56H70.5195V49.8389C70.5195 49.3584 70.4492 48.9863 70.3086 48.7227C70.1738 48.459 69.9805 48.2773 69.7285 48.1777C69.4766 48.0723 69.1748 48.0195 68.8232 48.0195C68.4951 48.0195 68.2051 48.0811 67.9531 48.2041C67.707 48.3213 67.499 48.4883 67.3291 48.7051C67.1592 48.916 67.0303 49.1592 66.9424 49.4346C66.8604 49.71 66.8193 50.0088 66.8193 50.3311ZM80.1875 54.0928V49.5576C80.1875 49.2178 80.126 48.9248 80.0029 48.6787C79.8799 48.4326 79.6924 48.2422 79.4404 48.1074C79.1943 47.9727 78.8838 47.9053 78.5088 47.9053C78.1631 47.9053 77.8643 47.9639 77.6123 48.0811C77.3604 48.1982 77.1641 48.3564 77.0234 48.5557C76.8828 48.7549 76.8125 48.9805 76.8125 49.2324H74.7031C74.7031 48.8574 74.7939 48.4941 74.9756 48.1426C75.1572 47.791 75.4209 47.4775 75.7666 47.2021C76.1123 46.9268 76.5254 46.71 77.0059 46.5518C77.4863 46.3936 78.0254 46.3145 78.623 46.3145C79.3379 46.3145 79.9707 46.4346 80.5215 46.6748C81.0781 46.915 81.5146 47.2783 81.8311 47.7646C82.1533 48.2451 82.3145 48.8486 82.3145 49.5752V53.8027C82.3145 54.2363 82.3438 54.626 82.4023 54.9717C82.4668 55.3115 82.5576 55.6074 82.6748 55.8594V56H80.5039C80.4043 55.7715 80.3252 55.4814 80.2666 55.1299C80.2139 54.7725 80.1875 54.4268 80.1875 54.0928ZM80.4951 50.2168L80.5127 51.5264H78.9922C78.5996 51.5264 78.2539 51.5645 77.9551 51.6406C77.6562 51.7109 77.4072 51.8164 77.208 51.957C77.0088 52.0977 76.8594 52.2676 76.7598 52.4668C76.6602 52.666 76.6104 52.8916 76.6104 53.1436C76.6104 53.3955 76.6689 53.627 76.7861 53.8379C76.9033 54.043 77.0732 54.2041 77.2959 54.3213C77.5244 54.4385 77.7998 54.4971 78.1221 54.4971C78.5557 54.4971 78.9336 54.4092 79.2559 54.2334C79.584 54.0518 79.8418 53.832 80.0293 53.5742C80.2168 53.3105 80.3164 53.0615 80.3281 52.8271L81.0137 53.7676C80.9434 54.0078 80.8232 54.2656 80.6533 54.541C80.4834 54.8164 80.2607 55.0801 79.9854 55.332C79.7158 55.5781 79.3906 55.7803 79.0098 55.9385C78.6348 56.0967 78.2012 56.1758 77.709 56.1758C77.0879 56.1758 76.5342 56.0527 76.0479 55.8066C75.5615 55.5547 75.1807 55.2178 74.9053 54.7959C74.6299 54.3682 74.4922 53.8848 74.4922 53.3457C74.4922 52.8418 74.5859 52.3965 74.7734 52.0098C74.9668 51.6172 75.248 51.2891 75.6172 51.0254C75.9922 50.7617 76.4492 50.5625 76.9883 50.4277C77.5273 50.2871 78.1426 50.2168 78.834 50.2168H80.4951ZM88.4141 54.4883C88.7598 54.4883 89.0703 54.4209 89.3457 54.2861C89.627 54.1455 89.8525 53.9521 90.0225 53.7061C90.1982 53.46 90.2949 53.1758 90.3125 52.8535H92.3076C92.2959 53.4688 92.1143 54.0283 91.7627 54.5322C91.4111 55.0361 90.9453 55.4375 90.3652 55.7363C89.7852 56.0293 89.1436 56.1758 88.4404 56.1758C87.7139 56.1758 87.0811 56.0527 86.542 55.8066C86.0029 55.5547 85.5547 55.209 85.1973 54.7695C84.8398 54.3301 84.5703 53.8232 84.3887 53.249C84.2129 52.6748 84.125 52.0596 84.125 51.4033V51.0957C84.125 50.4395 84.2129 49.8242 84.3887 49.25C84.5703 48.6699 84.8398 48.1602 85.1973 47.7207C85.5547 47.2812 86.0029 46.9385 86.542 46.6924C87.0811 46.4404 87.7109 46.3145 88.4316 46.3145C89.1934 46.3145 89.8613 46.4668 90.4355 46.7715C91.0098 47.0703 91.4609 47.4893 91.7891 48.0283C92.123 48.5615 92.2959 49.1826 92.3076 49.8916H90.3125C90.2949 49.54 90.207 49.2236 90.0488 48.9424C89.8965 48.6553 89.6797 48.4268 89.3984 48.2568C89.123 48.0869 88.792 48.002 88.4053 48.002C87.9775 48.002 87.623 48.0898 87.3418 48.2656C87.0605 48.4355 86.8408 48.6699 86.6826 48.9688C86.5244 49.2617 86.4102 49.5928 86.3398 49.9619C86.2754 50.3252 86.2432 50.7031 86.2432 51.0957V51.4033C86.2432 51.7959 86.2754 52.1768 86.3398 52.5459C86.4043 52.915 86.5156 53.2461 86.6738 53.5391C86.8379 53.8262 87.0605 54.0576 87.3418 54.2334C87.623 54.4033 87.9805 54.4883 88.4141 54.4883ZM87.4824 56.0176H89.0557L88.9502 56.5098C89.2842 56.5684 89.5889 56.709 89.8643 56.9316C90.1455 57.1602 90.2861 57.5264 90.2861 58.0303C90.2861 58.3291 90.2246 58.5986 90.1016 58.8389C89.9785 59.0791 89.7939 59.2842 89.5479 59.4541C89.3076 59.6299 89.0059 59.7646 88.6426 59.8584C88.2852 59.9521 87.8691 59.999 87.3945 59.999L87.333 58.8037C87.5615 58.8037 87.7666 58.7744 87.9482 58.7158C88.1299 58.6631 88.2734 58.5781 88.3789 58.4609C88.4902 58.3438 88.5459 58.1914 88.5459 58.0039C88.5459 57.8223 88.499 57.6816 88.4053 57.582C88.3115 57.4824 88.165 57.4062 87.9658 57.3535C87.7725 57.3008 87.5205 57.2627 87.21 57.2393L87.4824 56.0176ZM93.5293 51.3506V51.1484C93.5293 50.4629 93.6289 49.8271 93.8281 49.2412C94.0273 48.6494 94.3145 48.1367 94.6895 47.7031C95.0703 47.2637 95.5332 46.9238 96.0781 46.6836C96.6289 46.4375 97.25 46.3145 97.9414 46.3145C98.6387 46.3145 99.2598 46.4375 99.8047 46.6836C100.355 46.9238 100.821 47.2637 101.202 47.7031C101.583 48.1367 101.873 48.6494 102.072 49.2412C102.271 49.8271 102.371 50.4629 102.371 51.1484V51.3506C102.371 52.0361 102.271 52.6719 102.072 53.2578C101.873 53.8438 101.583 54.3564 101.202 54.7959C100.821 55.2295 100.358 55.5693 99.8135 55.8154C99.2686 56.0557 98.6504 56.1758 97.959 56.1758C97.2617 56.1758 96.6377 56.0557 96.0869 55.8154C95.542 55.5693 95.0791 55.2295 94.6982 54.7959C94.3174 54.3564 94.0273 53.8438 93.8281 53.2578C93.6289 52.6719 93.5293 52.0361 93.5293 51.3506ZM95.6475 51.1484V51.3506C95.6475 51.7783 95.6914 52.1826 95.7793 52.5635C95.8672 52.9443 96.0049 53.2783 96.1924 53.5654C96.3799 53.8525 96.6201 54.0781 96.9131 54.2422C97.2061 54.4062 97.5547 54.4883 97.959 54.4883C98.3516 54.4883 98.6914 54.4062 98.9785 54.2422C99.2715 54.0781 99.5117 53.8525 99.6992 53.5654C99.8867 53.2783 100.024 52.9443 100.112 52.5635C100.206 52.1826 100.253 51.7783 100.253 51.3506V51.1484C100.253 50.7266 100.206 50.3281 100.112 49.9531C100.024 49.5723 99.8838 49.2354 99.6904 48.9424C99.5029 48.6494 99.2627 48.4209 98.9697 48.2568C98.6826 48.0869 98.3398 48.002 97.9414 48.002C97.543 48.002 97.1973 48.0869 96.9043 48.2568C96.6172 48.4209 96.3799 48.6494 96.1924 48.9424C96.0049 49.2354 95.8672 49.5723 95.7793 49.9531C95.6914 50.3281 95.6475 50.7266 95.6475 51.1484ZM99.8311 42.6055L101.123 42.7021C101.123 43.1299 101.038 43.5137 100.868 43.8535C100.698 44.1875 100.467 44.4512 100.174 44.6445C99.8809 44.8379 99.5498 44.9346 99.1807 44.9346C98.8936 44.9346 98.6504 44.8936 98.4512 44.8115C98.252 44.7295 98.0703 44.6357 97.9062 44.5303C97.7422 44.4248 97.5723 44.334 97.3965 44.2578C97.2266 44.1758 97.0244 44.1348 96.79 44.1348C96.5674 44.1348 96.377 44.2168 96.2188 44.3809C96.0664 44.5449 95.9902 44.7646 95.9902 45.04L94.6895 44.9697C94.6895 44.5479 94.7744 44.167 94.9443 43.8271C95.1143 43.4873 95.3457 43.2178 95.6387 43.0186C95.9316 42.8193 96.2627 42.7197 96.6318 42.7197C96.8721 42.7197 97.0889 42.7607 97.2822 42.8428C97.4814 42.9189 97.6689 43.0098 97.8447 43.1152C98.0264 43.2207 98.2109 43.3145 98.3984 43.3965C98.5859 43.4785 98.7939 43.5195 99.0225 43.5195C99.2451 43.5195 99.4355 43.4346 99.5938 43.2646C99.752 43.0947 99.8311 42.875 99.8311 42.6055ZM108.339 56.1758C107.636 56.1758 107 56.0615 106.432 55.833C105.869 55.5986 105.389 55.2734 104.99 54.8574C104.598 54.4414 104.296 53.9521 104.085 53.3896C103.874 52.8271 103.769 52.2207 103.769 51.5703V51.2188C103.769 50.4746 103.877 49.8008 104.094 49.1973C104.311 48.5938 104.612 48.0781 104.999 47.6504C105.386 47.2168 105.843 46.8857 106.37 46.6572C106.897 46.4287 107.469 46.3145 108.084 46.3145C108.764 46.3145 109.358 46.4287 109.868 46.6572C110.378 46.8857 110.8 47.208 111.134 47.624C111.474 48.0342 111.726 48.5234 111.89 49.0918C112.06 49.6602 112.145 50.2871 112.145 50.9727V51.8779H104.797V50.3574H110.053V50.1904C110.041 49.8096 109.965 49.4521 109.824 49.1182C109.689 48.7842 109.481 48.5146 109.2 48.3096C108.919 48.1045 108.544 48.002 108.075 48.002C107.724 48.002 107.41 48.0781 107.135 48.2305C106.865 48.377 106.64 48.5908 106.458 48.8721C106.276 49.1533 106.136 49.4932 106.036 49.8916C105.942 50.2842 105.896 50.7266 105.896 51.2188V51.5703C105.896 51.9863 105.951 52.373 106.062 52.7305C106.18 53.082 106.35 53.3896 106.572 53.6533C106.795 53.917 107.064 54.125 107.381 54.2773C107.697 54.4238 108.058 54.4971 108.462 54.4971C108.972 54.4971 109.426 54.3945 109.824 54.1895C110.223 53.9844 110.568 53.6943 110.861 53.3193L111.978 54.4004C111.772 54.6992 111.506 54.9863 111.178 55.2617C110.85 55.5312 110.448 55.751 109.974 55.9209C109.505 56.0908 108.96 56.1758 108.339 56.1758ZM119.132 53.4248C119.132 53.2139 119.079 53.0234 118.974 52.8535C118.868 52.6777 118.666 52.5195 118.367 52.3789C118.074 52.2383 117.641 52.1094 117.066 51.9922C116.562 51.8809 116.1 51.749 115.678 51.5967C115.262 51.4385 114.904 51.248 114.605 51.0254C114.307 50.8027 114.075 50.5391 113.911 50.2344C113.747 49.9297 113.665 49.5781 113.665 49.1797C113.665 48.793 113.75 48.4268 113.92 48.0811C114.09 47.7354 114.333 47.4307 114.649 47.167C114.966 46.9033 115.35 46.6953 115.801 46.543C116.258 46.3906 116.768 46.3145 117.33 46.3145C118.127 46.3145 118.81 46.4492 119.378 46.7188C119.952 46.9824 120.392 47.3428 120.696 47.7998C121.001 48.251 121.153 48.7607 121.153 49.3291H119.035C119.035 49.0771 118.971 48.8428 118.842 48.626C118.719 48.4033 118.531 48.2246 118.279 48.0898C118.027 47.9492 117.711 47.8789 117.33 47.8789C116.967 47.8789 116.665 47.9375 116.425 48.0547C116.19 48.166 116.015 48.3125 115.897 48.4941C115.786 48.6758 115.73 48.875 115.73 49.0918C115.73 49.25 115.76 49.3936 115.818 49.5225C115.883 49.6455 115.988 49.7598 116.135 49.8652C116.281 49.9648 116.48 50.0586 116.732 50.1465C116.99 50.2344 117.312 50.3193 117.699 50.4014C118.426 50.5537 119.05 50.75 119.571 50.9902C120.099 51.2246 120.503 51.5293 120.784 51.9043C121.065 52.2734 121.206 52.7422 121.206 53.3105C121.206 53.7324 121.115 54.1191 120.934 54.4707C120.758 54.8164 120.5 55.1182 120.16 55.376C119.82 55.6279 119.413 55.8242 118.938 55.9648C118.47 56.1055 117.942 56.1758 117.356 56.1758C116.495 56.1758 115.766 56.0234 115.168 55.7188C114.57 55.4082 114.116 55.0127 113.806 54.5322C113.501 54.0459 113.349 53.542 113.349 53.0205H115.396C115.42 53.4131 115.528 53.7266 115.722 53.9609C115.921 54.1895 116.167 54.3564 116.46 54.4619C116.759 54.5615 117.066 54.6113 117.383 54.6113C117.764 54.6113 118.083 54.5615 118.341 54.4619C118.599 54.3564 118.795 54.2158 118.93 54.04C119.064 53.8584 119.132 53.6533 119.132 53.4248ZM26.1611 72.2275H22.8301V70.4785H26.1611C26.7412 70.4785 27.21 70.3848 27.5674 70.1973C27.9248 70.0098 28.1855 69.752 28.3496 69.4238C28.5195 69.0898 28.6045 68.709 28.6045 68.2812C28.6045 67.877 28.5195 67.499 28.3496 67.1475C28.1855 66.79 27.9248 66.5029 27.5674 66.2861C27.21 66.0693 26.7412 65.9609 26.1611 65.9609H23.5068V77H21.3008V64.2031H26.1611C27.1514 64.2031 27.9922 64.3789 28.6836 64.7305C29.3809 65.0762 29.9111 65.5566 30.2744 66.1719C30.6377 66.7812 30.8193 67.4785 30.8193 68.2637C30.8193 69.0898 30.6377 69.7988 30.2744 70.3906C29.9111 70.9824 29.3809 71.4365 28.6836 71.7529C27.9922 72.0693 27.1514 72.2275 26.1611 72.2275ZM36.6553 77.1758C35.9521 77.1758 35.3164 77.0615 34.748 76.833C34.1855 76.5986 33.7051 76.2734 33.3066 75.8574C32.9141 75.4414 32.6123 74.9521 32.4014 74.3896C32.1904 73.8271 32.085 73.2207 32.085 72.5703V72.2188C32.085 71.4746 32.1934 70.8008 32.4102 70.1973C32.627 69.5938 32.9287 69.0781 33.3154 68.6504C33.7021 68.2168 34.1592 67.8857 34.6865 67.6572C35.2139 67.4287 35.7852 67.3145 36.4004 67.3145C37.0801 67.3145 37.6748 67.4287 38.1846 67.6572C38.6943 67.8857 39.1162 68.208 39.4502 68.624C39.79 69.0342 40.042 69.5234 40.2061 70.0918C40.376 70.6602 40.4609 71.2871 40.4609 71.9727V72.8779H33.1133V71.3574H38.3691V71.1904C38.3574 70.8096 38.2812 70.4521 38.1406 70.1182C38.0059 69.7842 37.7979 69.5146 37.5166 69.3096C37.2354 69.1045 36.8604 69.002 36.3916 69.002C36.04 69.002 35.7266 69.0781 35.4512 69.2305C35.1816 69.377 34.9561 69.5908 34.7744 69.8721C34.5928 70.1533 34.4521 70.4932 34.3525 70.8916C34.2588 71.2842 34.2119 71.7266 34.2119 72.2188V72.5703C34.2119 72.9863 34.2676 73.373 34.3789 73.7305C34.4961 74.082 34.666 74.3896 34.8887 74.6533C35.1113 74.917 35.3809 75.125 35.6973 75.2773C36.0137 75.4238 36.374 75.4971 36.7783 75.4971C37.2881 75.4971 37.7422 75.3945 38.1406 75.1895C38.5391 74.9844 38.8848 74.6943 39.1777 74.3193L40.2939 75.4004C40.0889 75.6992 39.8223 75.9863 39.4941 76.2617C39.166 76.5312 38.7646 76.751 38.29 76.9209C37.8213 77.0908 37.2764 77.1758 36.6553 77.1758ZM47.4482 74.4248C47.4482 74.2139 47.3955 74.0234 47.29 73.8535C47.1846 73.6777 46.9824 73.5195 46.6836 73.3789C46.3906 73.2383 45.957 73.1094 45.3828 72.9922C44.8789 72.8809 44.416 72.749 43.9941 72.5967C43.5781 72.4385 43.2207 72.248 42.9219 72.0254C42.623 71.8027 42.3916 71.5391 42.2275 71.2344C42.0635 70.9297 41.9814 70.5781 41.9814 70.1797C41.9814 69.793 42.0664 69.4268 42.2363 69.0811C42.4062 68.7354 42.6494 68.4307 42.9658 68.167C43.2822 67.9033 43.666 67.6953 44.1172 67.543C44.5742 67.3906 45.084 67.3145 45.6465 67.3145C46.4434 67.3145 47.126 67.4492 47.6943 67.7188C48.2686 67.9824 48.708 68.3428 49.0127 68.7998C49.3174 69.251 49.4697 69.7607 49.4697 70.3291H47.3516C47.3516 70.0771 47.2871 69.8428 47.1582 69.626C47.0352 69.4033 46.8477 69.2246 46.5957 69.0898C46.3438 68.9492 46.0273 68.8789 45.6465 68.8789C45.2832 68.8789 44.9814 68.9375 44.7412 69.0547C44.5068 69.166 44.3311 69.3125 44.2139 69.4941C44.1025 69.6758 44.0469 69.875 44.0469 70.0918C44.0469 70.25 44.0762 70.3936 44.1348 70.5225C44.1992 70.6455 44.3047 70.7598 44.4512 70.8652C44.5977 70.9648 44.7969 71.0586 45.0488 71.1465C45.3066 71.2344 45.6289 71.3193 46.0156 71.4014C46.7422 71.5537 47.3662 71.75 47.8877 71.9902C48.415 72.2246 48.8193 72.5293 49.1006 72.9043C49.3818 73.2734 49.5225 73.7422 49.5225 74.3105C49.5225 74.7324 49.4316 75.1191 49.25 75.4707C49.0742 75.8164 48.8164 76.1182 48.4766 76.376C48.1367 76.6279 47.7295 76.8242 47.2549 76.9648C46.7861 77.1055 46.2588 77.1758 45.6729 77.1758C44.8115 77.1758 44.082 77.0234 43.4844 76.7188C42.8867 76.4082 42.4326 76.0127 42.1221 75.5322C41.8174 75.0459 41.665 74.542 41.665 74.0205H43.7129C43.7363 74.4131 43.8447 74.7266 44.0381 74.9609C44.2373 75.1895 44.4834 75.3564 44.7764 75.4619C45.0752 75.5615 45.3828 75.6113 45.6992 75.6113C46.0801 75.6113 46.3994 75.5615 46.6572 75.4619C46.915 75.3564 47.1113 75.2158 47.2461 75.04C47.3809 74.8584 47.4482 74.6533 47.4482 74.4248ZM56.7119 74.4248C56.7119 74.2139 56.6592 74.0234 56.5537 73.8535C56.4482 73.6777 56.2461 73.5195 55.9473 73.3789C55.6543 73.2383 55.2207 73.1094 54.6465 72.9922C54.1426 72.8809 53.6797 72.749 53.2578 72.5967C52.8418 72.4385 52.4844 72.248 52.1855 72.0254C51.8867 71.8027 51.6553 71.5391 51.4912 71.2344C51.3271 70.9297 51.2451 70.5781 51.2451 70.1797C51.2451 69.793 51.3301 69.4268 51.5 69.0811C51.6699 68.7354 51.9131 68.4307 52.2295 68.167C52.5459 67.9033 52.9297 67.6953 53.3809 67.543C53.8379 67.3906 54.3477 67.3145 54.9102 67.3145C55.707 67.3145 56.3896 67.4492 56.958 67.7188C57.5322 67.9824 57.9717 68.3428 58.2764 68.7998C58.5811 69.251 58.7334 69.7607 58.7334 70.3291H56.6152C56.6152 70.0771 56.5508 69.8428 56.4219 69.626C56.2988 69.4033 56.1113 69.2246 55.8594 69.0898C55.6074 68.9492 55.291 68.8789 54.9102 68.8789C54.5469 68.8789 54.2451 68.9375 54.0049 69.0547C53.7705 69.166 53.5947 69.3125 53.4775 69.4941C53.3662 69.6758 53.3105 69.875 53.3105 70.0918C53.3105 70.25 53.3398 70.3936 53.3984 70.5225C53.4629 70.6455 53.5684 70.7598 53.7148 70.8652C53.8613 70.9648 54.0605 71.0586 54.3125 71.1465C54.5703 71.2344 54.8926 71.3193 55.2793 71.4014C56.0059 71.5537 56.6299 71.75 57.1514 71.9902C57.6787 72.2246 58.083 72.5293 58.3643 72.9043C58.6455 73.2734 58.7861 73.7422 58.7861 74.3105C58.7861 74.7324 58.6953 75.1191 58.5137 75.4707C58.3379 75.8164 58.0801 76.1182 57.7402 76.376C57.4004 76.6279 56.9932 76.8242 56.5186 76.9648C56.0498 77.1055 55.5225 77.1758 54.9365 77.1758C54.0752 77.1758 53.3457 77.0234 52.748 76.7188C52.1504 76.4082 51.6963 76.0127 51.3857 75.5322C51.0811 75.0459 50.9287 74.542 50.9287 74.0205H52.9766C53 74.4131 53.1084 74.7266 53.3018 74.9609C53.501 75.1895 53.7471 75.3564 54.04 75.4619C54.3389 75.5615 54.6465 75.6113 54.9629 75.6113C55.3438 75.6113 55.6631 75.5615 55.9209 75.4619C56.1787 75.3564 56.375 75.2158 56.5098 75.04C56.6445 74.8584 56.7119 74.6533 56.7119 74.4248ZM60.2363 72.3506V72.1484C60.2363 71.4629 60.3359 70.8271 60.5352 70.2412C60.7344 69.6494 61.0215 69.1367 61.3965 68.7031C61.7773 68.2637 62.2402 67.9238 62.7852 67.6836C63.3359 67.4375 63.957 67.3145 64.6484 67.3145C65.3457 67.3145 65.9668 67.4375 66.5117 67.6836C67.0625 67.9238 67.5283 68.2637 67.9092 68.7031C68.29 69.1367 68.5801 69.6494 68.7793 70.2412C68.9785 70.8271 69.0781 71.4629 69.0781 72.1484V72.3506C69.0781 73.0361 68.9785 73.6719 68.7793 74.2578C68.5801 74.8438 68.29 75.3564 67.9092 75.7959C67.5283 76.2295 67.0654 76.5693 66.5205 76.8154C65.9756 77.0557 65.3574 77.1758 64.666 77.1758C63.9688 77.1758 63.3447 77.0557 62.7939 76.8154C62.249 76.5693 61.7861 76.2295 61.4053 75.7959C61.0244 75.3564 60.7344 74.8438 60.5352 74.2578C60.3359 73.6719 60.2363 73.0361 60.2363 72.3506ZM62.3545 72.1484V72.3506C62.3545 72.7783 62.3984 73.1826 62.4863 73.5635C62.5742 73.9443 62.7119 74.2783 62.8994 74.5654C63.0869 74.8525 63.3271 75.0781 63.6201 75.2422C63.9131 75.4062 64.2617 75.4883 64.666 75.4883C65.0586 75.4883 65.3984 75.4062 65.6855 75.2422C65.9785 75.0781 66.2188 74.8525 66.4062 74.5654C66.5938 74.2783 66.7314 73.9443 66.8193 73.5635C66.9131 73.1826 66.96 72.7783 66.96 72.3506V72.1484C66.96 71.7266 66.9131 71.3281 66.8193 70.9531C66.7314 70.5723 66.5908 70.2354 66.3975 69.9424C66.21 69.6494 65.9697 69.4209 65.6768 69.2568C65.3896 69.0869 65.0469 69.002 64.6484 69.002C64.25 69.002 63.9043 69.0869 63.6113 69.2568C63.3242 69.4209 63.0869 69.6494 62.8994 69.9424C62.7119 70.2354 62.5742 70.5723 62.4863 70.9531C62.3984 71.3281 62.3545 71.7266 62.3545 72.1484ZM76.2148 75.0928V70.5576C76.2148 70.2178 76.1533 69.9248 76.0303 69.6787C75.9072 69.4326 75.7197 69.2422 75.4678 69.1074C75.2217 68.9727 74.9111 68.9053 74.5361 68.9053C74.1904 68.9053 73.8916 68.9639 73.6396 69.0811C73.3877 69.1982 73.1914 69.3564 73.0508 69.5557C72.9102 69.7549 72.8398 69.9805 72.8398 70.2324H70.7305C70.7305 69.8574 70.8213 69.4941 71.0029 69.1426C71.1846 68.791 71.4482 68.4775 71.7939 68.2021C72.1396 67.9268 72.5527 67.71 73.0332 67.5518C73.5137 67.3936 74.0527 67.3145 74.6504 67.3145C75.3652 67.3145 75.998 67.4346 76.5488 67.6748C77.1055 67.915 77.542 68.2783 77.8584 68.7646C78.1807 69.2451 78.3418 69.8486 78.3418 70.5752V74.8027C78.3418 75.2363 78.3711 75.626 78.4297 75.9717C78.4941 76.3115 78.585 76.6074 78.7021 76.8594V77H76.5312C76.4316 76.7715 76.3525 76.4814 76.2939 76.1299C76.2412 75.7725 76.2148 75.4268 76.2148 75.0928ZM76.5225 71.2168L76.54 72.5264H75.0195C74.627 72.5264 74.2812 72.5645 73.9824 72.6406C73.6836 72.7109 73.4346 72.8164 73.2354 72.957C73.0361 73.0977 72.8867 73.2676 72.7871 73.4668C72.6875 73.666 72.6377 73.8916 72.6377 74.1436C72.6377 74.3955 72.6963 74.627 72.8135 74.8379C72.9307 75.043 73.1006 75.2041 73.3232 75.3213C73.5518 75.4385 73.8271 75.4971 74.1494 75.4971C74.583 75.4971 74.9609 75.4092 75.2832 75.2334C75.6113 75.0518 75.8691 74.832 76.0566 74.5742C76.2441 74.3105 76.3438 74.0615 76.3555 73.8271L77.041 74.7676C76.9707 75.0078 76.8506 75.2656 76.6807 75.541C76.5107 75.8164 76.2881 76.0801 76.0127 76.332C75.7432 76.5781 75.418 76.7803 75.0371 76.9385C74.6621 77.0967 74.2285 77.1758 73.7363 77.1758C73.1152 77.1758 72.5615 77.0527 72.0752 76.8066C71.5889 76.5547 71.208 76.2178 70.9326 75.7959C70.6572 75.3682 70.5195 74.8848 70.5195 74.3457C70.5195 73.8418 70.6133 73.3965 70.8008 73.0098C70.9941 72.6172 71.2754 72.2891 71.6445 72.0254C72.0195 71.7617 72.4766 71.5625 73.0156 71.4277C73.5547 71.2871 74.1699 71.2168 74.8613 71.2168H76.5225ZM82.8242 67.4902V77H80.6973V67.4902H82.8242ZM80.5566 64.9941C80.5566 64.6719 80.6621 64.4053 80.873 64.1943C81.0898 63.9775 81.3887 63.8691 81.7695 63.8691C82.1445 63.8691 82.4404 63.9775 82.6572 64.1943C82.874 64.4053 82.9824 64.6719 82.9824 64.9941C82.9824 65.3105 82.874 65.5742 82.6572 65.7852C82.4404 65.9961 82.1445 66.1016 81.7695 66.1016C81.3887 66.1016 81.0898 65.9961 80.873 65.7852C80.6621 65.5742 80.5566 65.3105 80.5566 64.9941ZM90.4795 74.4248C90.4795 74.2139 90.4268 74.0234 90.3213 73.8535C90.2158 73.6777 90.0137 73.5195 89.7148 73.3789C89.4219 73.2383 88.9883 73.1094 88.4141 72.9922C87.9102 72.8809 87.4473 72.749 87.0254 72.5967C86.6094 72.4385 86.252 72.248 85.9531 72.0254C85.6543 71.8027 85.4229 71.5391 85.2588 71.2344C85.0947 70.9297 85.0127 70.5781 85.0127 70.1797C85.0127 69.793 85.0977 69.4268 85.2676 69.0811C85.4375 68.7354 85.6807 68.4307 85.9971 68.167C86.3135 67.9033 86.6973 67.6953 87.1484 67.543C87.6055 67.3906 88.1152 67.3145 88.6777 67.3145C89.4746 67.3145 90.1572 67.4492 90.7256 67.7188C91.2998 67.9824 91.7393 68.3428 92.0439 68.7998C92.3486 69.251 92.501 69.7607 92.501 70.3291H90.3828C90.3828 70.0771 90.3184 69.8428 90.1895 69.626C90.0664 69.4033 89.8789 69.2246 89.627 69.0898C89.375 68.9492 89.0586 68.8789 88.6777 68.8789C88.3145 68.8789 88.0127 68.9375 87.7725 69.0547C87.5381 69.166 87.3623 69.3125 87.2451 69.4941C87.1338 69.6758 87.0781 69.875 87.0781 70.0918C87.0781 70.25 87.1074 70.3936 87.166 70.5225C87.2305 70.6455 87.3359 70.7598 87.4824 70.8652C87.6289 70.9648 87.8281 71.0586 88.0801 71.1465C88.3379 71.2344 88.6602 71.3193 89.0469 71.4014C89.7734 71.5537 90.3975 71.75 90.9189 71.9902C91.4463 72.2246 91.8506 72.5293 92.1318 72.9043C92.4131 73.2734 92.5537 73.7422 92.5537 74.3105C92.5537 74.7324 92.4629 75.1191 92.2812 75.4707C92.1055 75.8164 91.8477 76.1182 91.5078 76.376C91.168 76.6279 90.7607 76.8242 90.2861 76.9648C89.8174 77.1055 89.29 77.1758 88.7041 77.1758C87.8428 77.1758 87.1133 77.0234 86.5156 76.7188C85.918 76.4082 85.4639 76.0127 85.1533 75.5322C84.8486 75.0459 84.6963 74.542 84.6963 74.0205H86.7441C86.7676 74.4131 86.876 74.7266 87.0693 74.9609C87.2686 75.1895 87.5146 75.3564 87.8076 75.4619C88.1064 75.5615 88.4141 75.6113 88.7305 75.6113C89.1113 75.6113 89.4307 75.5615 89.6885 75.4619C89.9463 75.3564 90.1426 75.2158 90.2773 75.04C90.4121 74.8584 90.4795 74.6533 90.4795 74.4248Z" fill="black"/>
<path d="M41.6488 112.875C40.2209 110.407 38.0206 108.637 35.4528 107.797C36.723 107.041 37.7098 105.889 38.2618 104.518C38.8137 103.147 38.9003 101.632 38.5082 100.207C38.1161 98.7817 37.267 97.5245 36.0912 96.6286C34.9155 95.7327 33.4782 95.2474 32 95.2474C30.5218 95.2474 29.0845 95.7327 27.9088 96.6286C26.7331 97.5245 25.8839 98.7817 25.4918 100.207C25.0997 101.632 25.1863 103.147 25.7382 104.518C26.2902 105.889 27.277 107.041 28.5472 107.797C25.9794 108.636 23.7791 110.406 22.3513 112.875C22.2989 112.96 22.2642 113.055 22.2491 113.154C22.2341 113.253 22.239 113.354 22.2636 113.452C22.2883 113.549 22.3321 113.64 22.3925 113.72C22.4529 113.799 22.5287 113.866 22.6155 113.917C22.7022 113.967 22.7981 113.999 22.8975 114.011C22.9968 114.024 23.0977 114.016 23.1941 113.989C23.2905 113.962 23.3805 113.916 23.4587 113.853C23.537 113.791 23.6019 113.713 23.6497 113.625C25.4159 110.572 28.5378 108.75 32 108.75C35.4622 108.75 38.5841 110.572 40.3503 113.625C40.3981 113.713 40.4631 113.791 40.5413 113.853C40.6196 113.916 40.7095 113.962 40.8059 113.989C40.9023 114.016 41.0032 114.024 41.1026 114.011C41.2019 113.999 41.2978 113.967 41.3845 113.917C41.4713 113.866 41.5471 113.799 41.6075 113.72C41.6679 113.64 41.7118 113.549 41.7364 113.452C41.761 113.354 41.766 113.253 41.7509 113.154C41.7358 113.055 41.7011 112.96 41.6488 112.875ZM26.75 102C26.75 100.962 27.0579 99.9466 27.6348 99.0832C28.2117 98.2199 29.0316 97.547 29.9909 97.1496C30.9502 96.7523 32.0058 96.6483 33.0242 96.8509C34.0426 97.0534 34.9781 97.5535 35.7123 98.2877C36.4465 99.0219 36.9466 99.9574 37.1491 100.976C37.3517 101.994 37.2477 103.05 36.8504 104.009C36.453 104.968 35.7801 105.788 34.9168 106.365C34.0534 106.942 33.0384 107.25 32 107.25C30.6081 107.248 29.2736 106.695 28.2893 105.711C27.3051 104.726 26.7515 103.392 26.75 102Z" fill="black"/>
</g>
<defs>
<filter id="filter0_d_19_143" x="0" y="0" width="142" height="139" filterUnits="userSpaceOnUse" color-interpolation-filters="sRGB">
<feFlood flood-opacity="0" result="BackgroundImageFix"/>
<feColorMatrix in="SourceAlpha" type="matrix" values="0 0 0 0 0 0 0 0 0 0 0 0 0 0 0 0 0 0 127 0" result="hardAlpha"/>
<feOffset dy="2"/>
<feGaussianBlur stdDeviation="2"/>
<feComposite in2="hardAlpha" operator="out"/>
<feColorMatrix type="matrix" values="0 0 0 0 0 0 0 0 0 0 0 0 0 0 0 0 0 0 0.25 0"/>
<feBlend mode="normal" in2="BackgroundImageFix" result="effect1_dropShadow_19_143"/>
<feBlend mode="normal" in="SourceGraphic" in2="effect1_dropShadow_19_143" result="shape"/>
</filter>
</defs>
</svg>
