<svg width="142" height="139" viewBox="0 0 142 139" fill="none" xmlns="http://www.w3.org/2000/svg">
<g filter="url(#filter0_d_19_155)">
<rect x="4" y="2" width="134" height="131" rx="12" fill="white" shape-rendering="crispEdges"/>
<path d="M37.6768 41.251V43H30.8828V41.251H37.6768ZM31.5068 30.2031V43H29.3008V30.2031H31.5068ZM36.7891 35.5469V37.2695H30.8828V35.5469H36.7891ZM37.6328 30.2031V31.9609H30.8828V30.2031H37.6328ZM40.8848 33.4902L42.6953 36.6455L44.541 33.4902H46.8701L43.9873 38.1572L46.9844 43H44.6553L42.7217 39.7129L40.7881 43H38.4502L41.4385 38.1572L38.5645 33.4902H40.8848ZM52.0293 41.4883C52.375 41.4883 52.6855 41.4209 52.9609 41.2861C53.2422 41.1455 53.4678 40.9521 53.6377 40.7061C53.8135 40.46 53.9102 40.1758 53.9277 39.8535H55.9229C55.9111 40.4688 55.7295 41.0283 55.3779 41.5322C55.0264 42.0361 54.5605 42.4375 53.9805 42.7363C53.4004 43.0293 52.7588 43.1758 52.0557 43.1758C51.3291 43.1758 50.6963 43.0527 50.1572 42.8066C49.6182 42.5547 49.1699 42.209 48.8125 41.7695C48.4551 41.3301 48.1855 40.8232 48.0039 40.249C47.8281 39.6748 47.7402 39.0596 47.7402 38.4033V38.0957C47.7402 37.4395 47.8281 36.8242 48.0039 36.25C48.1855 35.6699 48.4551 35.1602 48.8125 34.7207C49.1699 34.2812 49.6182 33.9385 50.1572 33.6924C50.6963 33.4404 51.3262 33.3145 52.0469 33.3145C52.8086 33.3145 53.4766 33.4668 54.0508 33.7715C54.625 34.0703 55.0762 34.4893 55.4043 35.0283C55.7383 35.5615 55.9111 36.1826 55.9229 36.8916H53.9277C53.9102 36.54 53.8223 36.2236 53.6641 35.9424C53.5117 35.6553 53.2949 35.4268 53.0137 35.2568C52.7383 35.0869 52.4072 35.002 52.0205 35.002C51.5928 35.002 51.2383 35.0898 50.957 35.2656C50.6758 35.4355 50.4561 35.6699 50.2979 35.9688C50.1396 36.2617 50.0254 36.5928 49.9551 36.9619C49.8906 37.3252 49.8584 37.7031 49.8584 38.0957V38.4033C49.8584 38.7959 49.8906 39.1768 49.9551 39.5459C50.0195 39.915 50.1309 40.2461 50.2891 40.5391C50.4531 40.8262 50.6758 41.0576 50.957 41.2334C51.2383 41.4033 51.5957 41.4883 52.0293 41.4883ZM59.8164 29.5V43H57.6895V29.5H59.8164ZM67.8584 40.7588V33.4902H69.9854V43H67.9814L67.8584 40.7588ZM68.1572 38.7812L68.8691 38.7637C68.8691 39.4023 68.7988 39.9912 68.6582 40.5303C68.5176 41.0635 68.3008 41.5293 68.0078 41.9277C67.7148 42.3203 67.3398 42.6279 66.8828 42.8506C66.4258 43.0674 65.8779 43.1758 65.2393 43.1758C64.7764 43.1758 64.3516 43.1084 63.9648 42.9736C63.5781 42.8389 63.2441 42.6309 62.9629 42.3496C62.6875 42.0684 62.4736 41.7021 62.3213 41.251C62.1689 40.7998 62.0928 40.2607 62.0928 39.6338V33.4902H64.2109V39.6514C64.2109 39.9971 64.252 40.2871 64.334 40.5215C64.416 40.75 64.5273 40.9346 64.668 41.0752C64.8086 41.2158 64.9727 41.3154 65.1602 41.374C65.3477 41.4326 65.5469 41.4619 65.7578 41.4619C66.3613 41.4619 66.8359 41.3447 67.1816 41.1104C67.5332 40.8701 67.7822 40.5479 67.9287 40.1436C68.0811 39.7393 68.1572 39.2852 68.1572 38.7812ZM74.4238 33.4902V43H72.2969V33.4902H74.4238ZM72.1562 30.9941C72.1562 30.6719 72.2617 30.4053 72.4727 30.1943C72.6895 29.9775 72.9883 29.8691 73.3691 29.8691C73.7441 29.8691 74.04 29.9775 74.2568 30.1943C74.4736 30.4053 74.582 30.6719 74.582 30.9941C74.582 31.3105 74.4736 31.5742 74.2568 31.7852C74.04 31.9961 73.7441 32.1016 73.3691 32.1016C72.9883 32.1016 72.6895 31.9961 72.4727 31.7852C72.2617 31.5742 72.1562 31.3105 72.1562 30.9941ZM78.8711 35.3008V43H76.7529V33.4902H78.7744L78.8711 35.3008ZM81.7803 33.4287L81.7627 35.3975C81.6338 35.374 81.4932 35.3564 81.3408 35.3447C81.1943 35.333 81.0479 35.3271 80.9014 35.3271C80.5381 35.3271 80.2188 35.3799 79.9434 35.4854C79.668 35.585 79.4365 35.7314 79.249 35.9248C79.0674 36.1123 78.9268 36.3408 78.8271 36.6104C78.7275 36.8799 78.6689 37.1816 78.6514 37.5156L78.168 37.5508C78.168 36.9531 78.2266 36.3994 78.3438 35.8896C78.4609 35.3799 78.6367 34.9316 78.8711 34.5449C79.1113 34.1582 79.4102 33.8564 79.7676 33.6396C80.1309 33.4229 80.5498 33.3145 81.0244 33.3145C81.1533 33.3145 81.291 33.3262 81.4375 33.3496C81.5898 33.373 81.7041 33.3994 81.7803 33.4287ZM36.8594 59.834H39.0566C38.9863 60.6719 38.752 61.4189 38.3535 62.0752C37.9551 62.7256 37.3955 63.2383 36.6748 63.6133C35.9541 63.9883 35.0781 64.1758 34.0469 64.1758C33.2559 64.1758 32.5439 64.0352 31.9111 63.7539C31.2783 63.4668 30.7363 63.0625 30.2852 62.541C29.834 62.0137 29.4883 61.3779 29.248 60.6338C29.0137 59.8896 28.8965 59.0576 28.8965 58.1377V57.0742C28.8965 56.1543 29.0166 55.3223 29.2568 54.5781C29.5029 53.834 29.8545 53.1982 30.3115 52.6709C30.7686 52.1377 31.3164 51.7305 31.9551 51.4492C32.5996 51.168 33.3232 51.0273 34.126 51.0273C35.1455 51.0273 36.0068 51.2148 36.71 51.5898C37.4131 51.9648 37.958 52.4834 38.3447 53.1455C38.7373 53.8076 38.9775 54.5664 39.0654 55.4219H36.8682C36.8096 54.8711 36.6807 54.3994 36.4814 54.0068C36.2881 53.6143 36.001 53.3154 35.6201 53.1104C35.2393 52.8994 34.7412 52.7939 34.126 52.7939C33.6221 52.7939 33.1826 52.8877 32.8076 53.0752C32.4326 53.2627 32.1191 53.5381 31.8672 53.9014C31.6152 54.2646 31.4248 54.7129 31.2959 55.2461C31.1729 55.7734 31.1113 56.377 31.1113 57.0566V58.1377C31.1113 58.7822 31.167 59.3682 31.2783 59.8955C31.3955 60.417 31.5713 60.8652 31.8057 61.2402C32.0459 61.6152 32.3506 61.9053 32.7197 62.1104C33.0889 62.3154 33.5312 62.418 34.0469 62.418C34.6738 62.418 35.1807 62.3184 35.5674 62.1191C35.96 61.9199 36.2559 61.6299 36.4551 61.249C36.6602 60.8623 36.7949 60.3906 36.8594 59.834ZM40.4453 59.3506V59.1484C40.4453 58.4629 40.5449 57.8271 40.7441 57.2412C40.9434 56.6494 41.2305 56.1367 41.6055 55.7031C41.9863 55.2637 42.4492 54.9238 42.9941 54.6836C43.5449 54.4375 44.166 54.3145 44.8574 54.3145C45.5547 54.3145 46.1758 54.4375 46.7207 54.6836C47.2715 54.9238 47.7373 55.2637 48.1182 55.7031C48.499 56.1367 48.7891 56.6494 48.9883 57.2412C49.1875 57.8271 49.2871 58.4629 49.2871 59.1484V59.3506C49.2871 60.0361 49.1875 60.6719 48.9883 61.2578C48.7891 61.8438 48.499 62.3564 48.1182 62.7959C47.7373 63.2295 47.2744 63.5693 46.7295 63.8154C46.1846 64.0557 45.5664 64.1758 44.875 64.1758C44.1777 64.1758 43.5537 64.0557 43.0029 63.8154C42.458 63.5693 41.9951 63.2295 41.6143 62.7959C41.2334 62.3564 40.9434 61.8438 40.7441 61.2578C40.5449 60.6719 40.4453 60.0361 40.4453 59.3506ZM42.5635 59.1484V59.3506C42.5635 59.7783 42.6074 60.1826 42.6953 60.5635C42.7832 60.9443 42.9209 61.2783 43.1084 61.5654C43.2959 61.8525 43.5361 62.0781 43.8291 62.2422C44.1221 62.4062 44.4707 62.4883 44.875 62.4883C45.2676 62.4883 45.6074 62.4062 45.8945 62.2422C46.1875 62.0781 46.4277 61.8525 46.6152 61.5654C46.8027 61.2783 46.9404 60.9443 47.0283 60.5635C47.1221 60.1826 47.1689 59.7783 47.1689 59.3506V59.1484C47.1689 58.7266 47.1221 58.3281 47.0283 57.9531C46.9404 57.5723 46.7998 57.2354 46.6064 56.9424C46.4189 56.6494 46.1787 56.4209 45.8857 56.2568C45.5986 56.0869 45.2559 56.002 44.8574 56.002C44.459 56.002 44.1133 56.0869 43.8203 56.2568C43.5332 56.4209 43.2959 56.6494 43.1084 56.9424C42.9209 57.2354 42.7832 57.5723 42.6953 57.9531C42.6074 58.3281 42.5635 58.7266 42.5635 59.1484ZM53.1631 56.5205V64H51.0449V54.4902H53.04L53.1631 56.5205ZM52.7852 58.8936L52.0996 58.8848C52.1055 58.2109 52.1992 57.5928 52.3809 57.0303C52.5684 56.4678 52.8262 55.9844 53.1543 55.5801C53.4883 55.1758 53.8867 54.8652 54.3496 54.6484C54.8125 54.4258 55.3281 54.3145 55.8965 54.3145C56.3535 54.3145 56.7666 54.3789 57.1357 54.5078C57.5107 54.6309 57.8301 54.833 58.0938 55.1143C58.3633 55.3955 58.5684 55.7617 58.709 56.2129C58.8496 56.6582 58.9199 57.2061 58.9199 57.8564V64H56.793V57.8477C56.793 57.3906 56.7256 57.0303 56.5908 56.7666C56.4619 56.4971 56.2715 56.3066 56.0195 56.1953C55.7734 56.0781 55.4658 56.0195 55.0967 56.0195C54.7334 56.0195 54.4082 56.0957 54.1211 56.248C53.834 56.4004 53.5908 56.6084 53.3916 56.8721C53.1982 57.1357 53.0488 57.4404 52.9434 57.7861C52.8379 58.1318 52.7852 58.501 52.7852 58.8936ZM65.4414 54.4902V56.0371H60.0801V54.4902H65.4414ZM61.627 52.1611H63.7451V61.3721C63.7451 61.665 63.7861 61.8906 63.8682 62.0488C63.9561 62.2012 64.0762 62.3037 64.2285 62.3564C64.3809 62.4092 64.5596 62.4355 64.7646 62.4355C64.9111 62.4355 65.0518 62.4268 65.1865 62.4092C65.3213 62.3916 65.4297 62.374 65.5117 62.3564L65.5205 63.9736C65.3447 64.0264 65.1396 64.0732 64.9053 64.1143C64.6768 64.1553 64.4131 64.1758 64.1143 64.1758C63.6279 64.1758 63.1973 64.0908 62.8223 63.9209C62.4473 63.7451 62.1543 63.4609 61.9434 63.0684C61.7324 62.6758 61.627 62.1543 61.627 61.5039V52.1611ZM72.4375 62.0928V57.5576C72.4375 57.2178 72.376 56.9248 72.2529 56.6787C72.1299 56.4326 71.9424 56.2422 71.6904 56.1074C71.4443 55.9727 71.1338 55.9053 70.7588 55.9053C70.4131 55.9053 70.1143 55.9639 69.8623 56.0811C69.6104 56.1982 69.4141 56.3564 69.2734 56.5557C69.1328 56.7549 69.0625 56.9805 69.0625 57.2324H66.9531C66.9531 56.8574 67.0439 56.4941 67.2256 56.1426C67.4072 55.791 67.6709 55.4775 68.0166 55.2021C68.3623 54.9268 68.7754 54.71 69.2559 54.5518C69.7363 54.3936 70.2754 54.3145 70.873 54.3145C71.5879 54.3145 72.2207 54.4346 72.7715 54.6748C73.3281 54.915 73.7646 55.2783 74.0811 55.7646C74.4033 56.2451 74.5645 56.8486 74.5645 57.5752V61.8027C74.5645 62.2363 74.5938 62.626 74.6523 62.9717C74.7168 63.3115 74.8076 63.6074 74.9248 63.8594V64H72.7539C72.6543 63.7715 72.5752 63.4814 72.5166 63.1299C72.4639 62.7725 72.4375 62.4268 72.4375 62.0928ZM72.7451 58.2168L72.7627 59.5264H71.2422C70.8496 59.5264 70.5039 59.5645 70.2051 59.6406C69.9062 59.7109 69.6572 59.8164 69.458 59.957C69.2588 60.0977 69.1094 60.2676 69.0098 60.4668C68.9102 60.666 68.8604 60.8916 68.8604 61.1436C68.8604 61.3955 68.9189 61.627 69.0361 61.8379C69.1533 62.043 69.3232 62.2041 69.5459 62.3213C69.7744 62.4385 70.0498 62.4971 70.3721 62.4971C70.8057 62.4971 71.1836 62.4092 71.5059 62.2334C71.834 62.0518 72.0918 61.832 72.2793 61.5742C72.4668 61.3105 72.5664 61.0615 72.5781 60.8271L73.2637 61.7676C73.1934 62.0078 73.0732 62.2656 72.9033 62.541C72.7334 62.8164 72.5107 63.0801 72.2354 63.332C71.9658 63.5781 71.6406 63.7803 71.2598 63.9385C70.8848 64.0967 70.4512 64.1758 69.959 64.1758C69.3379 64.1758 68.7842 64.0527 68.2979 63.8066C67.8115 63.5547 67.4307 63.2178 67.1553 62.7959C66.8799 62.3682 66.7422 61.8848 66.7422 61.3457C66.7422 60.8418 66.8359 60.3965 67.0234 60.0098C67.2168 59.6172 67.498 59.2891 67.8672 59.0254C68.2422 58.7617 68.6992 58.5625 69.2383 58.4277C69.7773 58.2871 70.3926 58.2168 71.084 58.2168H72.7451Z" fill="black"/>
<path d="M48.25 89.5H44.5V88.75C44.5 88.1533 44.2629 87.581 43.841 87.159C43.419 86.7371 42.8467 86.5 42.25 86.5H37.75C37.1533 86.5 36.581 86.7371 36.159 87.159C35.7371 87.581 35.5 88.1533 35.5 88.75V89.5H31.75C31.5511 89.5 31.3603 89.579 31.2197 89.7197C31.079 89.8603 31 90.0511 31 90.25C31 90.4489 31.079 90.6397 31.2197 90.7803C31.3603 90.921 31.5511 91 31.75 91H32.5V104.5C32.5 104.898 32.658 105.279 32.9393 105.561C33.2206 105.842 33.6022 106 34 106H46C46.3978 106 46.7794 105.842 47.0607 105.561C47.342 105.279 47.5 104.898 47.5 104.5V91H48.25C48.4489 91 48.6397 90.921 48.7803 90.7803C48.921 90.6397 49 90.4489 49 90.25C49 90.0511 48.921 89.8603 48.7803 89.7197C48.6397 89.579 48.4489 89.5 48.25 89.5ZM37 88.75C37 88.5511 37.079 88.3603 37.2197 88.2197C37.3603 88.079 37.5511 88 37.75 88H42.25C42.4489 88 42.6397 88.079 42.7803 88.2197C42.921 88.3603 43 88.5511 43 88.75V89.5H37V88.75ZM46 104.5H34V91H46V104.5ZM38.5 94.75V100.75C38.5 100.949 38.421 101.14 38.2803 101.28C38.1397 101.421 37.9489 101.5 37.75 101.5C37.5511 101.5 37.3603 101.421 37.2197 101.28C37.079 101.14 37 100.949 37 100.75V94.75C37 94.5511 37.079 94.3603 37.2197 94.2197C37.3603 94.079 37.5511 94 37.75 94C37.9489 94 38.1397 94.079 38.2803 94.2197C38.421 94.3603 38.5 94.5511 38.5 94.75ZM43 94.75V100.75C43 100.949 42.921 101.14 42.7803 101.28C42.6397 101.421 42.4489 101.5 42.25 101.5C42.0511 101.5 41.8603 101.421 41.7197 101.28C41.579 101.14 41.5 100.949 41.5 100.75V94.75C41.5 94.5511 41.579 94.3603 41.7197 94.2197C41.8603 94.079 42.0511 94 42.25 94C42.4489 94 42.6397 94.079 42.7803 94.2197C42.921 94.3603 43 94.5511 43 94.75Z" fill="black"/>
</g>
<defs>
<filter id="filter0_d_19_155" x="0" y="0" width="142" height="139" filterUnits="userSpaceOnUse" color-interpolation-filters="sRGB">
<feFlood flood-opacity="0" result="BackgroundImageFix"/>
<feColorMatrix in="SourceAlpha" type="matrix" values="0 0 0 0 0 0 0 0 0 0 0 0 0 0 0 0 0 0 127 0" result="hardAlpha"/>
<feOffset dy="2"/>
<feGaussianBlur stdDeviation="2"/>
<feComposite in2="hardAlpha" operator="out"/>
<feColorMatrix type="matrix" values="0 0 0 0 0 0 0 0 0 0 0 0 0 0 0 0 0 0 0.25 0"/>
<feBlend mode="normal" in2="BackgroundImageFix" result="effect1_dropShadow_19_155"/>
<feBlend mode="normal" in="SourceGraphic" in2="effect1_dropShadow_19_155" result="shape"/>
</filter>
</defs>
</svg>
