<svg width="142" height="139" viewBox="0 0 142 139" fill="none" xmlns="http://www.w3.org/2000/svg">
<g filter="url(#filter0_d_19_151)">
<rect x="4" y="2" width="134" height="131" rx="12" fill="white" shape-rendering="crispEdges"/>
<path d="M36.0332 39.7041C36.0332 39.4404 35.9922 39.2061 35.9102 39.001C35.834 38.7959 35.6963 38.6084 35.4971 38.4385C35.2979 38.2686 35.0166 38.1045 34.6533 37.9463C34.2959 37.7822 33.8389 37.6152 33.2822 37.4453C32.6729 37.2578 32.1104 37.0498 31.5947 36.8213C31.085 36.5869 30.6396 36.3174 30.2588 36.0127C29.8779 35.7021 29.582 35.3477 29.3711 34.9492C29.1602 34.5449 29.0547 34.0791 29.0547 33.5518C29.0547 33.0303 29.1631 32.5557 29.3799 32.1279C29.6025 31.7002 29.916 31.3311 30.3203 31.0205C30.7305 30.7041 31.2139 30.4609 31.7705 30.291C32.3271 30.1152 32.9424 30.0273 33.6162 30.0273C34.5654 30.0273 35.3828 30.2031 36.0684 30.5547C36.7598 30.9062 37.29 31.3779 37.6592 31.9697C38.0342 32.5615 38.2217 33.2148 38.2217 33.9297H36.0332C36.0332 33.5078 35.9424 33.1357 35.7607 32.8135C35.585 32.4854 35.3154 32.2275 34.9521 32.04C34.5947 31.8525 34.1406 31.7588 33.5898 31.7588C33.0684 31.7588 32.6348 31.8379 32.2891 31.9961C31.9434 32.1543 31.6855 32.3682 31.5156 32.6377C31.3457 32.9072 31.2607 33.2119 31.2607 33.5518C31.2607 33.792 31.3164 34.0117 31.4277 34.2109C31.5391 34.4043 31.709 34.5859 31.9375 34.7559C32.166 34.9199 32.4531 35.0752 32.7988 35.2217C33.1445 35.3682 33.5518 35.5088 34.0205 35.6436C34.7295 35.8545 35.3477 36.0889 35.875 36.3467C36.4023 36.5986 36.8418 36.8857 37.1934 37.208C37.5449 37.5303 37.8086 37.8965 37.9844 38.3066C38.1602 38.7109 38.248 39.1709 38.248 39.6865C38.248 40.2256 38.1396 40.7119 37.9229 41.1455C37.7061 41.5732 37.3955 41.9395 36.9912 42.2441C36.5928 42.543 36.1123 42.7744 35.5498 42.9385C34.9932 43.0967 34.3721 43.1758 33.6865 43.1758C33.0713 43.1758 32.4648 43.0938 31.8672 42.9297C31.2754 42.7656 30.7363 42.5166 30.25 42.1826C29.7637 41.8428 29.377 41.4209 29.0898 40.917C28.8027 40.4072 28.6592 39.8125 28.6592 39.1328H30.8652C30.8652 39.5488 30.9355 39.9033 31.0762 40.1963C31.2227 40.4893 31.4248 40.7295 31.6826 40.917C31.9404 41.0986 32.2393 41.2334 32.5791 41.3213C32.9248 41.4092 33.2939 41.4531 33.6865 41.4531C34.2021 41.4531 34.6328 41.3799 34.9785 41.2334C35.3301 41.0869 35.5938 40.8818 35.7695 40.6182C35.9453 40.3545 36.0332 40.0498 36.0332 39.7041ZM45.3496 41.0928V36.5576C45.3496 36.2178 45.2881 35.9248 45.165 35.6787C45.042 35.4326 44.8545 35.2422 44.6025 35.1074C44.3564 34.9727 44.0459 34.9053 43.6709 34.9053C43.3252 34.9053 43.0264 34.9639 42.7744 35.0811C42.5225 35.1982 42.3262 35.3564 42.1855 35.5557C42.0449 35.7549 41.9746 35.9805 41.9746 36.2324H39.8652C39.8652 35.8574 39.9561 35.4941 40.1377 35.1426C40.3193 34.791 40.583 34.4775 40.9287 34.2021C41.2744 33.9268 41.6875 33.71 42.168 33.5518C42.6484 33.3936 43.1875 33.3145 43.7852 33.3145C44.5 33.3145 45.1328 33.4346 45.6836 33.6748C46.2402 33.915 46.6768 34.2783 46.9932 34.7646C47.3154 35.2451 47.4766 35.8486 47.4766 36.5752V40.8027C47.4766 41.2363 47.5059 41.626 47.5645 41.9717C47.6289 42.3115 47.7197 42.6074 47.8369 42.8594V43H45.666C45.5664 42.7715 45.4873 42.4814 45.4287 42.1299C45.376 41.7725 45.3496 41.4268 45.3496 41.0928ZM45.6572 37.2168L45.6748 38.5264H44.1543C43.7617 38.5264 43.416 38.5645 43.1172 38.6406C42.8184 38.7109 42.5693 38.8164 42.3701 38.957C42.1709 39.0977 42.0215 39.2676 41.9219 39.4668C41.8223 39.666 41.7725 39.8916 41.7725 40.1436C41.7725 40.3955 41.8311 40.627 41.9482 40.8379C42.0654 41.043 42.2354 41.2041 42.458 41.3213C42.6865 41.4385 42.9619 41.4971 43.2842 41.4971C43.7178 41.4971 44.0957 41.4092 44.418 41.2334C44.7461 41.0518 45.0039 40.832 45.1914 40.5742C45.3789 40.3105 45.4785 40.0615 45.4902 39.8271L46.1758 40.7676C46.1055 41.0078 45.9854 41.2656 45.8154 41.541C45.6455 41.8164 45.4229 42.0801 45.1475 42.332C44.8779 42.5781 44.5527 42.7803 44.1719 42.9385C43.7969 43.0967 43.3633 43.1758 42.8711 43.1758C42.25 43.1758 41.6963 43.0527 41.21 42.8066C40.7236 42.5547 40.3428 42.2178 40.0674 41.7959C39.792 41.3682 39.6543 40.8848 39.6543 40.3457C39.6543 39.8418 39.748 39.3965 39.9355 39.0098C40.1289 38.6172 40.4102 38.2891 40.7793 38.0254C41.1543 37.7617 41.6113 37.5625 42.1504 37.4277C42.6895 37.2871 43.3047 37.2168 43.9961 37.2168H45.6572ZM51.959 33.4902V43H49.832V33.4902H51.959ZM49.6914 30.9941C49.6914 30.6719 49.7969 30.4053 50.0078 30.1943C50.2246 29.9775 50.5234 29.8691 50.9043 29.8691C51.2793 29.8691 51.5752 29.9775 51.792 30.1943C52.0088 30.4053 52.1172 30.6719 52.1172 30.9941C52.1172 31.3105 52.0088 31.5742 51.792 31.7852C51.5752 31.9961 51.2793 32.1016 50.9043 32.1016C50.5234 32.1016 50.2246 31.9961 50.0078 31.7852C49.7969 31.5742 49.6914 31.3105 49.6914 30.9941ZM56.4062 35.3008V43H54.2881V33.4902H56.3096L56.4062 35.3008ZM59.3154 33.4287L59.2979 35.3975C59.1689 35.374 59.0283 35.3564 58.876 35.3447C58.7295 35.333 58.583 35.3271 58.4365 35.3271C58.0732 35.3271 57.7539 35.3799 57.4785 35.4854C57.2031 35.585 56.9717 35.7314 56.7842 35.9248C56.6025 36.1123 56.4619 36.3408 56.3623 36.6104C56.2627 36.8799 56.2041 37.1816 56.1865 37.5156L55.7031 37.5508C55.7031 36.9531 55.7617 36.3994 55.8789 35.8896C55.9961 35.3799 56.1719 34.9316 56.4062 34.5449C56.6465 34.1582 56.9453 33.8564 57.3027 33.6396C57.666 33.4229 58.085 33.3145 58.5596 33.3145C58.6885 33.3145 58.8262 33.3262 58.9727 33.3496C59.125 33.373 59.2393 33.3994 59.3154 33.4287ZM70.9258 41.0312V29.5H73.0527V43H71.1279L70.9258 41.0312ZM64.7383 38.3506V38.166C64.7383 37.4453 64.8232 36.7891 64.9932 36.1973C65.1631 35.5996 65.4092 35.0869 65.7314 34.6592C66.0537 34.2256 66.4463 33.8945 66.9092 33.666C67.3721 33.4316 67.8936 33.3145 68.4736 33.3145C69.0479 33.3145 69.5518 33.4258 69.9854 33.6484C70.4189 33.8711 70.7881 34.1904 71.0928 34.6064C71.3975 35.0166 71.6406 35.5088 71.8223 36.083C72.0039 36.6514 72.1328 37.2842 72.209 37.9814V38.5703C72.1328 39.25 72.0039 39.8711 71.8223 40.4336C71.6406 40.9961 71.3975 41.4824 71.0928 41.8926C70.7881 42.3027 70.416 42.6191 69.9766 42.8418C69.543 43.0645 69.0361 43.1758 68.4561 43.1758C67.8818 43.1758 67.3633 43.0557 66.9004 42.8154C66.4434 42.5752 66.0537 42.2383 65.7314 41.8047C65.4092 41.3711 65.1631 40.8613 64.9932 40.2754C64.8232 39.6836 64.7383 39.042 64.7383 38.3506ZM66.8564 38.166V38.3506C66.8564 38.7842 66.8945 39.1885 66.9707 39.5635C67.0527 39.9385 67.1787 40.2695 67.3486 40.5566C67.5186 40.8379 67.7383 41.0605 68.0078 41.2246C68.2832 41.3828 68.6113 41.4619 68.9922 41.4619C69.4727 41.4619 69.8682 41.3564 70.1787 41.1455C70.4893 40.9346 70.7324 40.6504 70.9082 40.293C71.0898 39.9297 71.2129 39.5254 71.2773 39.0801V37.4893C71.2422 37.1436 71.1689 36.8213 71.0576 36.5225C70.9521 36.2236 70.8086 35.9629 70.627 35.7402C70.4453 35.5117 70.2197 35.3359 69.9502 35.2129C69.6865 35.084 69.373 35.0195 69.0098 35.0195C68.623 35.0195 68.2949 35.1016 68.0254 35.2656C67.7559 35.4297 67.5332 35.6553 67.3574 35.9424C67.1875 36.2295 67.0615 36.5635 66.9795 36.9443C66.8975 37.3252 66.8564 37.7324 66.8564 38.166ZM80.6289 41.0928V36.5576C80.6289 36.2178 80.5674 35.9248 80.4443 35.6787C80.3213 35.4326 80.1338 35.2422 79.8818 35.1074C79.6357 34.9727 79.3252 34.9053 78.9502 34.9053C78.6045 34.9053 78.3057 34.9639 78.0537 35.0811C77.8018 35.1982 77.6055 35.3564 77.4648 35.5557C77.3242 35.7549 77.2539 35.9805 77.2539 36.2324H75.1445C75.1445 35.8574 75.2354 35.4941 75.417 35.1426C75.5986 34.791 75.8623 34.4775 76.208 34.2021C76.5537 33.9268 76.9668 33.71 77.4473 33.5518C77.9277 33.3936 78.4668 33.3145 79.0645 33.3145C79.7793 33.3145 80.4121 33.4346 80.9629 33.6748C81.5195 33.915 81.9561 34.2783 82.2725 34.7646C82.5947 35.2451 82.7559 35.8486 82.7559 36.5752V40.8027C82.7559 41.2363 82.7852 41.626 82.8438 41.9717C82.9082 42.3115 82.999 42.6074 83.1162 42.8594V43H80.9453C80.8457 42.7715 80.7666 42.4814 80.708 42.1299C80.6553 41.7725 80.6289 41.4268 80.6289 41.0928ZM80.9365 37.2168L80.9541 38.5264H79.4336C79.041 38.5264 78.6953 38.5645 78.3965 38.6406C78.0977 38.7109 77.8486 38.8164 77.6494 38.957C77.4502 39.0977 77.3008 39.2676 77.2012 39.4668C77.1016 39.666 77.0518 39.8916 77.0518 40.1436C77.0518 40.3955 77.1104 40.627 77.2275 40.8379C77.3447 41.043 77.5146 41.2041 77.7373 41.3213C77.9658 41.4385 78.2412 41.4971 78.5635 41.4971C78.9971 41.4971 79.375 41.4092 79.6973 41.2334C80.0254 41.0518 80.2832 40.832 80.4707 40.5742C80.6582 40.3105 80.7578 40.0615 80.7695 39.8271L81.4551 40.7676C81.3848 41.0078 81.2646 41.2656 81.0947 41.541C80.9248 41.8164 80.7021 42.0801 80.4268 42.332C80.1572 42.5781 79.832 42.7803 79.4512 42.9385C79.0762 43.0967 78.6426 43.1758 78.1504 43.1758C77.5293 43.1758 76.9756 43.0527 76.4893 42.8066C76.0029 42.5547 75.6221 42.2178 75.3467 41.7959C75.0713 41.3682 74.9336 40.8848 74.9336 40.3457C74.9336 39.8418 75.0273 39.3965 75.2148 39.0098C75.4082 38.6172 75.6895 38.2891 76.0586 38.0254C76.4336 37.7617 76.8906 37.5625 77.4297 37.4277C77.9688 37.2871 78.584 37.2168 79.2754 37.2168H80.9365ZM36.8594 59.834H39.0566C38.9863 60.6719 38.752 61.4189 38.3535 62.0752C37.9551 62.7256 37.3955 63.2383 36.6748 63.6133C35.9541 63.9883 35.0781 64.1758 34.0469 64.1758C33.2559 64.1758 32.5439 64.0352 31.9111 63.7539C31.2783 63.4668 30.7363 63.0625 30.2852 62.541C29.834 62.0137 29.4883 61.3779 29.248 60.6338C29.0137 59.8896 28.8965 59.0576 28.8965 58.1377V57.0742C28.8965 56.1543 29.0166 55.3223 29.2568 54.5781C29.5029 53.834 29.8545 53.1982 30.3115 52.6709C30.7686 52.1377 31.3164 51.7305 31.9551 51.4492C32.5996 51.168 33.3232 51.0273 34.126 51.0273C35.1455 51.0273 36.0068 51.2148 36.71 51.5898C37.4131 51.9648 37.958 52.4834 38.3447 53.1455C38.7373 53.8076 38.9775 54.5664 39.0654 55.4219H36.8682C36.8096 54.8711 36.6807 54.3994 36.4814 54.0068C36.2881 53.6143 36.001 53.3154 35.6201 53.1104C35.2393 52.8994 34.7412 52.7939 34.126 52.7939C33.6221 52.7939 33.1826 52.8877 32.8076 53.0752C32.4326 53.2627 32.1191 53.5381 31.8672 53.9014C31.6152 54.2646 31.4248 54.7129 31.2959 55.2461C31.1729 55.7734 31.1113 56.377 31.1113 57.0566V58.1377C31.1113 58.7822 31.167 59.3682 31.2783 59.8955C31.3955 60.417 31.5713 60.8652 31.8057 61.2402C32.0459 61.6152 32.3506 61.9053 32.7197 62.1104C33.0889 62.3154 33.5312 62.418 34.0469 62.418C34.6738 62.418 35.1807 62.3184 35.5674 62.1191C35.96 61.9199 36.2559 61.6299 36.4551 61.249C36.6602 60.8623 36.7949 60.3906 36.8594 59.834ZM40.4453 59.3506V59.1484C40.4453 58.4629 40.5449 57.8271 40.7441 57.2412C40.9434 56.6494 41.2305 56.1367 41.6055 55.7031C41.9863 55.2637 42.4492 54.9238 42.9941 54.6836C43.5449 54.4375 44.166 54.3145 44.8574 54.3145C45.5547 54.3145 46.1758 54.4375 46.7207 54.6836C47.2715 54.9238 47.7373 55.2637 48.1182 55.7031C48.499 56.1367 48.7891 56.6494 48.9883 57.2412C49.1875 57.8271 49.2871 58.4629 49.2871 59.1484V59.3506C49.2871 60.0361 49.1875 60.6719 48.9883 61.2578C48.7891 61.8438 48.499 62.3564 48.1182 62.7959C47.7373 63.2295 47.2744 63.5693 46.7295 63.8154C46.1846 64.0557 45.5664 64.1758 44.875 64.1758C44.1777 64.1758 43.5537 64.0557 43.0029 63.8154C42.458 63.5693 41.9951 63.2295 41.6143 62.7959C41.2334 62.3564 40.9434 61.8438 40.7441 61.2578C40.5449 60.6719 40.4453 60.0361 40.4453 59.3506ZM42.5635 59.1484V59.3506C42.5635 59.7783 42.6074 60.1826 42.6953 60.5635C42.7832 60.9443 42.9209 61.2783 43.1084 61.5654C43.2959 61.8525 43.5361 62.0781 43.8291 62.2422C44.1221 62.4062 44.4707 62.4883 44.875 62.4883C45.2676 62.4883 45.6074 62.4062 45.8945 62.2422C46.1875 62.0781 46.4277 61.8525 46.6152 61.5654C46.8027 61.2783 46.9404 60.9443 47.0283 60.5635C47.1221 60.1826 47.1689 59.7783 47.1689 59.3506V59.1484C47.1689 58.7266 47.1221 58.3281 47.0283 57.9531C46.9404 57.5723 46.7998 57.2354 46.6064 56.9424C46.4189 56.6494 46.1787 56.4209 45.8857 56.2568C45.5986 56.0869 45.2559 56.002 44.8574 56.002C44.459 56.002 44.1133 56.0869 43.8203 56.2568C43.5332 56.4209 43.2959 56.6494 43.1084 56.9424C42.9209 57.2354 42.7832 57.5723 42.6953 57.9531C42.6074 58.3281 42.5635 58.7266 42.5635 59.1484ZM53.1631 56.5205V64H51.0449V54.4902H53.04L53.1631 56.5205ZM52.7852 58.8936L52.0996 58.8848C52.1055 58.2109 52.1992 57.5928 52.3809 57.0303C52.5684 56.4678 52.8262 55.9844 53.1543 55.5801C53.4883 55.1758 53.8867 54.8652 54.3496 54.6484C54.8125 54.4258 55.3281 54.3145 55.8965 54.3145C56.3535 54.3145 56.7666 54.3789 57.1357 54.5078C57.5107 54.6309 57.8301 54.833 58.0938 55.1143C58.3633 55.3955 58.5684 55.7617 58.709 56.2129C58.8496 56.6582 58.9199 57.2061 58.9199 57.8564V64H56.793V57.8477C56.793 57.3906 56.7256 57.0303 56.5908 56.7666C56.4619 56.4971 56.2715 56.3066 56.0195 56.1953C55.7734 56.0781 55.4658 56.0195 55.0967 56.0195C54.7334 56.0195 54.4082 56.0957 54.1211 56.248C53.834 56.4004 53.5908 56.6084 53.3916 56.8721C53.1982 57.1357 53.0488 57.4404 52.9434 57.7861C52.8379 58.1318 52.7852 58.501 52.7852 58.8936ZM65.4414 54.4902V56.0371H60.0801V54.4902H65.4414ZM61.627 52.1611H63.7451V61.3721C63.7451 61.665 63.7861 61.8906 63.8682 62.0488C63.9561 62.2012 64.0762 62.3037 64.2285 62.3564C64.3809 62.4092 64.5596 62.4355 64.7646 62.4355C64.9111 62.4355 65.0518 62.4268 65.1865 62.4092C65.3213 62.3916 65.4297 62.374 65.5117 62.3564L65.5205 63.9736C65.3447 64.0264 65.1396 64.0732 64.9053 64.1143C64.6768 64.1553 64.4131 64.1758 64.1143 64.1758C63.6279 64.1758 63.1973 64.0908 62.8223 63.9209C62.4473 63.7451 62.1543 63.4609 61.9434 63.0684C61.7324 62.6758 61.627 62.1543 61.627 61.5039V52.1611ZM72.4375 62.0928V57.5576C72.4375 57.2178 72.376 56.9248 72.2529 56.6787C72.1299 56.4326 71.9424 56.2422 71.6904 56.1074C71.4443 55.9727 71.1338 55.9053 70.7588 55.9053C70.4131 55.9053 70.1143 55.9639 69.8623 56.0811C69.6104 56.1982 69.4141 56.3564 69.2734 56.5557C69.1328 56.7549 69.0625 56.9805 69.0625 57.2324H66.9531C66.9531 56.8574 67.0439 56.4941 67.2256 56.1426C67.4072 55.791 67.6709 55.4775 68.0166 55.2021C68.3623 54.9268 68.7754 54.71 69.2559 54.5518C69.7363 54.3936 70.2754 54.3145 70.873 54.3145C71.5879 54.3145 72.2207 54.4346 72.7715 54.6748C73.3281 54.915 73.7646 55.2783 74.0811 55.7646C74.4033 56.2451 74.5645 56.8486 74.5645 57.5752V61.8027C74.5645 62.2363 74.5938 62.626 74.6523 62.9717C74.7168 63.3115 74.8076 63.6074 74.9248 63.8594V64H72.7539C72.6543 63.7715 72.5752 63.4814 72.5166 63.1299C72.4639 62.7725 72.4375 62.4268 72.4375 62.0928ZM72.7451 58.2168L72.7627 59.5264H71.2422C70.8496 59.5264 70.5039 59.5645 70.2051 59.6406C69.9062 59.7109 69.6572 59.8164 69.458 59.957C69.2588 60.0977 69.1094 60.2676 69.0098 60.4668C68.9102 60.666 68.8604 60.8916 68.8604 61.1436C68.8604 61.3955 68.9189 61.627 69.0361 61.8379C69.1533 62.043 69.3232 62.2041 69.5459 62.3213C69.7744 62.4385 70.0498 62.4971 70.3721 62.4971C70.8057 62.4971 71.1836 62.4092 71.5059 62.2334C71.834 62.0518 72.0918 61.832 72.2793 61.5742C72.4668 61.3105 72.5664 61.0615 72.5781 60.8271L73.2637 61.7676C73.1934 62.0078 73.0732 62.2656 72.9033 62.541C72.7334 62.8164 72.5107 63.0801 72.2354 63.332C71.9658 63.5781 71.6406 63.7803 71.2598 63.9385C70.8848 64.0967 70.4512 64.1758 69.959 64.1758C69.3379 64.1758 68.7842 64.0527 68.2979 63.8066C67.8115 63.5547 67.4307 63.2178 67.1553 62.7959C66.8799 62.3682 66.7422 61.8848 66.7422 61.3457C66.7422 60.8418 66.8359 60.3965 67.0234 60.0098C67.2168 59.6172 67.498 59.2891 67.8672 59.0254C68.2422 58.7617 68.6992 58.5625 69.2383 58.4277C69.7773 58.2871 70.3926 58.2168 71.084 58.2168H72.7451Z" fill="black"/>
<path d="M39.25 105.25C39.25 105.449 39.171 105.64 39.0303 105.78C38.8897 105.921 38.6989 106 38.5 106H32.5C32.3011 106 32.1103 105.921 31.9697 105.78C31.829 105.64 31.75 105.449 31.75 105.25V88.75C31.75 88.5511 31.829 88.3603 31.9697 88.2197C32.1103 88.079 32.3011 88 32.5 88H38.5C38.6989 88 38.8897 88.079 39.0303 88.2197C39.171 88.3603 39.25 88.5511 39.25 88.75C39.25 88.9489 39.171 89.1397 39.0303 89.2803C38.8897 89.421 38.6989 89.5 38.5 89.5H33.25V104.5H38.5C38.6989 104.5 38.8897 104.579 39.0303 104.72C39.171 104.86 39.25 105.051 39.25 105.25ZM49.5306 96.4694L45.7806 92.7194C45.6399 92.5786 45.449 92.4996 45.25 92.4996C45.051 92.4996 44.8601 92.5786 44.7194 92.7194C44.5786 92.8601 44.4996 93.051 44.4996 93.25C44.4996 93.449 44.5786 93.6399 44.7194 93.7806L47.1897 96.25H38.5C38.3011 96.25 38.1103 96.329 37.9697 96.4697C37.829 96.6103 37.75 96.8011 37.75 97C37.75 97.1989 37.829 97.3897 37.9697 97.5303C38.1103 97.671 38.3011 97.75 38.5 97.75H47.1897L44.7194 100.219C44.5786 100.36 44.4996 100.551 44.4996 100.75C44.4996 100.949 44.5786 101.14 44.7194 101.281C44.8601 101.421 45.051 101.5 45.25 101.5C45.449 101.5 45.6399 101.421 45.7806 101.281L49.5306 97.5306C49.6004 97.461 49.6557 97.3783 49.6934 97.2872C49.7312 97.1962 49.7506 97.0986 49.7506 97C49.7506 96.9014 49.7312 96.8038 49.6934 96.7128C49.6557 96.6217 49.6004 96.539 49.5306 96.4694Z" fill="black"/>
</g>
<defs>
<filter id="filter0_d_19_151" x="0" y="0" width="142" height="139" filterUnits="userSpaceOnUse" color-interpolation-filters="sRGB">
<feFlood flood-opacity="0" result="BackgroundImageFix"/>
<feColorMatrix in="SourceAlpha" type="matrix" values="0 0 0 0 0 0 0 0 0 0 0 0 0 0 0 0 0 0 127 0" result="hardAlpha"/>
<feOffset dy="2"/>
<feGaussianBlur stdDeviation="2"/>
<feComposite in2="hardAlpha" operator="out"/>
<feColorMatrix type="matrix" values="0 0 0 0 0 0 0 0 0 0 0 0 0 0 0 0 0 0 0.25 0"/>
<feBlend mode="normal" in2="BackgroundImageFix" result="effect1_dropShadow_19_151"/>
<feBlend mode="normal" in="SourceGraphic" in2="effect1_dropShadow_19_151" result="shape"/>
</filter>
</defs>
</svg>
