<svg width="11" height="18" viewBox="0 0 11 18" fill="none" xmlns="http://www.w3.org/2000/svg">
<path d="M9.79591 15.7041C10.0073 15.9154 10.126 16.2021 10.126 16.501C10.126 16.7999 10.0073 17.0865 9.79591 17.2978C9.58457 17.5092 9.29792 17.6279 8.99904 17.6279C8.70015 17.6279 8.41351 17.5092 8.20216 17.2978L0.702163 9.79785C0.597283 9.69333 0.514067 9.56914 0.457286 9.4324C0.400505 9.29565 0.371277 9.14904 0.371277 9.00097C0.371277 8.85291 0.400505 8.7063 0.457286 8.56955C0.514067 8.43281 0.597283 8.30862 0.702163 8.2041L8.20216 0.7041C8.41351 0.492755 8.70015 0.374023 8.99904 0.374023C9.29792 0.374023 9.58457 0.492756 9.79591 0.7041C10.0073 0.915444 10.126 1.20209 10.126 1.50097C10.126 1.79986 10.0073 2.08651 9.79591 2.29785L3.09373 9.00004L9.79591 15.7041Z" fill="#F4F4F4"/>
</svg>
