<svg width="18" height="11" viewBox="0 0 18 11" fill="none" xmlns="http://www.w3.org/2000/svg">
<path d="M15.7041 1.20403C15.9154 0.992682 16.2021 0.873949 16.501 0.873949C16.7999 0.873949 17.0865 0.992682 17.2978 1.20403C17.5092 1.41537 17.6279 1.70201 17.6279 2.0009C17.6279 2.29979 17.5092 2.58643 17.2978 2.79778L9.79785 10.2978C9.69333 10.4027 9.56914 10.4859 9.4324 10.5427C9.29565 10.5994 9.14904 10.6287 9.00097 10.6287C8.85291 10.6287 8.7063 10.5994 8.56955 10.5427C8.43281 10.4859 8.30862 10.4027 8.2041 10.2978L0.7041 2.79778C0.492755 2.58643 0.374023 2.29979 0.374023 2.0009C0.374023 1.70201 0.492756 1.41537 0.7041 1.20403C0.915444 0.992682 1.20209 0.873949 1.50097 0.873949C1.79986 0.873949 2.08651 0.992682 2.29785 1.20403L9.00004 7.90621L15.7041 1.20403Z" fill="#5B3CC4"/>
</svg>
