<svg width="20" height="19" viewBox="0 0 20 19" fill="none" xmlns="http://www.w3.org/2000/svg">
<path d="M19.3572 3.25875L19.3497 3.26719L13 10.0472V15.2494C13.0003 15.4968 12.9395 15.7405 12.8229 15.9587C12.7062 16.1769 12.5375 16.3628 12.3315 16.5L9.33154 18.5006C9.10546 18.6512 8.84274 18.7376 8.57141 18.7505C8.30008 18.7635 8.03032 18.7025 7.79095 18.5741C7.55157 18.4457 7.35155 18.2547 7.21225 18.0215C7.07294 17.7883 6.99957 17.5216 6.99998 17.25V10.0472L0.650288 3.26719L0.642788 3.25875C0.44755 3.04389 0.318859 2.77699 0.272325 2.49043C0.225791 2.20387 0.263415 1.90996 0.380632 1.64436C0.497849 1.37876 0.689622 1.15288 0.932686 0.994131C1.17575 0.835378 1.45966 0.750572 1.74997 0.75H18.25C18.5405 0.750028 18.8248 0.834441 19.0683 0.992982C19.3118 1.15152 19.504 1.37737 19.6216 1.64308C19.7391 1.90878 19.777 2.20292 19.7305 2.48973C19.6841 2.77655 19.5554 3.04371 19.36 3.25875H19.3572Z" fill="#B58B46"/>
</svg>
