<svg width="24" height="24" viewBox="0 0 24 24" fill="none" xmlns="http://www.w3.org/2000/svg">
<path d="M17.25 12C17.2552 15.0305 16.6646 18.0324 15.5119 20.835C15.4559 20.9733 15.3601 21.0917 15.2365 21.1752C15.1129 21.2587 14.9673 21.3035 14.8181 21.3038C14.7217 21.3028 14.6263 21.2838 14.5369 21.2475C14.4457 21.2101 14.3627 21.155 14.2928 21.0855C14.2229 21.016 14.1673 20.9334 14.1294 20.8424C14.0914 20.7514 14.0717 20.6538 14.0715 20.5552C14.0713 20.4566 14.0906 20.359 14.1281 20.2678C15.2056 17.6449 15.7567 14.8356 15.75 12C15.75 11.8011 15.829 11.6103 15.9697 11.4697C16.1103 11.329 16.3011 11.25 16.5 11.25C16.6989 11.25 16.8897 11.329 17.0303 11.4697C17.171 11.6103 17.25 11.8011 17.25 12ZM12 8.25001C12.5275 8.25038 13.0489 8.36185 13.5305 8.57717C14.012 8.79249 14.4427 9.10682 14.7947 9.49969C14.8599 9.57487 14.9393 9.63633 15.0285 9.6805C15.1177 9.72466 15.2147 9.75064 15.314 9.75692C15.4133 9.76321 15.5128 9.74968 15.6069 9.71711C15.7009 9.68455 15.7875 9.6336 15.8616 9.56724C15.9357 9.50088 15.9959 9.42044 16.0387 9.33059C16.0814 9.24074 16.1058 9.14329 16.1105 9.04391C16.1153 8.94452 16.1001 8.8452 16.0661 8.75171C16.032 8.65823 15.9797 8.57245 15.9122 8.49938C15.2032 7.70718 14.2705 7.14887 13.2373 6.89832C12.2042 6.64776 11.1193 6.71676 10.1262 7.09619C9.13314 7.47562 8.27864 8.1476 7.67578 9.02324C7.07291 9.89888 6.75008 10.9369 6.75 12C6.7499 14.1596 6.20152 16.2837 5.15625 18.1734C5.10848 18.2596 5.07815 18.3544 5.067 18.4523C5.05585 18.5502 5.06409 18.6493 5.09125 18.744C5.11841 18.8387 5.16396 18.9272 5.2253 19.0043C5.28664 19.0814 5.36257 19.1457 5.44875 19.1934C5.53493 19.2412 5.62967 19.2715 5.72757 19.2827C5.82547 19.2938 5.92461 19.2856 6.01933 19.2584C6.11404 19.2313 6.20248 19.1857 6.27959 19.1244C6.3567 19.0631 6.42098 18.9871 6.46875 18.9009C7.63691 16.7884 8.24979 14.414 8.25 12C8.25 11.0054 8.64509 10.0516 9.34835 9.34836C10.0516 8.6451 11.0054 8.25001 12 8.25001ZM12 2.25001C10.8929 2.24867 9.79364 2.43637 8.74969 2.80501C8.56549 2.87387 8.41572 3.01232 8.33261 3.19055C8.2495 3.36877 8.23972 3.5725 8.30536 3.75786C8.371 3.94323 8.50681 4.0954 8.68356 4.18161C8.8603 4.26781 9.06383 4.28115 9.25031 4.21876C10.4949 3.77991 11.8266 3.64586 13.1336 3.82785C14.4407 4.00983 15.6851 4.50256 16.7625 5.2647C17.8399 6.02684 18.7188 7.03618 19.3256 8.20809C19.9324 9.38 20.2494 10.6803 20.25 12C20.2509 13.9628 20.0327 15.9197 19.5994 17.8341C19.5553 18.0276 19.5898 18.2307 19.6952 18.3989C19.8007 18.5671 19.9685 18.6866 20.1619 18.7313C20.2166 18.7439 20.2726 18.7502 20.3287 18.75C20.4988 18.75 20.6638 18.6921 20.7966 18.586C20.9295 18.4799 21.0224 18.3318 21.06 18.1659C21.5181 16.1426 21.7496 14.0746 21.75 12C21.7473 9.41498 20.7192 6.93662 18.8913 5.10873C17.0634 3.28084 14.585 2.25274 12 2.25001ZM6.50062 5.85188C6.57406 5.7862 6.63384 5.7067 6.67655 5.61791C6.71927 5.52913 6.74407 5.4328 6.74956 5.33443C6.75504 5.23605 6.7411 5.13757 6.70852 5.04458C6.67594 4.9516 6.62537 4.86594 6.55969 4.79251C6.494 4.71907 6.4145 4.65929 6.32572 4.61658C6.23693 4.57386 6.1406 4.54906 6.04223 4.54357C5.94386 4.53809 5.84537 4.55203 5.75239 4.58461C5.6594 4.61719 5.57375 4.66776 5.50031 4.73344C4.4786 5.64847 3.66111 6.76847 3.10109 8.02049C2.54107 9.2725 2.25107 10.6285 2.25 12C2.2521 13.1865 1.99618 14.3592 1.5 15.4369C1.45888 15.5264 1.43579 15.6231 1.43205 15.7215C1.42831 15.82 1.444 15.9182 1.47821 16.0105C1.54731 16.1971 1.68767 16.3485 1.86844 16.4316C2.0492 16.5146 2.25555 16.5225 2.44209 16.4534C2.62863 16.3843 2.78008 16.2439 2.86312 16.0631C3.44987 14.7891 3.75249 13.4027 3.75 12C3.75099 10.8395 3.99645 9.69224 4.47037 8.63293C4.9443 7.57362 5.63607 6.62603 6.50062 5.85188ZM10.68 18.8194C10.5905 18.7783 10.4938 18.7552 10.3953 18.7514C10.2969 18.7477 10.1987 18.7634 10.1063 18.7976C10.014 18.8318 9.92925 18.8839 9.85701 18.9508C9.78477 19.0178 9.72643 19.0983 9.68531 19.1878C9.50531 19.5816 9.31031 19.9744 9.09562 20.3541C9.04767 20.4403 9.01719 20.5351 9.00594 20.6331C8.99468 20.7311 9.00288 20.8304 9.03005 20.9252C9.05722 21.0201 9.10283 21.1086 9.16428 21.1858C9.22572 21.263 9.30179 21.3273 9.38812 21.375C9.49899 21.4369 9.62395 21.4692 9.75094 21.4688C9.88484 21.4688 10.0163 21.433 10.1317 21.3651C10.2471 21.2972 10.3422 21.1996 10.4072 21.0825C10.6359 20.6691 10.8516 20.2388 11.0484 19.815C11.0897 19.7255 11.1129 19.6286 11.1167 19.5301C11.1206 19.4316 11.1049 19.3333 11.0707 19.2408C11.0365 19.1483 10.9843 19.0635 10.9173 18.9912C10.8503 18.9189 10.7696 18.8605 10.68 18.8194ZM12 11.25C11.8011 11.25 11.6103 11.329 11.4697 11.4697C11.329 11.6103 11.25 11.8011 11.25 12C11.2505 13.4546 11.0682 14.9034 10.7072 16.3125C10.6576 16.5051 10.6866 16.7094 10.7877 16.8807C10.8888 17.0519 11.0537 17.176 11.2462 17.2256C11.3075 17.2412 11.3705 17.2491 11.4337 17.2491C11.5999 17.2489 11.7614 17.1936 11.8927 17.0918C12.024 16.99 12.1178 16.8475 12.1594 16.6866C12.5524 15.1551 12.7509 13.5802 12.75 11.9991C12.7497 11.8003 12.6706 11.6098 12.53 11.4693C12.3894 11.3289 12.1987 11.25 12 11.25Z" fill="black"/>
</svg>
