<svg width="18" height="21" viewBox="0 0 18 21" fill="none" xmlns="http://www.w3.org/2000/svg">
<path d="M12.75 13.2501C12.75 13.449 12.671 13.6398 12.5303 13.7804C12.3897 13.9211 12.1989 14.0001 12 14.0001H6C5.80109 14.0001 5.61032 13.9211 5.46967 13.7804C5.32902 13.6398 5.25 13.449 5.25 13.2501C5.25 13.0512 5.32902 12.8604 5.46967 12.7198C5.61032 12.5791 5.80109 12.5001 6 12.5001H12C12.1989 12.5001 12.3897 12.5791 12.5303 12.7198C12.671 12.8604 12.75 13.0512 12.75 13.2501ZM12 9.50011H6C5.80109 9.50011 5.61032 9.57913 5.46967 9.71978C5.32902 9.86043 5.25 10.0512 5.25 10.2501C5.25 10.449 5.32902 10.6398 5.46967 10.7804C5.61032 10.9211 5.80109 11.0001 6 11.0001H12C12.1989 11.0001 12.3897 10.9211 12.5303 10.7804C12.671 10.6398 12.75 10.449 12.75 10.2501C12.75 10.0512 12.671 9.86043 12.5303 9.71978C12.3897 9.57913 12.1989 9.50011 12 9.50011ZM17.25 3.50011V19.2501C17.25 19.6479 17.092 20.0295 16.8107 20.3108C16.5294 20.5921 16.1478 20.7501 15.75 20.7501H2.25C1.85218 20.7501 1.47064 20.5921 1.18934 20.3108C0.908035 20.0295 0.75 19.6479 0.75 19.2501V3.50011C0.75 3.10228 0.908035 2.72075 1.18934 2.43945C1.47064 2.15814 1.85218 2.00011 2.25 2.00011H5.64937C6.07079 1.52829 6.58709 1.15079 7.1645 0.892319C7.7419 0.633851 8.36738 0.500244 9 0.500244C9.63262 0.500244 10.2581 0.633851 10.8355 0.892319C11.4129 1.15079 11.9292 1.52829 12.3506 2.00011H15.75C16.1478 2.00011 16.5294 2.15814 16.8107 2.43945C17.092 2.72075 17.25 3.10228 17.25 3.50011ZM6 5.00011H12C12 4.20446 11.6839 3.4414 11.1213 2.87879C10.5587 2.31618 9.79565 2.00011 9 2.00011C8.20435 2.00011 7.44129 2.31618 6.87868 2.87879C6.31607 3.4414 6 4.20446 6 5.00011ZM15.75 3.50011H13.2422C13.4128 3.98181 13.5 4.48909 13.5 5.00011V5.75011C13.5 5.94902 13.421 6.13979 13.2803 6.28044C13.1397 6.42109 12.9489 6.50011 12.75 6.50011H5.25C5.05109 6.50011 4.86032 6.42109 4.71967 6.28044C4.57902 6.13979 4.5 5.94902 4.5 5.75011V5.00011C4.50002 4.48909 4.58721 3.98181 4.75781 3.50011H2.25V19.2501H15.75V3.50011Z" fill="white"/>
</svg>
