<svg width="25" height="24" viewBox="0 0 25 24" fill="none" xmlns="http://www.w3.org/2000/svg">
<path d="M21.2938 16.4944C20.7734 15.5981 20 13.0622 20 9.75C20 7.76088 19.2098 5.85322 17.8033 4.4467C16.3968 3.04018 14.4891 2.25 12.5 2.25C10.5109 2.25 8.60322 3.04018 7.1967 4.4467C5.79018 5.85322 5 7.76088 5 9.75C5 13.0631 4.22563 15.5981 3.70531 16.4944C3.57244 16.7222 3.502 16.9811 3.5011 17.2449C3.50019 17.5086 3.56885 17.768 3.70016 17.9967C3.83146 18.2255 4.02076 18.4156 4.24897 18.5478C4.47719 18.6801 4.73624 18.7498 5 18.75H8.82594C8.99897 19.5967 9.45915 20.3577 10.1286 20.9042C10.7981 21.4507 11.6358 21.7492 12.5 21.7492C13.3642 21.7492 14.2019 21.4507 14.8714 20.9042C15.5409 20.3577 16.001 19.5967 16.1741 18.75H20C20.2637 18.7496 20.5226 18.6798 20.7507 18.5475C20.9788 18.4151 21.1679 18.225 21.2991 17.9963C21.4303 17.7676 21.4989 17.5083 21.498 17.2446C21.497 16.9809 21.4266 16.7222 21.2938 16.4944ZM12.5 20.25C12.0348 20.2499 11.5811 20.1055 11.2014 19.8369C10.8216 19.5683 10.5344 19.1886 10.3794 18.75H14.6206C14.4656 19.1886 14.1784 19.5683 13.7986 19.8369C13.4189 20.1055 12.9652 20.2499 12.5 20.25ZM5 17.25C5.72188 16.0087 6.5 13.1325 6.5 9.75C6.5 8.1587 7.13214 6.63258 8.25736 5.50736C9.38258 4.38214 10.9087 3.75 12.5 3.75C14.0913 3.75 15.6174 4.38214 16.7426 5.50736C17.8679 6.63258 18.5 8.1587 18.5 9.75C18.5 13.1297 19.2763 16.0059 20 17.25H5Z" fill="#5B3CC4"/>
</svg>
