<svg width="20" height="20" viewBox="0 0 20 20" fill="none" xmlns="http://www.w3.org/2000/svg">
<path d="M19.6488 17.8751C18.2209 15.4067 16.0206 13.6367 13.4528 12.7976C14.723 12.0415 15.7098 10.8893 16.2618 9.51804C16.8137 8.14678 16.9003 6.63224 16.5082 5.20701C16.1161 3.78178 15.267 2.52467 14.0912 1.62873C12.9155 0.732786 11.4782 0.247559 10 0.247559C8.52182 0.247559 7.0845 0.732786 5.90878 1.62873C4.73305 2.52467 3.88394 3.78178 3.49182 5.20701C3.09971 6.63224 3.18628 8.14678 3.73824 9.51804C4.2902 10.8893 5.27703 12.0415 6.54719 12.7976C3.97938 13.6357 1.77906 15.4057 0.351252 17.8751C0.298892 17.9605 0.264161 18.0555 0.24911 18.1545C0.234059 18.2535 0.238992 18.3545 0.263619 18.4516C0.288245 18.5487 0.332065 18.6399 0.392494 18.7197C0.452924 18.7996 0.528737 18.8666 0.615463 18.9167C0.702188 18.9667 0.798069 18.999 0.897447 19.0114C0.996825 19.0238 1.09769 19.0163 1.19408 18.9891C1.29048 18.9619 1.38046 18.9157 1.45871 18.8532C1.53696 18.7907 1.6019 18.7131 1.64969 18.6251C3.41594 15.5726 6.53781 13.7501 10 13.7501C13.4622 13.7501 16.5841 15.5726 18.3503 18.6251C18.3981 18.7131 18.463 18.7907 18.5413 18.8532C18.6195 18.9157 18.7095 18.9619 18.8059 18.9891C18.9023 19.0163 19.0032 19.0238 19.1026 19.0114C19.2019 18.999 19.2978 18.9667 19.3845 18.9167C19.4713 18.8666 19.5471 18.7996 19.6075 18.7197C19.6679 18.6399 19.7118 18.5487 19.7364 18.4516C19.761 18.3545 19.7659 18.2535 19.7509 18.1545C19.7358 18.0555 19.7011 17.9605 19.6488 17.8751ZM4.75 7.00011C4.75 5.96176 5.05791 4.94672 5.63479 4.08337C6.21166 3.22001 7.0316 2.5471 7.99091 2.14974C8.95023 1.75238 10.0058 1.64841 11.0242 1.85099C12.0426 2.05356 12.9781 2.55357 13.7123 3.2878C14.4465 4.02202 14.9466 4.95748 15.1491 5.97589C15.3517 6.99429 15.2477 8.04989 14.8504 9.0092C14.453 9.96851 13.7801 10.7884 12.9167 11.3653C12.0534 11.9422 11.0384 12.2501 10 12.2501C8.60807 12.2486 7.27358 11.695 6.28934 10.7108C5.30509 9.72653 4.75149 8.39204 4.75 7.00011Z" fill="black"/>
</svg>
