<svg width="11" height="18" viewBox="0 0 11 18" fill="none" xmlns="http://www.w3.org/2000/svg">
<path d="M1.20406 2.2959C0.992712 2.08456 0.87398 1.79791 0.87398 1.49903C0.87398 1.20014 0.992712 0.913494 1.20406 0.70215C1.4154 0.490807 1.70204 0.372072 2.00093 0.372072C2.29982 0.372072 2.58646 0.490807 2.79781 0.70215L10.2978 8.20215C10.4027 8.30667 10.4859 8.43086 10.5427 8.5676C10.5995 8.70435 10.6287 8.85096 10.6287 8.99903C10.6287 9.14709 10.5995 9.2937 10.5427 9.43045C10.4859 9.56719 10.4027 9.69138 10.2978 9.7959L2.79781 17.2959C2.58646 17.5072 2.29982 17.626 2.00093 17.626C1.70204 17.626 1.4154 17.5072 1.20406 17.2959C0.992712 17.0846 0.87398 16.7979 0.87398 16.499C0.87398 16.2001 0.992712 15.9135 1.20406 15.7022L7.90624 8.99996L1.20406 2.2959Z" fill="#1E1E1E"/>
</svg>
