<svg width="11" height="18" viewBox="0 0 11 18" fill="none" xmlns="http://www.w3.org/2000/svg">
<path d="M9.79591 15.704C10.0073 15.9154 10.126 16.202 10.126 16.5009C10.126 16.7998 10.0073 17.0864 9.79591 17.2978C9.58457 17.5091 9.29792 17.6279 8.99904 17.6279C8.70015 17.6279 8.41351 17.5091 8.20216 17.2978L0.702163 9.79779C0.597283 9.69327 0.514067 9.56908 0.457286 9.43233C0.400505 9.29559 0.371277 9.14898 0.371277 9.00091C0.371277 8.85285 0.400505 8.70624 0.457286 8.56949C0.514067 8.43275 0.597283 8.30856 0.702163 8.20404L8.20216 0.704039C8.41351 0.492694 8.70015 0.373962 8.99904 0.373962C9.29792 0.373962 9.58457 0.492695 9.79591 0.704039C10.0073 0.915383 10.126 1.20203 10.126 1.50091C10.126 1.7998 10.0073 2.08644 9.79591 2.29779L3.09373 8.99998L9.79591 15.704Z" fill="#F4F4F4"/>
</svg>
