<svg width="329" height="56" viewBox="0 0 329 56" fill="none" xmlns="http://www.w3.org/2000/svg">
<path d="M86.3047 9.875V44H79.2969V9.875H86.3047ZM96.8047 9.875V15.3828H68.9609V9.875H96.8047ZM112.156 15.7109L102.875 44H95.3984L108.078 9.875H112.836L112.156 15.7109ZM119.867 44L110.562 15.7109L109.812 9.875H114.617L127.367 44H119.867ZM119.445 31.2969V36.8047H101.422V31.2969H119.445ZM148.297 35.0703C148.297 34.4609 148.203 33.9141 148.016 33.4297C147.844 32.9297 147.516 32.4766 147.031 32.0703C146.547 31.6484 145.867 31.2344 144.992 30.8281C144.117 30.4219 142.984 30 141.594 29.5625C140.047 29.0625 138.578 28.5 137.188 27.875C135.812 27.25 134.594 26.5234 133.531 25.6953C132.484 24.8516 131.656 23.875 131.047 22.7656C130.453 21.6562 130.156 20.3672 130.156 18.8984C130.156 17.4766 130.469 16.1875 131.094 15.0312C131.719 13.8594 132.594 12.8594 133.719 12.0312C134.844 11.1875 136.172 10.5391 137.703 10.0859C139.25 9.63281 140.945 9.40625 142.789 9.40625C145.305 9.40625 147.5 9.85937 149.375 10.7656C151.25 11.6719 152.703 12.9141 153.734 14.4922C154.781 16.0703 155.305 17.875 155.305 19.9062H148.32C148.32 18.9062 148.109 18.0312 147.688 17.2812C147.281 16.5156 146.656 15.9141 145.812 15.4766C144.984 15.0391 143.938 14.8203 142.672 14.8203C141.453 14.8203 140.438 15.0078 139.625 15.3828C138.812 15.7422 138.203 16.2344 137.797 16.8594C137.391 17.4688 137.188 18.1562 137.188 18.9219C137.188 19.5 137.328 20.0234 137.609 20.4922C137.906 20.9609 138.344 21.3984 138.922 21.8047C139.5 22.2109 140.211 22.5938 141.055 22.9531C141.898 23.3125 142.875 23.6641 143.984 24.0078C145.844 24.5703 147.477 25.2031 148.883 25.9062C150.305 26.6094 151.492 27.3984 152.445 28.2734C153.398 29.1484 154.117 30.1406 154.602 31.25C155.086 32.3594 155.328 33.6172 155.328 35.0234C155.328 36.5078 155.039 37.8359 154.461 39.0078C153.883 40.1797 153.047 41.1719 151.953 41.9844C150.859 42.7969 149.555 43.4141 148.039 43.8359C146.523 44.2578 144.828 44.4688 142.953 44.4688C141.266 44.4688 139.602 44.25 137.961 43.8125C136.32 43.3594 134.828 42.6797 133.484 41.7734C132.156 40.8672 131.094 39.7109 130.297 38.3047C129.5 36.8984 129.102 35.2344 129.102 33.3125H136.156C136.156 34.375 136.32 35.2734 136.648 36.0078C136.977 36.7422 137.438 37.3359 138.031 37.7891C138.641 38.2422 139.359 38.5703 140.188 38.7734C141.031 38.9766 141.953 39.0781 142.953 39.0781C144.172 39.0781 145.172 38.9062 145.953 38.5625C146.75 38.2188 147.336 37.7422 147.711 37.1328C148.102 36.5234 148.297 35.8359 148.297 35.0703ZM167.141 9.875V44H160.109V9.875H167.141ZM187.578 9.875L174.055 26.7266L166.25 35.1172L164.984 28.4609L170.258 21.2422L178.953 9.875H187.578ZM179.586 44L169.531 28.2266L174.734 23.8672L187.906 44H179.586ZM212.562 38.5156V44H195.383V38.5156H212.562ZM197.656 9.875V44H190.625V9.875H197.656ZM215 9.875L222.125 25.4375L229.25 9.875H236.914L225.688 31.5781V44H218.562V31.5781L207.312 9.875H215Z" fill="black"/>
<path d="M258.75 12C258.75 13.9284 258.178 15.8134 257.107 17.4168C256.035 19.0202 254.513 20.2699 252.731 21.0078C250.95 21.7458 248.989 21.9389 247.098 21.5627C245.207 21.1865 243.469 20.2579 242.106 18.8943C240.742 17.5307 239.814 15.7934 239.437 13.9021C239.061 12.0108 239.254 10.0504 239.992 8.26884C240.73 6.48726 241.98 4.96451 243.583 3.89317C245.187 2.82183 247.072 2.25 249 2.25C251.585 2.25323 254.063 3.28149 255.891 5.10927C257.719 6.93705 258.747 9.41513 258.75 12Z" fill="#5B3CC4"/>
</svg>
